<mxfile host="app.diagrams.net" modified="2024-01-18T13:59:20.742Z" agent="Mozilla/5.0 (Macintosh; Intel Mac OS X 10_15_7) AppleWebKit/537.36 (KHTML, like Gecko) Chrome/120.0.0.0 Safari/537.36" etag="HrIJKyKnh-wQ1SeUe2J1" version="22.1.21" type="github">
  <diagram id="C5RBs43oDa-KdzZeNtuy" name="Page-1">
    <mxGraphModel dx="639" dy="665" grid="1" gridSize="10" guides="1" tooltips="1" connect="1" arrows="1" fold="1" page="1" pageScale="1" pageWidth="827" pageHeight="1169" math="0" shadow="0">
      <root>
        <mxCell id="WIyWlLk6GJQsqaUBKTNV-0" />
        <mxCell id="WIyWlLk6GJQsqaUBKTNV-1" parent="WIyWlLk6GJQsqaUBKTNV-0" />
        <mxCell id="bLt_DuCS9akk9Niv8NfP-1" value="" style="shape=image;verticalLabelPosition=bottom;labelBackgroundColor=default;verticalAlign=top;aspect=fixed;imageAspect=0;image=data:image/png,iVBORw0KGgoAAAANSUhEUgAAALIAAAC+CAYAAACRSFUTAAAKqmlDQ1BJQ0MgUHJvZmlsZQAASImVlwdUU9kWhs+96SGhJURASuhNegsgJYQWQEE6iEpIAoQSYiA0OzKowFhQEcGKDlXBUSky2BDFNiioYB+QQUEZBws2VN4FFmFm3nrvrbfX2ut8+bPPPvucdc9d+wJAlueIRMmwPAApwnRxkLc7PSIyio4bBhBAAyLQBTQON03EDAz0B4jNjn+3D71INGJ3TKdy/fv//9UUePw0LgBQIMKxvDRuCsKnEX/JFYnTAUAdQnSdzHTRFHcgTBUjBSJ8f4rjZ3h0imOnGQ2mY0KCWAhTAcCTOBxxPAAkOqLTM7jxSB6SG8IWQp5AiLAIYZeUlFQewicQNkRiEI00lZ8R+5c88X/LGSvNyeHES3lmL9OG9xCkiZI52f/ncfxvS0mWzK6hjzgpQewThIyKyJndT0r1k7IwdnHALAt40/HTnCDxCZ1lbhorapZ5HA8/6dzkxf6zHCfwYkvzpLNDZpmf5hk8y+LUIOlacWIWc5Y54rl1JUmhUj2Bz5bmz0kICZ/lDEHY4llOSwr2m4thSXWxJEhaP1/o7T63rpd07ylpf9mvgC2dm54Q4iPdO2eufr6QOZczLUJaG4/v4TkXEyqNF6W7S9cSJQdK4/nJ3lI9LSNYOjcdeSDn5gZKzzCR4xs4y4AFUkEy4mJAB/7ILw8A0vlZ6VMbYaWKssWC+IR0OhO5YXw6W8g1W0C3srCyAWDqvs48Du9o0/cQol2f03IzAHA2mpycbJvT/B0AON0CAHFkTjNEniVZTQCubuZKxBkz2vRdwiBvATlABSpAA+gAQ2AKrIAdcAJuwBP4ggAQAiLBcsAFCSAFqTwTrAYbQD4oBNvBblAGDoIjoBocBydBM2gDF8EVcAPcBvfAI9APhsArMAY+gAkIgnAQGaJAKpAmpAeZQFYQA3KBPCF/KAiKhGKgeEgISaDV0EaoECqGyqDDUA30M3QGughdg7qhB9AANAK9hb7AKJgEU2F1WB82hxkwE/aDQ+BlcDy8Es6B8+CtcClcAR+Dm+CL8A34HtwPv4LHUQAlg6KhtFCmKAaKhQpARaHiUGLUWlQBqgRVgapHtaI6UXdQ/ahR1Gc0Fk1B09GmaCe0DzoUzUWvRK9FF6HL0NXoJnQH+g56AD2G/o4hY9QwJhhHDBsTgYnHZGLyMSWYSkwj5jLmHmYI8wGLxdKwBlh7rA82EpuIXYUtwu7HNmAvYLuxg9hxHA6ngjPBOeMCcBxcOi4ftxd3DHce14Mbwn3Cy+A18VZ4L3wUXojPxZfga/Hn8D34F/gJgjxBj+BICCDwCNmEbYSjhFbCLcIQYYKoQDQgOhNDiInEDcRSYj3xMvEx8Z2MjIy2jIPMEhmBzHqZUpkTMldlBmQ+kxRJxiQWKZokIW0lVZEukB6Q3pHJZH2yGzmKnE7eSq4hXyI/JX+SpciaybJlebLrZMtlm2R7ZF/LEeT05Jhyy+Vy5ErkTsndkhuVJ8jry7PkOfJr5cvlz8j3yY8rUBQsFQIUUhSKFGoVrikMK+IU9RU9FXmKeYpHFC8pDlJQFB0Ki8KlbKQcpVymDFGxVAMqm5pILaQep3ZRx5QUlWyUwpSylMqVzir101A0fRqblkzbRjtJ66V9mac+jzmPP2/LvPp5PfM+Ks9XdlPmKxcoNyjfU/6iQlfxVElS2aHSrPJEFa1qrLpENVP1gOpl1dH51PlO87nzC+afnP9QDVYzVgtSW6V2RO2m2ri6hrq3ukh9r/ol9VENmoabRqLGLo1zGiOaFE0XTYHmLs3zmi/pSnQmPZleSu+gj2mpafloSbQOa3VpTWgbaIdq52o3aD/RIeowdOJ0dum064zpauou0l2tW6f7UI+gx9BL0Nuj16n3Ud9AP1x/k36z/rCBsgHbIMegzuCxIdnQ1XClYYXhXSOsEcMoyWi/0W1j2NjWOMG43PiWCWxiZyIw2W/SvQCzwGGBcEHFgj5TkinTNMO0znTAjGbmb5Zr1mz22lzXPMp8h3mn+XcLW4tki6MWjywVLX0tcy1bLd9aGVtxrcqt7lqTrb2s11m3WL+xMbHh2xywuW9LsV1ku8m23fabnb2d2K7ebsRe1z7Gfp99H4PKCGQUMa46YBzcHdY5tDl8drRzTHc86fink6lTklOt0/BCg4X8hUcXDjprO3OcDzv3u9BdYlwOufS7arlyXCtcn7npuPHcKt1eMI2YicxjzNfuFu5i90b3jyxH1hrWBQ+Uh7dHgUeXp6JnqGeZ51Mvba94rzqvMW9b71XeF3wwPn4+O3z62OpsLruGPeZr77vGt8OP5BfsV+b3zN/YX+zfughe5Lto56LHi/UWCxc3B4AAdsDOgCeBBoErA39Zgl0SuKR8yfMgy6DVQZ3BlOAVwbXBH0LcQ7aFPAo1DJWEtofJhUWH1YR9DPcILw7vjzCPWBNxI1I1UhDZEoWLCouqjBpf6rl099KhaNvo/OjeZQbLspZdW666PHn52RVyKzgrTsVgYsJjamO+cgI4FZzxWHbsvtgxLou7h/uK58bbxRvhO/OL+S/inOOK44bjneN3xo8kuCaUJIwKWIIywZtEn8SDiR+TApKqkiaTw5MbUvApMSlnhIrCJGFHqkZqVmq3yESUL+pf6bhy98oxsZ+4Mg1KW5bWkk5FGqObEkPJD5KBDJeM8oxPmWGZp7IUsoRZN7ONs7dkv8jxyvlpFXoVd1X7aq3VG1YPrGGuObwWWhu7tn2dzrq8dUPrvddXbyBuSNrwa65FbnHu+43hG1vz1PPW5w3+4P1DXb5svji/b5PTpoOb0ZsFm7u2WG/Zu+V7Aa/geqFFYUnh1yJu0fUfLX8s/XFya9zWrm122w5sx24Xbu/d4bqjulihOKd4cOeinU276LsKdr3fvWL3tRKbkoN7iHske/pL/Utb9uru3b73a1lC2b1y9/KGfWr7tuz7uJ+3v+eA24H6g+oHCw9+OSQ4dP+w9+GmCv2KkiPYIxlHnh8NO9r5E+OnmkrVysLKb1XCqv7qoOqOGvuamlq12m11cJ2kbuRY9LHbxz2Ot9Sb1h9uoDUUngAnJCde/hzzc+9Jv5Ptpxin6k/rnd7XSGksaIKaspvGmhOa+1siW7rP+J5pb3VqbfzF7JeqNq228rNKZ7edI57LOzd5Puf8+AXRhdGL8RcH21e0P7oUcelux5KOrst+l69e8bpyqZPZef6q89W2a47XzlxnXG++YXej6abtzcZfbX9t7LLrarplf6vltsPt1u6F3ed6XHsu3vG4c+Uu++6Ne4vvdfeG9t7vi+7rv8+7P/wg+cGbhxkPJx6tf4x5XPBE/knJU7WnFb8Z/dbQb9d/dsBj4Oaz4GePBrmDr35P+/3rUN5z8vOSF5ovaoathttGvEZuv1z6cuiV6NXEaP4fCn/se234+vSfbn/eHIsYG3ojfjP5tuidyruq9zbv28cDx59+SPkw8bHgk8qn6s+Mz51fwr+8mMj8ivta+s3oW+t3v++PJ1MmJ0UcMWe6FUAhDsfFAfC2CgByJACU20j/sHSmn542aOYbYJrAf+KZnnva7ACoR4aptoh1AYATiOsjTnYDYKolCnEDsLW11Gd73+k+fcqwyBfLoWm9h5a1HvzDZnr4v9T9zxFMZbUB/xz/BejbBZQKP7TIAAAAimVYSWZNTQAqAAAACAAEARoABQAAAAEAAAA+ARsABQAAAAEAAABGASgAAwAAAAEAAgAAh2kABAAAAAEAAABOAAAAAAAAAJAAAAABAAAAkAAAAAEAA5KGAAcAAAASAAAAeKACAAQAAAABAAAAsqADAAQAAAABAAAAvgAAAABBU0NJSQAAAFNjcmVlbnNob3S+HJzNAAAACXBIWXMAABYlAAAWJQFJUiTwAAAB1mlUWHRYTUw6Y29tLmFkb2JlLnhtcAAAAAAAPHg6eG1wbWV0YSB4bWxuczp4PSJhZG9iZTpuczptZXRhLyIgeDp4bXB0az0iWE1QIENvcmUgNi4wLjAiPgogICA8cmRmOlJERiB4bWxuczpyZGY9Imh0dHA6Ly93d3cudzMub3JnLzE5OTkvMDIvMjItcmRmLXN5bnRheC1ucyMiPgogICAgICA8cmRmOkRlc2NyaXB0aW9uIHJkZjphYm91dD0iIgogICAgICAgICAgICB4bWxuczpleGlmPSJodHRwOi8vbnMuYWRvYmUuY29tL2V4aWYvMS4wLyI+CiAgICAgICAgIDxleGlmOlBpeGVsWURpbWVuc2lvbj4xOTA8L2V4aWY6UGl4ZWxZRGltZW5zaW9uPgogICAgICAgICA8ZXhpZjpQaXhlbFhEaW1lbnNpb24+MTc4PC9leGlmOlBpeGVsWERpbWVuc2lvbj4KICAgICAgICAgPGV4aWY6VXNlckNvbW1lbnQ+U2NyZWVuc2hvdDwvZXhpZjpVc2VyQ29tbWVudD4KICAgICAgPC9yZGY6RGVzY3JpcHRpb24+CiAgIDwvcmRmOlJERj4KPC94OnhtcG1ldGE+CrqYWlUAAAAcaURPVAAAAAIAAAAAAAAAXwAAACgAAABfAAAAXwAAIDQUAH7jAAAgAElEQVR4AezdZZMlRdYH8BrcB3fpYZDB3V33WR5k2YCXEEQQ8AX4QLwigl3kYbHF3d1dBnd3f84v556O4jLdc6W6+/btyojqul23qjLz5D//ec7Jk3kX/RGpalMrgXkugUUtkOd5C7bFLxJogdwCYSwk0AJ5LJqxrUQL5BYDYyGBFshj0YxtJVogtxgYCwm0QB6LZmwr0QK5xcBYSKAF8lg0Y1uJFsgtBsZCAi2Qx6IZ20q0QG4xMBYSaIE8Fs3YVqIFcouBsZBAC+SxaMa2Ei2QWwyMhQRaII9FM7aVaIHcYmAsJNACeSyasa1EC+QWA2MhgRbIQzajtbu///575ZxHvtL/meqfXVu0aFH5avK84mK57lr9KDe2f6aVQAvkacUz/ZfA+dtvv1W//vprOXzuBnWCe2VAXm211QpgV6sBd/XVV6/WWHPNytnhnjatWgItkKeQEeABpQNQC2B/+WUStL8GaH+L6z///HP1w48/Vj/99FP1S3x2/Y/Ocwls7+hOiwKgq8exGsDm5zivudZa1TrrrFOtvfba1VpxrLnGGuWeNeLcfQB5dobu9y+0/1sgT9HiQPhLAPfHAOn3339ffffdd9W333xTffvtt+VwzXeufxPXnX+Iaz/HM4AM0J4H9t+BO/PpqBQAWICJgWsgBeINNtyw2mCDDaoN1l+/Wne99Qqw14/PG2600Yrr8d16netrBnu3YA5VLZhnUsYp64V0LswLdB12xaxYtg7Sr7/+uvr6q6+qL7/8svoqzv4H3B9/+KGA/Nv4DNg/BbCBN5m8ABmIA9hFzB0Qky/wFTUCIweQU5XAxEDrANY8gHvjTTapNl68uFq88cbVRgHqDeNaAXQ8s3ayeDA6cHvfQkoLHsgYE3ix6qeffVZ9Fsfnn3++4ojPX3zxRfVlHID8dTJyABdo67pxqhEAm9ww+Tm5ogZkIJs06Fb8s0Jf7qgLBeQBcKAE7vUwcgAXgBcHmDcOMG/iCHBvsumm1WabbVZtscUW1abxGdAxexqSCwHQCwrIgJV6LfBOsm4wLBB/8MEH1UcffVR98sknBdBADMBUiqI6BAP/GM95Foh/B9A4EpAJzjpwVgWmBL1nEvj1a6mCrNXRnesMDdTADLxbbrlltfXWW1dbxbHlVlsVsANzHmt1WJpuPo5pwQAZOAz53webYlxg/ejDDwtw8/xhgBgjT6oOHVWhsG2oCIBbDDnnFcgrmJgOrNN9t+IVf9Xs6kDO551TFy5qCbaOA1CBG0tvloDedtsVgAbuAPXW22xTAL/uuusWj0gL5HkkgWQ3IMSgdFjqA6B+8P771ftxvPfuu9WHwcIff/zxJAPTd4uuG4zrWakbRHVwzYZIsi46YnbIBHsyNkAzDgF681Axtugw9HbbbVftsMMOha2pHxvF94BPXaG+eH4c0tgyskYHRCrBp59+Wr333nvV8jffrN56663q3QAwFsbMVIfv0lCjLsQzODKBopG7gZv/zyYAsjzd5yxDdjYszfADVqpHUTuClbcPQE8sWVLttNNO1Y5xbL755sWgpIOPQxorIGtkuiuvAwYG0o9DhXjnnXeqt5Yvr15//fXy+eNQIRhwxdMQ9wK8ZxMMOYTPBWD7AVUd1OkpyWtrBNvSq7nvAJrevNOOOxYwL91ll2qH7bcvejXDsM7Qo17nqeQzNkDWgBoTA1Mf3g8GBtw333ijejNATJX4LJiZ/svIM3lRGj+ey6QRsyHznN+N8jnB65yfywR4R6/mp6Z68HpQL7YJnXmniYlqt912q5bsvHO1YwDc9aJDx73zMc17IANjmbgIjwL32Ceh72JgAH7l1VcLEwMxD8QPcY97M3Uz73wCb9ZhZecEdP3sPjoxQNOjgXnnpUurXYKddw1A06O573y3ThiFVJR6x15ZPqN0bd4DOX3AdN43goFfe+21AuC33367KipETGIkgIFe4yZgu8+j1DDDliWZ2Xvqn9U5GTpVjiXBzgC9+7JlFT1629CnF4c6Mp+MwXkJZA2DWem4X4TBhnHfDEPupZdeql4PIC8PVYIngpqRDKwB68ewQJlvz5NZHjp0ysJUOCZmBO6+++6FnXfZddcCZj5q+nNOg49ynecdkDWGhjBVTIUA3Beef756NdSIwsIBYPEQmLqbgTWEBlyoieykPPtMvQJU+jNPBn15twD0sj32qJYFQ3Pf+Y67bpTTvAEyUPIuMNR4I7jTMPCLL75YgAzE3GlY2r1Stw48yg0xF2VLUiAvsgJWRl+Ced/99qt2DXbmuuPGG+UJlXkDZCoCXdcU8isvv1y9FAB+7rnnqjfCqHONN4LrLdkmmTfPcwGU+ZAneaXMlBc7UydMqCwNj8YewcwJ6MLOoTuPYhp5IGNhIAbUD8Ogo0o88/TThYl9LrpwsLD7sErLwoPBrLBzyLCoY/EKYKZqLAnjD5D33nvvom5sF9Pf9Gqx0qNEEiMPZKoEfdiExtMBYCyMjakWVAxBPCVMMoQPxNIoCbgUaJ78SXZ2JkveDe44sRp8zgcfdFC1VwCah2OzAHmSxihUb2SBjGEZbCY36L8vvvBC9dijjxa9GIi/CrdaskcKtAVwM5Aq7NyxSYCZbkyt2CdAjJ0POPDAiptOKKnvyH2uZT+yQGa0iZEwO/f4Y49Vzz37bPVy6Mb0YbryryY2agKca0E2A6HReUudncl2/VA1sDA2Pujgg6v9AtD0Z2Gjo+CeGzkgM9gwMd3X5AYAPxZAfvWVV4qOzDecDJDn0Wn+8SpJgtnoSNYAu1UYgVxzmPmQQw4pXg26tMD/HBnnQgojB2RAxbrY95GHHqqeDSDzTIgfFgxEnSBUKc9zIbiFkmeCWX19XieMPKGgjMCDQmc+4IADqv32379MoAC62cC5SCMD5GRiU81AzLB75OGHq9diooOebKWyHj+XvX4uGmhU8gTiYpPEGYHwNzMAgfjIo46qlsUkijhoaw3noo1GBsiTTByTHA8HgJ995pmiWnwaTGxhKCHOhYBGBUijUI5kZ20hRFSshui5g0NnPjAMQKBmFM4FM885kNM7IcCnMPFTTxUgm3IuTByGXcvEowDjFWVYGTOb/ds/VIyjjz66BB5l0D7mni31b86BzDsBsK+EMffg/fdXTweQhV/SiakbLROPDoizJMnMzthXLMbSCAk94ogjikdjn332Kb5nrjskNBtpzoAMoGbsuNh4JwD4gQCy+Akxxd8HE2cYYT+9mnDrqZ9n68+N++duOalvr7Jyn+e1oUMSQbfXXnsVA5DOTH+2TQE/82ykOQNyiSOOaefXwk/84AMPVE8+8UT1Qkx6mIZO70SvOnG9UeqfCXBljbOya7Mh7LnOoy6b+ucsV8olz3l9unOCWcC+PTZ2DwAfdcwxBdB77LlnAXg/75sur+m+m3UgEyC92K4978RC0GfCqLv33nvL1LN9JYRgJoB7FUA2yp/uj3y6F5ESRHHczaLuNp3wZ+O7lI288rMzWaW88txveTznXdpTsofdNhGLsX8YfYccemh15JFHllUoGdPc7/v7uX/WgZxutrcDxI8+8kiZtXsy1AqxxWXGLvTiBHJfFQmhei53trQHBQE7yvAX/0fLTTZgvfHqn/vJc9TvBbICXucobP6vvmSVOiyZ+X5SVn1WLN9LztxvNorZO/TkE088sYB6h4hxFrMxk2nWgJyVLVPPYcgJhr/n7rsrILa6w5q6TATdK7jcp0HE0trXIdebaRgqSv3QiRzZYKWR477MK89Zjvl6zno5G4GA1v5y5MQ4c+TORT77npzs+6F9qH1k1E+Sl2e8S1ssiQmTo0JXxsw8GjPtlps1IOutKmrqGYiffPzx6oHQjbnZvowoNsIjBKlXQBGehjB0cdBb4s4pL8zQ1lAYnn9aAwkDFWjkM/VFVJ0yZaPLM/PNcz8NOQr3Zl2c83MuOCUTQT58v47c2RPo3EM+RknqHY8RQPcjh8wz8xWIX+IyYvbvxJNOKnEZNmGkS89EmjUg6/EAZIHoQw8+WD0eQKYfExyWJIA6mFZV2RQcq1gwy5KJiYrbx+YjhjGNA6yArJGs7eMhcXD3CQ31HbDzntgTDotn6rURs+HyuabPvZSjXgb3q7u93oBm/Q6AdXT7w5EVkAEzNQAz26PZVgnCY3mN+PPJqJ/2UO9sE+2Zxh9PxkkB5AMD0DvH5AlPBsLqpV79yHLWgAxM74UeDLx3h0ohhkI4JobMSuV5VRXIhsOoQGvhpCCW4449tiyetAUrpjYC6ED2LQZcs4QfxYig85Qj8jdCWCIF1BrAO6NAK23EzLdevl6uddcrn+m+Xn9vfq7fU//s+3xPnn2v3iLVgFUcMeNr2zgs/98qNmkBZMy8XhAAdSNBxeUp1luoLOPbjkyZX56zTNOdlYUMPWPnfcukxGQcdthhZSrbfhrKqLM1mWYcyCoFUPZYIyghmffdd18JzwRibKhS/QorhWAWyTL2Q0MXO+WUU8pKYCxNiJK85WHzQioM0AI0IL8Tcc72f3svVmEbToHdkFoYOp5bVeouc/1/umlUqtQrP5f3GfZrL04QlnPXd4HUP91be2zyozyBEbNSsXTsLUO9Al6j0/b2fQsQ55azdSaefEl8MFJhYq7Q66+7rjBz6dTxXb1e9Wem+pxg/q1DNJjYNPYpp55afM3cdE37l2ccyECB7Ux63HfPPSUkE6BFuAGZShNUP8LKZ3QAFjI21uOPP+GEss4MiFPfnhRqB9AYmj5uhABoWwlYfWI3Ipu66HBfhC4N0KV8HYbORsuyen/xkHSGyWQ21yY/d76jrxcwd16iTMCcZQOYssuns+86h+u8L+X72nWvSXlhN8M4Bt4+bISJAO/OETNslALmTUOloEIADrAz+NJb0SlOOZURM0aohyPi8MorriixLj+FrMgg61y/f1Wfldmz8tS5+JRPPvnk6uBO6CdVp8k040CmF5vkEAR0x+23lxk8rja7AmWDZ6P0UrFs5KIHhpC4dvT2QwPIrGQrgHsRfFrpn4cuiJ0NpQxPGx3a5BBD2RdZYwayivEoT52E/lmOyN9vfgBTAiTP7nVMAj4ALiWAE8QaOz0pznkgAGXMw/85UgCJ9wIJhsW2QGya2O5BS8JjQKXAfECc5ZhOvjouvVjs9xX/+lf1RExQAbf8s52me777u6yf6/LXTqawDzv88EI62oncvLuJNKNAVpnipegsU+JuE1PxDQFFwwwjIELQSKKvDg/hcPPQxbBQLx0DGIDm52BnIaLcf7abXR7MbIgVA/1uqB4mbrCixsBq8hRbkAdvgKBywzpmFK8LYAAO1AmiepmSZe38KbLPPnQ6jO1slYVObxRDAtQv8nJ2jQEL0DrS4gAqAFupwUMwMTFRVmxgQOVRDvn30rFzlHrqySerq6+6qno0dGWjJoDnO/oFXIKZrHUqG78Ixj/1b3+r9gyGbnK/jBkDMqbRmw3b9K6HO5Mf2M53KtmLgLuFl8JJNjKnf1REXRmyeC1Y5oOkXORq9OBZAWSqBm8HXQ8wCR4DlqMDZl6BHLoB2epiIMPcOYR3d9isQ3amZF9gUo50GxYgA3Ec2NEBzL5Xf65GKgQgM6IYc8qW+fYjB2UAWkb4tf/5T4kF16nlmZ2xn/flvVlHW91SJ/bdd9/qtNNOK14MnVCQfl3tyuf6Pc8YkDWIrVvFT9x+663VY+FuAw7MlwCus1SvBQcCHSHdOxrxuOOOqw4M9cKWT4PqXt6pMYGkeDhCtaAvY0KNwd/K2ucRWbfDvEWt6DCvbVy5sYA2j6ynutXrqg6Scx3U8lEORxktggiMGAAOZN8EQ1N3lEl+DF37T+RPLSijkaqeb8mohz/y02ZccP+98cbqodCVjUyM42GAnPVTJp2b+nNi2DKHh5phooQhWsrbQxmnu2VGgKzwwMDBTte67ZZbqmfDwKN3AsqwgtHQhnkNaYg6IaZCBXbTDw1hw6RkkALoUCs0rvpgwALiyNdOlXXXVR2kw+RdfzYBkOA2uilTqh06C/ZVJmoEAA+TyFQe1kbeEu1lFMXOvDmDMHy9LFkXeRg1tNUREYdRjPNQidYO2cLEMKlxICu0gwH1VIDYag/uNsM1/U9luofafirg3d6h8Rg5Ng4xc2SJumEWaw6TsvzywNDOkjJP6rzBLjwR0kyAuLw4/mRZnBPQymPyJjKeNDKHIYbMq3TgqC/v0u1hlAupfTL0ZXpyvn+Yumb52RSmq63EPv2MM8pqbORjhB0mNQ7k/Lmv10ONuDeMO0B+KuIpAFuDSGUoiYYYJHlHApk+TC8+Kdw6himWMEOnTf1LoAAtOojtF+64444CZOqgNZRNADnbLY10M36AzEifCP0eAQ3TURoHsuGPgcRXfGsMUaaiGQ1UjWTiYQqcAsHIBchhPPBPArLNqlsg9w9iTyRjAvKdAeT7g5G54hi/a3Z0f6PAoEm7OZLEloSL8Ljjjy8uOfaNrbgSH4Pk0TiQGXOA+0QAmG78XAQI8dXa2krPHgbEKphApiPXGdmy9IyzGEQQC/2Zolpg5FQtQkfWhlSLYshSpYYAcrZdtp+2s8kL3/IJoRpyzTFW5TVIahTICmmmjACoFPeHbsyFBcTUgeyNgxQ0n0lBpLFnLzJxrwwIvVyEVZv6l4D2YROYFLotvEyMPVsymAcY1tirl0aHcQi55fPnNj3zrLPK7KzRdFBduTEgKxxBcLHdfdddZaqTsdCtG9crNcjnBLIKm5blfjs+hiiTIX4Lw5Rsm/qXAPcbNx+X28033VQ9GBGK9tsz25c6cv9v/esT2g9WeH4YfvuEanhWAJmuLC6EJ2aQ1BiQuW448FWebmxmSO/mh0wmHlatUMEUBHeYHxg3IXJ0RL2ZpmZA8Ku2qX8JpA/9+VAFBQ2JuUBKZjZnAsj0YWCmUrBxuOOAmntukNQYkM040acMR7dEj8bG1AzXU4lvEsisX8OTyCrOdT2aC064YnacQQSyUJ/JKWrtd83VVxciMppqvyZsm5QrIsrDNbN74i+s7zs2CMkM5SDt1xiQMS8fpDDN2267rTCz3oypE8hZmWHOKQTC5Ug3HFErBA3p1VxwTTLIMGWdT8+aORQNaCS98sory6r2YYKGpqt7jqpUDDOxNkUE5NNPP72E5A6ikzcCZAUrEyDhLzYk3Rvhmtw4ZsUYETMBZO9k4eaq3UOjV+vRDD5s7fs29S4BaqE21H5X/PvfZWTVfnTnJttPiRLIsEFPRkbCcM/+5z9LLIbYFapjP2loIGehBAdZWWAZk14tOEiP8/0gQ8VUlfC+fCfmpUrYc4wgjo2YC6oGIPuuTb1LQPyGFTslHjkY2c9bzAQRZYlgQydJo908AKPPjB89GcD7SUMDOa1dc/TcNtxuJkPM0SeAnZtKCWTDDxccVULluXGsEjEpMsjQ1FT55ut76MJcbWwbxp5wTm1ogiu3WIgGbax6FhJgZDErJreoF//z978XQmLA9xv8NTSQ9VpRbs8HeG+5+eYS5WZChH5sSGpyiAdiydm6NFFf3G/COLGyyCouuexAjUl9AbyI14KezNMkbvyRCLsVNGRzSQmECyE1BOZCSAFmncPoORFG3jGhGtKV2TviMfpJQwPZkOQHzPVkQDYkWeBJKArYFBsnE2MH7xUw5IcNAZiRl71Y725T/xIw1GNIU9JIySLUe8LWYcBry8Z15Y6KqF0tNKAiMtqRkiAwKmI/hDQ0kDnMrfp4LHowb4V4VsuY9PAmjYRS4RA23yNjQEW5bSwzF6zN6DPF2erG/YPYE0kUxXsR4bZ+8gIxCcP1Y0QlBjpk3+QIG5mWRQs6CVXCPIDlaqfxXgRJ9aMiDg1kPdhOmgKx77rzzjJXn4sWmwIyIaewqRSMAVPTgk7sM8b3OGz4Zsmg/VNYGQmJubgz2pPx/lSMsto51YumRlniNgrIz4yeH6g0J2DK2pZbbCCGey9paCDzTjDwzM3f19kPQQ+T+hkapipsMkW+qyz/D2MAEx8TXgo9F4gHnaOfKt+Fej1HPpNbzwcra9s7AtB+AoM9RAVpiqDIOIFslN021AsztIC8X3gx2DvA3EsaGMhZ4XS72f7Kb35w4SSDJvh6KchU92Q+VAa+RV4JlTWTxyjgtXC9VSmmkuBg19P2oVrccMMNxa9sNyJgJuumVAwdAyNbtAu4bB4TIzxRDD5be/WSBgZy9qQyBEX8KtVCAL2enKlJIBtiDD+MOiqFivJYMPqaZIgs+0I/A5dNbcRe3HD99aV9TXLxRqXuqn2HTWlkZhCR/S+44bhSxWEAdy9pYCBbws73aK8w/mPuGpFT9T3DmqhoMrKhh7vNihBBJnoudh40WqoX4Szke1LuwKt9c+lT0ZUDwE2RR+bjfchq11jDd1LsGCVOuZ8gooGBzFEuYN7GKzdFkJAY5Ldj4xVDUlZyWCCrZCbruiwuFXds0aJFp/3oUPme9ty7BMifqmgfa0YfG8iOTGwg3zU14mY7O1t3aYaW94LhJ6iolzQwkHNu3gLTG2P5OM+FmaH87Y9hK6lSKSwdIzePtsHH0bG1vw1J+Ix7tWp7EUZ7z18lYIQ10j4a9o/V1dyr34VfmepBVx6WrOSonVNXphf7DZJjoo2pkBPhkeolDQxka/BsfSXa7cbQoeyySX/iemvCGMjK5ZDDqGPc5bFjqBVA7Ps2zZwEEBZ1Qjtfd+21xQ4S6di00YflhZLa56LEzcQsn00pjcK9pIGBbG2eZUx04/+GVcsosIFI9tRhAZZA1ilsiGL6WQC9StKPVxV3nMao8gglzeGQULyTwcLboTP4LD/3UZno/p73PfdPP9FYma/8fM6OKI86g8nP4R75OvvfPTmxM8yoVoy1YE4THOojqYdRrJ+RDLioi+KU/y+20tLe9TjlYdu5FCz+kJfOYS0f9VEkI6OPwSePVTH/wEAuM3ox5HC5WRrzYhh9OZVZb7AsaD/nbGRnQLNVFX8x3ZhqwVthu6jpKkcoRg0dzqExNS6h8Dl7J73bOjENbGjDNBYDZAgqHdy6MrOI7p0uP/VTXg0vX0ymUwAwP7doLvn6X0prncyUz9k1HccslzKR46BAUQYzcjZnFPsiGabpoEa3XlebZ8c0bX1VANl8gfd5f7bzquRSMl/Fn2RkdWfQm6q2tZYtg2FAXtOlRbH7zx+51RIh94J+L6QPq5ywv9tjato0dW7AkhWcLuPpvqsDWeMDEeOuLDKNiZCloR93u2WAgDCAR0C4XY0wB3egTgdYvid0YPE8Q4JO5lBvQyh9EOtgIdeXdfZe9lm5NCywOktklgD1PfXKb6LoEPIlW6NJ2eI18kwHf77HBtv5A5k6moZUVzZBMvN0sprqO/Wm7mFSblHJLKiVy6b0+1lSpF5042uuuaYsKH452pqhn1hpAsgpD52ei5XX4n/Dn7xnTFv3MoIsikWGf5gt8wIP5OTCdIVTsRJIH4FCrFk70GMxQyRAZQWnEvKqrnt/HpjJxtV2FLI1lrhVrLI4yltP8gY+VvaLIXSAFPCiQbFdlk29gE+d/fSs+f2DYijDmDb8ZrTeGh0TS2Jiky+nxgbVPqubDqGTeKfkOWpOxs9iQZNDAEQm3IMMFwDCiOQsKY9R4pUopw1RRJ0xlJcsWVKYSLm8U3sMktgvyuGwR4UksszBI8B12U8Spsuo9y4Ehsgk8pwOK73mAcg6spFS2Ux4nXHmmaXT9bK6etGll15agIz1CJ3wsAY2IMRkaeBMgALZn9wysezfvsIKIpIp7+u1Et33JYidVQyb7RvDzfEBZJt6Y8f0HwMXIQglfSemy4E4fdoYFkNnPXJ48oznAcswdmT0fkz4abCMxbN3RcfErDoMFjs+rGdg1VF0YKDD+uTkOtDR7SSdR4MDkLhscj0jdtQBHuyuA0lY3TvE/RqyAf/bADa16bzzzisTAhpQO3SnOnDIqDv5fnkM/wjGcVesapfUw2HTR+oFOUgJxvp7yxe1Pxai1v3J5JB55/O12/v+qCzwg0zJ1ISXqWry1zY5kk314kWXXHLJH4ZGzEdwBE/Yhl6fAdv3wFDXVfR4s3kYmd5kqnomgKxMeihGoyMLJqkzoDwxm/ytTLHNk2lVrKnc6qLRnAmD8N1P+MAMrDZ3MdTqEIb6l4IlMa5ndBqqgfs1JnDqKHTE4hIUvBTAmIhOoQNTsa4N695qGUM7OZ599tnFeAF4M5FSAXK8w24+l19+eSkzthcMdeGFF5ahNYGcgPFcgsbZ9fpR/87IoAxCMRPIVDNl1anUy6jg+WzXfF4+3Sk7ht8LJ2dEBnyen+657vdM9b93Uf20EVIA5LP+8Y/SNoAM4NOlReeff36UZUVlgJbwPKgBHP4H8jyAQ8X1SI5yjcrgIzgFUaAmGdlQXJgxwAbIwAB0yiNpfMOcsEOb74mLNjFjJKE6OOhcniEMdU19GUOrq+FcPspOpVAXxqJrOjM5AC5dE/AE0mBTYNDB/GoRtjV6eFZsAhBhWe8/55xzCoC6gWzfY6C47LLLSgdULirUxRdfXDYvz/LKi2yxs4bWTtpAx0ujFijJXfvooFQqe1Mohyg29abimPpVZnUzwrhOlsruOe/PUbgOHPWy4Y6Rhl2EyOTv+aaBjECsiLf0yTmBLC+p++zaogsuuOCP7JkqQEDYty40YFZxL9SwKu0366wgMDRqXD2UsJuomHfkIV9Aw5plRq/DaoTvHsyLBXWmmyJ+lqGl/HRaLhyqA8B5T6oW2eE0gHp6V1FPok7q4X0AQqDqm8DQiMBM/8bq5GFihj4HgMIQAd5wnrEn7jn33HNLWYq3Jd4pkTng8s8WIMeZ+1J5L7roouKCch+DsejPMULoUEYjddMGWJ36JExAB1RvbKZMVCrtQqe9K1QL9wpcz05NdsCu8xolkMWy8AyJ6yYP76onwDXyliM6SBKX9zQFZG3wp+ChUMnYRGSogylr4sI5O5Jy/j8AAAD//ywB5AwAACvFSURBVO3d55NlVfU+8NOkISk5SepBsgoiIEiQAQMIKOZXlmKusvxbfO8LyzKUL8xKNKAEBQQEURQBFZSMBJUc57s++9dP/w53pnu6+97b3TPcXXX63HvPOTus/axnr732OrunPv3pT69/7rnnupdeeqmT1q9f346pqalum2226XbYYYdu11137fbYY49un3326fbcc89u9913755++unujttv72677bbulltu6R544IHu5Zdfnn3W80tNqYPzbrvt1q1du7Y77rjjunVnntkd/aY3dXvttVerl/Luv//+7uabb+5++9vfdr/4xS+6J554ojvkkEO6E044oTv77LO7o446qttpp526rbfeunvxxRdbHVOvrbbaqrVxu+2265599tnuwQcf7O68886W31NPPdXtv//+3b777tva/Mgjj3RXXnll98c//rG799572/2ve93rugMPOqg75i1v6Y459tju2GOOaWVcd9113Y033tjk4p73ve993dvf/vbujW98Y2uP8tWFDMnvpz/5SffnP/+5e+7557tjKo/Pf/7z3Zvf/OZ2/R//+Ed37bXXdv/9739bfbTnxBNPbDJQx7vuuqvVixx23HHH1vZ3vOMd3bbbbtv94Q9/6K6//vruV7/6Vfe///2vO+yww7o3vOEN3S677NK98MILrb3O6jg9Pd0df/zxTV7TBx/c7VJ93u9Dbdau66suzv/65z+7Fwsz+sh9/Xsj38Wc5aM/9QW8aX/rv6OP7nau+sFi+s+9r7zySrvfudUBkJ8vAQKyH5KhSuhoQH7961/fwAtAAA3IzzzzTHfnHXd0f6kO+NOf/tQ99NBDLfOW6ZANSz2cNaoP5DfNAHnN9tu3zrj77rtbR+tsYNawk046qTvllFO6M844o9tvv/0aIJ588skGBkrrHm3T2TvvvHNrk/bfd999DXw///nPu//85z/doYce2jofAADh17/+dWsrpZUPBQEMdQLitxUQ5H3DDTc0IP/+979vfUkJDz/88FYXoJF0CuX5ZwEC6OWpTsD02c9+tjviiCO6f//7360+F110Uffoo4+2ulCIc845pzvggANaHSnx9773ve5vf/tbA+RbSqnOP//8pjB/+ctfut/97ndNwfXPntV3e1Yf7r333g14jz32WJMJhdKnx5YynlyyQxjTBew+QAH52pJvAzMg/+tfs5jp39cat4Q/wR0gwxt5nf7Od3YHFVG49kLJC+bITSJnn52lqQsvvLAB2Q9YK4dOXrNmTdNyGYeVabPOwHy3FTthFMfDDz/cMlXosA2TRw7lHlxCPe6tb20CflNpqo4Ii+rAq666qgkYcLYvgJ911lndO0sIJ598cgMbsAOMzgDQtBWDGWUA1XNYVx4/+tGPOp2M/XQuBiS0a665prv11ls7LAmEZLG26vbWAioAud/vlAqAbrrppqZEQKfO2qIcCfsgkMcff7zVTSchDUD9zGc+05TICIFRv/vd77a6HV3sdNppp3Uf/OAHu4OLNfWB69/4xje622t0VJ+3ve1t3cc//vFW3h1FNK5TTIoCyAcceGADCSUkC8oL8OpjJDvt1FO7j9Xz2gMD8CAB7m9+85vuumrbDdU23z0ziv6Wv3zCyPBm9HpHkREiIqdnSq5GICNI2D/le37qE5/4xHqdFPYFUsM5oTsTjoyd0xEyurca8ttqmM4KkGXcMq3rKaz9sMg/AbGzcmnlsQXkM4spDDn71HAPyJjE0IopdditpVg7Vwe9973v7U4//fRmXgAthgRQIAQO9dRJs5pf9zIjsKzRBZCxIWBi93e9611NqTFnDkIFUKbAunXr2r1YTf6Ao9OVKR8KA8DqHGCk43SMdpA/eVO+GiVngUwhMG7qA8gf+MAHmkwA2fVvfetb3V//+tfWHkD+6Ec/2oAM3ORy+eWXN4WhsK5TciaTUYaphPEpO3BT2k9+8pNNoWABmUmI4OoiDEp6Y8mTApCtdgxLXPKPPMLI6npqKdUbql+w8bPVN0+XzGE1ZOtMbtLUl7/85fV+IOiAOHYwwepsDdQZzh6U2d+LCX9dthdBEgZGHgeQld8AU8wIyJhivxrOCXgDIBdQdwTk97xnFsiETNmAyjB8zz33NCZiSsgDWM8777zGygSi83/wgx90j84A+ZQSpqFaPWJzXlm2MpsVa2BQNjBTgHIYIS655JI2SigP2CJHjOseCQjUQRuwMtkpg+IAso6kFJTw+9///quA/P73v3+WkQeBzIz5yEc+MgtkpsDPCshPF+ObN1AEio4cjALy//rXv97ko1+NQEYEIGJG6ncJ0PU384IsMTzwjRzICKbIizz199oaJbYqfJKP0c45QM6I0RTpK1/5ynoV7rMvQGuAjg6LMLZloOJY5O9//3t3dXUoQYbpdI40rIZGQM6vKxvW8PKWYr4zy2QwqQJsoNCwVo+rr55lim2L9djGWEdnaBehAzCQmcxhLyDBqmtrIonhjjzyyFbvQSCfWh0POEYjCovhrrjiigZkYMOg5557bhuutVv+GI65A/h+Ay4dg/WBVQIaDKNeN/RsZIz5uc99ruWnjuRLsTByTAv1jWnhOtNCm4xeb62RC5DNZ8LIv6gRAgDeOSMXYD6wTAyKRMm/+tWvNtOMPJTxqU99qgEea5tDSOQsH0DWLja3/pGG7W95yEsdgRP+jLznFsEY8XatPoRF9XWf8hDqqxj50ksvXa/ROlylAcRDMtxYBRUGyHeXnXhNAUjH8loQ+jiAbBRgX2oYIOsonWgmqx6AoA4meurjNzarmfu6GvLdq14me+qow93vrDMoxQUXXNCYmXAGgazT31/AAWRmh2d5RzByA3KVc34J3OREAuSflBfi6qoLBSdTDIi53Y80pBfK7jO0y/PiYnDlsgW1j9cC8NU3jMx+p2yUU321C5Orzze/+c2OPawPKQIgG1X7kz0yOKsYDpjlQakAg6kEyEyGAPnCCy9sQDZ/CJCZcJdVPclZndUn+HAeNg0CGWGZCxhF9i0ig4NBxUn5yp4qt8362G9hXUjv39SvJIFgk3tqqDH5ub6Grgw14wAyxdqjbE9ut7PKVtVRhhvAolQ6G0MQ8M9/9rPuoTJxMAlNZttSAIqgTcAHwEwDIDNhwfYLBTJGNlQDsokS0+LkAjLGPrKAR2aA/NOf/rQB2f3qqUMoBHAGyC+WwgEOEjCZu6XaYKhX7y984QvtXooWIGtnmwBVeR/60IeaacCTAchsZIyJkHT8hz/84QbkMPLPSi7KYyYZrQzZgKx8z3/ta19rzAzYFMmIwOtDMchfuqPkRkHNi8hQ2RR/Lpz0MbOQzwHydhi5Ri0mzgernWx2QI5C9fNSdtJUgWH9YioDrADE+L+2GkUQhM3497u0mPxSkf5Zo3IYHQyZRxUbnVnA1FGHFfsBhHuwkk5UBx0GSDoEmN1rqJwuzwJBmMyx9YBeJ7PrMTKg9U2LZpMW42QoB/TdSplMajGXcjxLCY4rxTq3bGT3KoNcapRrkz1ANgE0+QIg9jiwSUaOp2qUMLR/+9vf7m4quxOwAPmLX/xiyw9YXDfZM/Jos+tsckDUdopAcfiR1UfHx7TAyPpHfY1IlNp1daHced7klifGkG7kYFq4DwsiN30urx+WicO0YKKx/ecjvH5/LuTz+hlcMWWZEhSKwh5f9eiPDHPlNVWVbECe64bB34FHw+4rVxYhYeQ4yF8qILs+LJCVmXKYOARq6GZaEHQWRdyHxXQ4YLJLTbCAmf1seNW57EG2KUVjaxqGDY1GFvkSGCArE1gx5L/rOv8wW9t1/lfPATIbmPLwZR9arMyEwSAUBjgsQJBJgIwh3ZPRQb2ZEUYIHgCMCrBPFpDl86UvfamdTQTD2PJSX+0xIQREpgmAGxEBlU+bzR6vBfCpBy8KdvcMVjeqkQcZaIfRifIbMXh71FfbAZVMlPunKp+Cc79RVmW7HlbWpmFSI8iqA+uAsvPJI5Dj6ux7Jp1zlTFVFf1/Fvtcd2zkd49ggJuqEwCZiUGgo17p0TjC0jiLE+w7ncgVh3EpDCEDrfroEGaGjuUzxno0HCtmiAR8PmLPURBMaoGBD9VvOt8QSjmYC3yZvBpYgSkCcJcV47qPb5OymMwBILaUhwkYAFIKw7Pn2aV9Rgbk/xWQs6Ch3oDLT85rIT+KZxinONrEvKDYZCFf/cDEIXtAVEcLKgCAvSm0+jKlyEd71dcohGkp62OleBTK/UjC3IIZxKshkaF6qd8PC8jaZvLst1EDufVJORko5PE1mn6g2oGZjYbpv43Asf20JCB78sFqzC3FfjT+yvLjGppU5JUS7ii0VCcBsryA0aIIu+2kYhzDns5wzX06HCMZ7pkOJiOYRsdjDvm4L4kCGEZ1PBaSH7aiECY1V1XHA4gyAQpLuddwipUpLpDKXx10OpACAlMIgNwnL+UYynUIDwkASs20KAYG1F+Wze1+5R9SjBmbHWgBkIwphny1kwnD3KKgklFA+/xmZFlX7M82B3AjFTDHny1P6bkqSxs9h53fWMoBxJhYe+QlZcTT1z/+8Y+7m0uh5KWulEH7R5H0IfyQ18FVPlmeX5Ns5MAdR67zpSUDGWgMNxj5l7/8Zfe36jSdM2ogAx2B7V/APaHY5u3FyFhyukAW16AGYiTCxaSY08Fu953tqW5STBUgiNkBYNjK84Dz5wIpv+veNaQBs84FQCwKvNiYnSh/+ep0XgRCBzLDuPvkZTRhUiiDMrguqS+bXR63FtvdX8QgLyMNxZKf9lFEZVEKQAZaST7u1cHAJimL7aw87WE6GJkotXywGqWmDGTiWFNl8MszOfjoEYRnA3hs3Uai8m5cWl4LJPHfUoDnq65h5Fb4kH8AObI8rJSKiXReTaLJvtWn6jlfWjKQLRjQ9t+ZTJTDHaMIelEhDQTAYRKmCIvSeiBgG5vAMTG4sjRQZ0vuVTaw6VidpBN0Gn+t1SFJB7G3wmrO8lFnjOC5x5keBTQdj62AHkjkD+yYGaAcnsmEtAGr6qN8Q+9TM8OvYVs+yg1AAEp+yiNL9/rNPUYHzESBUydlAqZ8JfWhXPKjEJ7VBm1Rnt/VVfvJgeKQFTm53zX1VAZzQxuxeGQRpsW+t5fiMimumBk5mFTyG0U/t8bUn/SdejD3Ti2y4kc+skY68t266jlfWjKQCZamW3fnXxS9RcgAoIERxHyFb+pagOw+ncaOZY+a9AG1Rs9lOxEMEDyv0+ogeEnHEUwOdZWUBQzuc/iuDa4DRdoTAGIPQFCOa+5RF/m/Ur/53eQ3I4rfBzteGamns+8pL/d63u/a0uRbZ0l5QK9s9VUvKXXxXOrqeuqRvJpsSumVQ5nJw7Pu6yejij5m3vxmZi4U+bh38P7+s4v5LE8ktFcplXUAdvo55Z0xGQdidZsvLRnIhiqNvKmGnItrMvLHmmgBtyFHp22q4Pkq1b9G8DokQylH+btrCZrtalKAuTaW8lw603eJ4NVNBw52nHvyXO5NZ6XD+vcEfLkneeYe5+QzWFa7UH9SXv/e5Jcy3asdAZDvrpGzlPJ89ntkn9+Tt9/zm/wcyWeu+ln4spKZuBomk2dyKHMUSduMFEZeE3qjrn5m8iykrCUDGTsYdkxCLio/5i01CWA3G3b6DDZsIwkeYDAGVjbstIWRspfN3rGyhk7SaCWQkcJklG3M7caU5PGJwo5S7gGyICFszO1p4Wa65hYLSUsGMu0x6+XfxMhccSYWbL5tekPxQiox3z0BMvbZqYZSGir+4cSa1XLDmbDNxSbz5Tu5Nr8ENujfGnln+3eEI65apI+Za3z+Z5TXpcXK9NyA89e2RqLK5P/7pTZ1d+96bDYz+EsvvrhNBsyugXscpsVWxbqYnvfCapqZPXccjcXWWGKSRieBeCt+P+M3561opuOMXR3zZdgSwW/2KFNHf77r3e9urHxC9THzcSFpyUDO0MMlxGth6OFb5e7SyFGxZBrJeDCU7V4zciYFx79Jn1kt95dZ/CSNRgJk/nC5EC0wca9aqURSyItdPaq+VVtltTxniMrk7uxaoDq5SIrrLUv6m2rZkoGcCpgMCGwXv0B7TQYkoMuxqUps6rqyJA3OpI/PE5AT1gnMypuk4SSAoAzx/ehGCyrjmuTpU2UabV9fE/c3V7+eV/HfTEe+dC7BhaQlA1nmAJaYCzEI3orwUqLKuTYOzeUL5anAyhZGLGVaiODDHWV5CxHelngP25gJcVuZEkZaIBZbwdTIJG+U7c7IzpW4X/VhW5quIC5uVv7wudyrg3UYCsgy46ngejMEcdMYgvgDgVnDR8WSFCPKQXvZToLtmRhWgYR29hdIBhs6+T6/BMhWnwGxcAOjq6VzLxf/p0CMpUfZn6lNRgDkdEjZx0wK4ZtGXCDW1wtJQwPZ6pbXnoRRXn7ZZa3hVqnYU6PWYMKWKAdTwgzXUCQWQrCN5VkraJO0eAmEGbEvUrKSZ43AEnr816MyFVM7/Rkgc62KEzmt+vKCAvLRNfdZDH6GBjJ3G/tJMAl/sriBR8vXaIgapfei33jMwVPBfmJiiL8QlMPHLAib+UEIk7QwCQCUVUo+Ygzs3TxReZiZFyom26hG19QqQKYoluWt6CGl99WrY4dWCMJiZjxDA5kZYT3fDPcnFR2VN2wBPBo1SgFovINwAdZKkJmulT6RcQSwGNsqQn2tnskSMTARBUuxiU3cBYFZvWVSBMijlFH60VkyuprzCHcF5oNqoreYNDSQMzRY9bmk/MnW5G3cwuQggHEJIY2MF0M4JmbmsllbttYetWY/8S9HShueAyQjp4mcuBkBYJjYRA+wAdx9ozYp1Ea+sBNCEgRmSdqrY+xjBLWYNDSQVUiDDUPccO118TG6a9K4dITJQJvxlknBxhLCeGwNUQKMRHW5NkkbSkCfGdJF1Hkfz4TdPEe4qNADpkZG0pw3zGXpv6T85nareY0R9YLyVnC7LWWuMzSQ0xRvDXiLwcKIQHsB7jRuKRrtmX7amCADZNdotVkvTwbTgq0F1JgZmDP7de/G8uqXtaV/BqCsyvJQ8BeLlxFbblQVS+0N75frvnGMppFv6oFosC8Af+xjH2urtvrSaLqYNDIgN6EUeIX8XVyTPmGdAogyfCwEQAFwzmlIns05v/fvCzPvVZMGAGZqYGexGQJReDnGMflMXTaXszkN25c34q8FXCEGVmR5K8Rhi1OOXAflPao2yh+QYUO/cJ0KN/DSLO+TvqREi0kjAzIBmPXyXvzohz9s53gvTPoWIpRBAeZ7zhqWfHJ2zeG7I4HlJgvevD68AA3Mgou8Zo4BTBKBOnksRmCb270Zwk3aWiBQsfAD5WXiMhU/YT7TQDzzkkBfluNqqzLUy2EhS+yMiLf31u6p+mopaWRAbmF4BWba7fV0Ewd280JWhDQsiSYG+K3BpbWC9TU68RZTdU+A67n+8541LNF0Lh3vn5lI0HpLntxzQj8BfpxDZ9qz0mcAFnJr8v1QARhoxceY3NmbhD3suvsix3EquDJykD/gvqcmefbcYBIC9lLSyICsct6MIKBfCcQuF44ZMJtLhR2DyTMBJJbElkI1gUwoKPDaWISJ4mVJr1L57s0L15IiePklNVOjVoZ4L7h2gBiYAZstnTdzBRsp2/2bs+nR5F8yQShA2Q6u0XKDGikDYuDVR16K8LtJXVLkmHN+H+U5OPHWh7kLD4XtFnic7DWNgJaSRgZkhask4FoUEXthrzBCS+oLyL0OAAciLAlkZqy0EqjZUATN/hZVxyVE+Gw8w2TALN/kLU/J97AzxbByJF8g9oIlZsbYgM7vTIDuA+rklXpvDmey8naO9xPJi71LZo+UzCxYAe79ZRfzUjxRixx5bcpzaW/O42pv+hzhAbHINuG4H61tbJkXVmUXO8lLXUcKZJkmjtWkz07sTA1CwxRAG2GlUX5TeTas9/B4G5gCGNPuMxZWhBR6y9hWtg/WZ2D2Ju9cQ2LA7Kw8B+Y1G6YwAGymDNi2qN27Pts72C7twEyxti3GMCpg6W3KXKEUdoVU35g+aUuEOY6zNlBYgMvZ55dLnkwucuWF8G6iN7+txHmZFYCRCuV3+M2cxe5GLRyzJ5vlaAfZpC2ALBx3dt+QelvadgrkTr5LSSMHcnOwlzCt9Fmytl5/bzEBQPYrmkYBBRYUMG+ZWdSTXWYwp2sEb4Z9X59RinGA2xsLT5Tth4l0cl9RIrgIxTWgVBZQW0ixxI2pMTLF8Rkz20dBSCGGcJ/RAYPYWYjSOWKGjBsEjWnLROBtIFsmlpdpnylysKLqMELZ7AWJYFsyYRM7/GZU8yxzgwKQvXFL3cdd/8g//RFlZOqtqzdBvO3TzIoy/4apz8iBHMFb4hQ9ZaUPqE0qGqsVoFS4CXOGFQAcQ9JKjnFvBtioBKg03BDpecPiY/UZIxsmOe/5r7Ez+1me0mDnpKz+dWXuUMC0n7Kta+3uyauxSx0Ajp0bqOt3YHatAb8A701f9/cVsxU8hj8AyFTQZjsDYVwjEWIAYEDVfmffn6xD0Jbr7qMAYfMAJfLJeQzV3iBLsteXykQm+tr2uKLd8u7lBg8t4oeRAzkVBjC707CVTf54MKS+MAMsbGlIN+QL5RPR5s0Pu99gSwmbYB8sA9DioLmQ7qnddDB2n5lTRntw5k/Kytk9W1e5lMvEAyjD1hg4LAzsmBhjs9/Nsi2D801jacw8zgS42sjTIBbigRqZwrBhaCYFlmZehHVNiJkd2ttvs7pq+3Im5VEmJo3RUD8LvxWuaR868xTyHiaNHMipTDpAEJEYDLYyIGpMmDkC9kwY0kqc3X3suMlmXlvAxtYaShhYh5LYssskht1sQqmD7WPGn70xICujX16/g332DIVSN3Vx9E0R9jT7XRC/4G8z7OUAchaavOR7XXmCAJpsny3wWn1jKth8Bmj7zKu9Ul8WPq9Uwsb63hxFlKKYCq80keko5Dg2IGMLQx4AX1ZxygBt2doQCCQA008B0vZr1rRh3OQPIxuC8joTMGMjWzhhYIJhdvyjgCygXycbggPY+Tou96hD/3PqkbrZUooZIXZDdB0GEdAP2FHI3DuOs/Yyq6yUGtn+UMvJfMEUOu1T/xz9OuR6zv1ry/W5Xy+fp4ukvObPb2wuZJQjx2HrODYgZyixlm+HGrayiR82rVrPMkUakAb7zkvAJgVmK3NcNEwNjcaSwMv+49VgajBbbNklXoCbKXahvJL/fB2n7KTUI2cmzz41FBodvKbOac/8sYfvQvJOvks9U1ZtpajX1La5AnuwM49E0uAkN78vR/1S1lznTO6QF6+RsAH/k6W9k1egNu8YRRobkAEhEzXLoNxxdpS34UdiMAYZrQ8oDcfAvBdsUizIo9G8GQVmQylThfcCkO8qNhY34J3Bx2tyZEQIkBfToQGws+fY6IeXO5BNd0YxCYUifLbecqQAwYKGJWVytA80YGuj64DsWI0JoSEWMjOps4uQrbDEVAzjNx5s69iAnIIMjXyY9te1Y43VPqyMZQLkPtACJM/rHJ6Dg8o1o+ECr5kado/EzMwIdrKhFoAd7TPTo8BMiAFkv4zUbWNn9wccyti/ymJOcBFxFU0XG2/MNNpYXqP8jUlmPiDw3f7M49pnYlR1Tj+2cykb96pta/Uhs2K62Jh8R6WAYwdyNBKDCO+0yz07z9AIXBri3AeaxkvObFSaa3mZiWFot6zJ9ABkzn6KwcTgW+WWY5fzMbMjzeKVkXLm66i+8AmZx4JtfApfZ4UZWn1i7iwkr/nKWco17GuSJ27Yxt/MNGYUN1tszL4Ml1LGKJ9BBkZNC0vcl0wzTMyk4Pkx6Rvs92HKHzuQUzmA0wleahSAz8/MwwDoAVrudQ6oNBao9i3PBRPDVvy0GqDikmMzxyPCe0FRTAAfqZFARxOqY1Opr0AmnXzJZtXryqTgqRAayquyEgkoDNF5EwchkCEFjmKtFiCTI3nrW355ix/kd069i4eELDyN2jRbNiBn9m1xxDa0gvAxChMjQ8xgRwRYherGwCZ7BGHSxVal1dgoiwMYmE/59prhA7LVQAsorlswIdzZPAfQ2P9dPbAIz4TybARj1XGYoJaB4hb9Vd2BmavxitpY3QsMZIkgJHUelN+iCxnBAwFx6nRgmRS8PbZs4HLjWh2HabZsQKadZuDtP6YWIwvzFFwkdkLj0xGDnRHBWKzYtexlL5qeVjs1ct34TLvly4Y0IWJScPPxMzM9sioI5EYA0XMN0DOd3+87ZVMMgqYkmASQ2cYUZyVfnSIHhzmALV4BGStTXO0JcAbl12/fcnxWF32d/jqqfMbexTuxGNnbO2IsxpGWDcgBJHABM7+y6DieBqGGwBhm7jc0zwGYGAchmYYp9jJNz/8SMbljh1vxs/InJgEg5Q3cQG7SyQTBbAQe5akPbXhWhiGPm+hVfuzymPhn5Ako6tdvOT+TBdPJhI8786r6XyeUtilmjwyWs079stQPiMl39yKYI8osM0n2DzNN0sl1u+rDcaRlA3Iq3yYtBTrLrf7/mx1t7q4lWIwKWLH3cj/hOCTXhP6xW8VjsF2xMoAxUbjhuOOYEp5hHviclT+hjZZzdbwILAKXc1iYogDy9jMhhiYlFmVE4ymXYqjDSiVtYkrwlwOyWBbK29pR12YVcwUqqG5AnF1Tp8uE4J1gToRwxjlaLDuQY2IYEm0ObvInCP+eAjNWJhDAAhifJeccPBhsZTarDb+zyuZ+Ex/RciaB+ac8RgB+bGysbG+XGPZ0vogxv4mlENBvBU8+7HlgVo4Yacvko55lLxVrVvmMYteXaXH5zP9u0RbKqe7jBMt8dU6/7lhyM5rxLvFS8P2L/cbG40zLDuQ0BgNbauZh8F+h7KXAJACidEg6JSDWWRiTXSyW9fSylbnExGVwuFMEAnVfC5qp7zwXgGy5HONa18fgPAB80N4Y3qmYm7+a/eb5TKCwMDCzlUe1ApX2L/XM5reKCciX1KTZq/zaHcWNzJaa/2KfS994Dhu3CXKZYkwKI6ZRLWGvi817MfevGJAJP+aAvcbYzDcXqE3SAFEKoH0mML/Hv8s2pvWAzMzAnASGzSX5M2MwGJPDmxNMDSDGvL4zOSgOlgdinYDdTKiwulU97LKagJwRhmkhGMub0CsJZH2ifLInLwtX/ge4ybiRDOnok3Er2IoBGdiAszFMsQp33DVXX92WsE3cgDBAJoRovs8EY6gnKF6Fk8oO4+MVJWcIc52Asa5FBBM9n8UeG/p2KDOC7SwOBJABW5immAoRZSZU7p8FeOVLCVZDAmTL8Q3ItTDCr7wSQA6xkIk+mZ271ES8zV2qP/QFgC9HWlEgayDAMjM499nKZuQxMwiLkAJo35OYCLQdmDGzGGYzY7EYWBdzMxMwK7dbY/MCeF5X8hsfs+tm0p5hXijLSOFZtjT7WVlWqFZDCiMbxTDySgA5IKZAZNRMvZqA8++LSTE59r+7l3NyvOJAjlDYpZaWeTEE4wM2gGPGALnPzFjX8jUmaOGe5a8U7mlJ2W/YNKaG5/opwyE2Blh56RD2d9i8KVGBmt3n+cE8+vkt5+cAeaVMi/SXNpMJc0IwEBNvXQEZmRjdKP9yphUHssYSDoZkUogpvrYc/oKLsA0bF/AkICO8BrIZcDEVCI6flysOGwA2G9oCBpNgY/5peQJx8qIsURhl5XefVwuI1WUlgUwmcVtSfKGsZG4HTUC2aMS8c01fLWdaFUDWYEICLMFETAuvSYm95SeNzew+oAqwPBM2NbwxK0zMrCA5+24Sx7XGRABo9zswbWXU4WoGi7zEN7e3Lqoe9UNz1RkeMbtn+2Wry0qklQByk03Jg/KTAVl46xxheMcSkI8oEBsJmWgrkVYNkDWewDAzk8LqHyADtMWT5iqb8Q+HYd0fcGEBQgRorMADweOQvSu4z0zqxDgLCGr2G4afKZcSsfmYMrGp3SPKTn6YvSlAMfdKpuUGch/EL5V8mAy2T7AoJXjLq18ADcRR+JWQz6oCcgRAeEwKpoV4DMHkTA5+Zt6GJKaAFED7zs4FOhM39puDiQHgXvMHdvdk+KMIzcwot5uJn8mn1T95ATFW5xGhEMs5eUkbB8/LCeQ+iMlju1JsSs2EMMG2Ytf2ICnZLrdNPCiXVQlklcSMAn34dG8t/7LAfNufWkQBZgy6MWAROMZ2jXAx8M4F3sbE9R1rbFvs7R5vUTMvmklR+fEhA7OyueoshuRFyenp6VnwDwpxOb8DclsQGaMfmXIDMRlTcnax0ewA8qhQWkvPvEReeDA/CSkspxwGy1q1QE5F2cf8vTwaTI3ba3nW8raVOvZs2JjwpbCI7wE1JgHsBl4AZiMXiB2zz7CPgXkG0GKRzca5k/wnTsyzkkNnq2j9GTeQyW9WJvWZ7JpS18gExP5tsuD46VLsFgRUpLAa0qoHMobk17WowbwwEbR4YhLI/GDPBpgBcwSb73GhYV+/5ch9zk0BsE91HhYySWQHesfMdqfMi80VyJFDQNpvd/9zSMDI5BmKz/alxF4aFXUoHMD8g3vT9ZBBP5+V+LzqgRyhALP9zADYHswmgHfVZ/5nYCb8pHRcvqeDfJ+vM3OfM4e+f5HV339hVQI5sRalfEA12Pb+9421Pb+l7e6Xj7mEuQW/PBa2gpr/mkUOyGM1pc0GyIDKdmVqiMewTMtmFgkmlsKQ6x4dQsg6JEc6az7B5x5nrMy9xLnvzQYbiYitXU1AtiDin9l7K523Rb3TXufBlPb1f/dbjmYLlzJoo4ky9yXXGlsYgMWBY2FRgRtTmH6+K/F5swFyhKPTrMiJhwBizHxbvdpkUtjijYu5AVrHSOncfG4/zvEnnerM2wHIZuZnMy1WCZBno98AuaLf5gNyAJ12pdn57iy5L5Nj7RaAxZSyyOHsO3DXjcli1Z03OyADqEkZMAsIAug7azlbFBhQAzR2dj0dNcjQc/VCv4NXO5AxsncfFwpkbU77wr6+Y1dL/do7XRM4G+KI8baoZCsEcwUeH0BfzWmzA3KEqRN0CBed7QCEZJoIMjnuqSB9PmevNTFH3Od+KQwdtkp+zulo5z6QTfZM/FaDaRFG9s6e/S1aPPLMCDTYNt/7bcpnv1Nu4OR5MKHDutrYjhqJbNLITuZa2xzSZgvkAI+pkQg6b4EAsX9Dy9fKbWcy6L099wC0Tsxs2+d+SkcHyBz/s6ZFMZWFFM+uZAJkLCz6DSNr5+z/WKn2aFO/Xdqi3fEJNwZes6bt/2wy561mbjUxE2srkrB5JMqM4IOPnFayvQste7MGcr+ROgr72kNY5Jy9kx12H/KmdnsNqgAdhta5Ujo+nR8wY+TmfisbOYy8moAcRvb2Sx/IkUna4TvwhoGtenoxFGBtb8BXTmGnC9BWL70tE5kkr83hvMUAOcxjj2Arf/Z/466zEtjYud42zv/QaLsSlQ09F0PLC5BN8PiRm9eiGDkstZIdi5Et3bORLy/TYhDI6h72dQZgNq5YE0C1Wol5baTuNSTbj5nItaX7Ymp7RUepV7Kdiy17iwHyYMOzkMK04J7z34yA2tYAAJ0JoXf2rOal84EbGAy7GDnuN5+5nlaDadGAPGMjZ7Kn3pg37KueXgbAsHvUMjLA+t+D3GoObMylBsSbIwMP9vcWC2QdG98zhrakjc3sbmQvCPtf2DrApNAKoYg7ng42t+Q/qPKfivA6x4bUNfyuFtPCBM/LB/5HCxckc4nyAS/23a3Y14hiEseEsIEgEFvcaOaD2JM6jDAmfJsjA79mgDzY0DC015uAWVioZW8eDwz9cAHaYosVRGAWLZe9mb1MaZnWK1GG6pVMNjjnoRF3cnltoM5sorBAzDxIGKsQVmaEs9fxnUXyiejbEoA72AdbLCMPNjQMDdCWtO3c2WzpAgZQY+eHygzB2gDNt4rFbJzIc2EYBhZD90omLkW+c0FUV9fLuraapVxW3QBWmKUD82JkoatGEjuLMo1Wuz94qbJ9zQB5UECA3VYJC9CA6/+PADHb2cExJ94CgLmm2MxA3Gczw/nGkt/79+We3D94rX+/a7kvz/Xvp4Tqy963AKSulI6t638GqjNW9j3vLSafLfn8mgUysDgMyzY29L/6Ztl6ZlXQmyTZvAWr9QEFFMmj/7vfKInfwt65z1mKQvR/z/3O+d29vjuS4mZso0mBWL2xrLqyj73SZRHDb47UIc9vqefXLJDn6tAwNTAFXIbuPpjyrHuTct1z+R2IfKYgDpMy95lkJRjd935Zvuf55D0IRvcDNCX0mcmjjlGQPPdaOk+APNDbgJEj4HTO59zuHsl5rmt+t6LIFBAX4gxs7Nf2DmG5xvo2az+f5J/fck6ZqaPvruXw/bWYJkAeotcHwZas+r+bnPGS8I44sKcFCR4ELjLsnBSw5vnB3/N9ct5QAhMgbyiTkf5iFZG7LAcGFqTeVtXKyyBoZ5KGl8AEyMPLcN4ceEL4eh1W4djG/kuUON8Eq8+bweTigiQwAfKCxLT0m7jH5gKy3ZC4yCZpeAlMgDy8DOfNoQ9kgGZahJEnQJ5XdIu6OAHyosS1+JsHgcy0sIs702IC5MXLc64nJkCeSzIj+n0C5BEJchPZTIC8CQENe3kC5GEluLDnJ0BemJyWfBcg21jGwWvBRrZ7kfgN0WmTyd6SRfuqBydAfpU4Rv+FH9mmMiZ6AuLZyCfUjj2ALLRy4kcejcynStAbD+EaTf6v+VwsSwvktyCClTGyf63mXTlL1d6hm6ThJTB14403ToA8vBznzCH/H9srVkIvLVFjY4shQkNFrE3S8BKYuuiiiyZAHl6Oc+Ygfpid7GBmCBry+pE4C/YxU2OShpfA1He+850JkIeX45w5CMlsMc/1+pSzwCDmhWOu8NA5M5tcmFMCU/VvYCdAnlM8w18AXCycQ479N7aHL2GSAwlM1ftqEyCPEQsJzXTO58QSD4ZrjrEaW3zWE/fbZtzFfUWIkmzGzRmq6v8Hmr/6gLW7Gy8AAAAASUVORK5CYII=;" vertex="1" parent="WIyWlLk6GJQsqaUBKTNV-1">
          <mxGeometry x="400" y="320" width="84.32" height="90" as="geometry" />
        </mxCell>
        <mxCell id="bLt_DuCS9akk9Niv8NfP-2" value="" style="endArrow=classic;html=1;rounded=0;fontSize=12;startSize=8;endSize=8;curved=1;" edge="1" parent="WIyWlLk6GJQsqaUBKTNV-1">
          <mxGeometry width="50" height="50" relative="1" as="geometry">
            <mxPoint x="490" y="360" as="sourcePoint" />
            <mxPoint x="560" y="360" as="targetPoint" />
          </mxGeometry>
        </mxCell>
        <mxCell id="bLt_DuCS9akk9Niv8NfP-3" value="" style="shape=image;verticalLabelPosition=bottom;labelBackgroundColor=default;verticalAlign=top;aspect=fixed;imageAspect=0;image=data:image/png,iVBORw0KGgoAAAANSUhEUgAAAVQAAABgCAYAAABCDoq6AAAKqmlDQ1BJQ0MgUHJvZmlsZQAASImVlwdUU9kWhs+96SGhJURASuhNegsgJYQWQEE6iEpIAoQSYiA0OzKowFhQEcGKDlXBUSky2BDFNiioYB+QQUEZBws2VN4FFmFm3nrvrbfX2ut8+bPPPvucdc9d+wJAlueIRMmwPAApwnRxkLc7PSIyio4bBhBAAyLQBTQON03EDAz0B4jNjn+3D71INGJ3TKdy/fv//9UUePw0LgBQIMKxvDRuCsKnEX/JFYnTAUAdQnSdzHTRFHcgTBUjBSJ8f4rjZ3h0imOnGQ2mY0KCWAhTAcCTOBxxPAAkOqLTM7jxSB6SG8IWQp5AiLAIYZeUlFQewicQNkRiEI00lZ8R+5c88X/LGSvNyeHES3lmL9OG9xCkiZI52f/ncfxvS0mWzK6hjzgpQewThIyKyJndT0r1k7IwdnHALAt40/HTnCDxCZ1lbhorapZ5HA8/6dzkxf6zHCfwYkvzpLNDZpmf5hk8y+LUIOlacWIWc5Y54rl1JUmhUj2Bz5bmz0kICZ/lDEHY4llOSwr2m4thSXWxJEhaP1/o7T63rpd07ylpf9mvgC2dm54Q4iPdO2eufr6QOZczLUJaG4/v4TkXEyqNF6W7S9cSJQdK4/nJ3lI9LSNYOjcdeSDn5gZKzzCR4xs4y4AFUkEy4mJAB/7ILw8A0vlZ6VMbYaWKssWC+IR0OhO5YXw6W8g1W0C3srCyAWDqvs48Du9o0/cQol2f03IzAHA2mpycbJvT/B0AON0CAHFkTjNEniVZTQCubuZKxBkz2vRdwiBvATlABSpAA+gAQ2AKrIAdcAJuwBP4ggAQAiLBcsAFCSAFqTwTrAYbQD4oBNvBblAGDoIjoBocBydBM2gDF8EVcAPcBvfAI9APhsArMAY+gAkIgnAQGaJAKpAmpAeZQFYQA3KBPCF/KAiKhGKgeEgISaDV0EaoECqGyqDDUA30M3QGughdg7qhB9AANAK9hb7AKJgEU2F1WB82hxkwE/aDQ+BlcDy8Es6B8+CtcClcAR+Dm+CL8A34HtwPv4LHUQAlg6KhtFCmKAaKhQpARaHiUGLUWlQBqgRVgapHtaI6UXdQ/ahR1Gc0Fk1B09GmaCe0DzoUzUWvRK9FF6HL0NXoJnQH+g56AD2G/o4hY9QwJhhHDBsTgYnHZGLyMSWYSkwj5jLmHmYI8wGLxdKwBlh7rA82EpuIXYUtwu7HNmAvYLuxg9hxHA6ngjPBOeMCcBxcOi4ftxd3DHce14Mbwn3Cy+A18VZ4L3wUXojPxZfga/Hn8D34F/gJgjxBj+BICCDwCNmEbYSjhFbCLcIQYYKoQDQgOhNDiInEDcRSYj3xMvEx8Z2MjIy2jIPMEhmBzHqZUpkTMldlBmQ+kxRJxiQWKZokIW0lVZEukB6Q3pHJZH2yGzmKnE7eSq4hXyI/JX+SpciaybJlebLrZMtlm2R7ZF/LEeT05Jhyy+Vy5ErkTsndkhuVJ8jry7PkOfJr5cvlz8j3yY8rUBQsFQIUUhSKFGoVrikMK+IU9RU9FXmKeYpHFC8pDlJQFB0Ki8KlbKQcpVymDFGxVAMqm5pILaQep3ZRx5QUlWyUwpSylMqVzir101A0fRqblkzbRjtJ66V9mac+jzmPP2/LvPp5PfM+Ks9XdlPmKxcoNyjfU/6iQlfxVElS2aHSrPJEFa1qrLpENVP1gOpl1dH51PlO87nzC+afnP9QDVYzVgtSW6V2RO2m2ri6hrq3ukh9r/ol9VENmoabRqLGLo1zGiOaFE0XTYHmLs3zmi/pSnQmPZleSu+gj2mpafloSbQOa3VpTWgbaIdq52o3aD/RIeowdOJ0dum064zpauou0l2tW6f7UI+gx9BL0Nuj16n3Ud9AP1x/k36z/rCBsgHbIMegzuCxIdnQ1XClYYXhXSOsEcMoyWi/0W1j2NjWOMG43PiWCWxiZyIw2W/SvQCzwGGBcEHFgj5TkinTNMO0znTAjGbmb5Zr1mz22lzXPMp8h3mn+XcLW4tki6MWjywVLX0tcy1bLd9aGVtxrcqt7lqTrb2s11m3WL+xMbHh2xywuW9LsV1ku8m23fabnb2d2K7ebsRe1z7Gfp99H4PKCGQUMa46YBzcHdY5tDl8drRzTHc86fink6lTklOt0/BCg4X8hUcXDjprO3OcDzv3u9BdYlwOufS7arlyXCtcn7npuPHcKt1eMI2YicxjzNfuFu5i90b3jyxH1hrWBQ+Uh7dHgUeXp6JnqGeZ51Mvba94rzqvMW9b71XeF3wwPn4+O3z62OpsLruGPeZr77vGt8OP5BfsV+b3zN/YX+zfughe5Lto56LHi/UWCxc3B4AAdsDOgCeBBoErA39Zgl0SuKR8yfMgy6DVQZ3BlOAVwbXBH0LcQ7aFPAo1DJWEtofJhUWH1YR9DPcILw7vjzCPWBNxI1I1UhDZEoWLCouqjBpf6rl099KhaNvo/OjeZQbLspZdW666PHn52RVyKzgrTsVgYsJjamO+cgI4FZzxWHbsvtgxLou7h/uK58bbxRvhO/OL+S/inOOK44bjneN3xo8kuCaUJIwKWIIywZtEn8SDiR+TApKqkiaTw5MbUvApMSlnhIrCJGFHqkZqVmq3yESUL+pf6bhy98oxsZ+4Mg1KW5bWkk5FGqObEkPJD5KBDJeM8oxPmWGZp7IUsoRZN7ONs7dkv8jxyvlpFXoVd1X7aq3VG1YPrGGuObwWWhu7tn2dzrq8dUPrvddXbyBuSNrwa65FbnHu+43hG1vz1PPW5w3+4P1DXb5svji/b5PTpoOb0ZsFm7u2WG/Zu+V7Aa/geqFFYUnh1yJu0fUfLX8s/XFya9zWrm122w5sx24Xbu/d4bqjulihOKd4cOeinU276LsKdr3fvWL3tRKbkoN7iHske/pL/Utb9uru3b73a1lC2b1y9/KGfWr7tuz7uJ+3v+eA24H6g+oHCw9+OSQ4dP+w9+GmCv2KkiPYIxlHnh8NO9r5E+OnmkrVysLKb1XCqv7qoOqOGvuamlq12m11cJ2kbuRY9LHbxz2Ot9Sb1h9uoDUUngAnJCde/hzzc+9Jv5Ptpxin6k/rnd7XSGksaIKaspvGmhOa+1siW7rP+J5pb3VqbfzF7JeqNq228rNKZ7edI57LOzd5Puf8+AXRhdGL8RcH21e0P7oUcelux5KOrst+l69e8bpyqZPZef6q89W2a47XzlxnXG++YXej6abtzcZfbX9t7LLrarplf6vltsPt1u6F3ed6XHsu3vG4c+Uu++6Ne4vvdfeG9t7vi+7rv8+7P/wg+cGbhxkPJx6tf4x5XPBE/knJU7WnFb8Z/dbQb9d/dsBj4Oaz4GePBrmDr35P+/3rUN5z8vOSF5ovaoathttGvEZuv1z6cuiV6NXEaP4fCn/se234+vSfbn/eHIsYG3ojfjP5tuidyruq9zbv28cDx59+SPkw8bHgk8qn6s+Mz51fwr+8mMj8ivta+s3oW+t3v++PJ1MmJ0UcMWe6FUAhDsfFAfC2CgByJACU20j/sHSmn542aOYbYJrAf+KZnnva7ACoR4aptoh1AYATiOsjTnYDYKolCnEDsLW11Gd73+k+fcqwyBfLoWm9h5a1HvzDZnr4v9T9zxFMZbUB/xz/BejbBZQKP7TIAAAAimVYSWZNTQAqAAAACAAEARoABQAAAAEAAAA+ARsABQAAAAEAAABGASgAAwAAAAEAAgAAh2kABAAAAAEAAABOAAAAAAAAAJAAAAABAAAAkAAAAAEAA5KGAAcAAAASAAAAeKACAAQAAAABAAABVKADAAQAAAABAAAAYAAAAABBU0NJSQAAAFNjcmVlbnNob3RsyRkLAAAACXBIWXMAABYlAAAWJQFJUiTwAAAB1WlUWHRYTUw6Y29tLmFkb2JlLnhtcAAAAAAAPHg6eG1wbWV0YSB4bWxuczp4PSJhZG9iZTpuczptZXRhLyIgeDp4bXB0az0iWE1QIENvcmUgNi4wLjAiPgogICA8cmRmOlJERiB4bWxuczpyZGY9Imh0dHA6Ly93d3cudzMub3JnLzE5OTkvMDIvMjItcmRmLXN5bnRheC1ucyMiPgogICAgICA8cmRmOkRlc2NyaXB0aW9uIHJkZjphYm91dD0iIgogICAgICAgICAgICB4bWxuczpleGlmPSJodHRwOi8vbnMuYWRvYmUuY29tL2V4aWYvMS4wLyI+CiAgICAgICAgIDxleGlmOlBpeGVsWURpbWVuc2lvbj45NjwvZXhpZjpQaXhlbFlEaW1lbnNpb24+CiAgICAgICAgIDxleGlmOlBpeGVsWERpbWVuc2lvbj4zNDA8L2V4aWY6UGl4ZWxYRGltZW5zaW9uPgogICAgICAgICA8ZXhpZjpVc2VyQ29tbWVudD5TY3JlZW5zaG90PC9leGlmOlVzZXJDb21tZW50PgogICAgICA8L3JkZjpEZXNjcmlwdGlvbj4KICAgPC9yZGY6UkRGPgo8L3g6eG1wbWV0YT4KgKdGiAAAABxpRE9UAAAAAgAAAAAAAAAwAAAAKAAAADAAAAAwAAAiQSuGU+AAACINSURBVHgB7J1pb5zXdcfvkMNVFimSonZRCyVZtmQplrxITpOgQFP0G/Rt3wQIUKAokBcFDDRFW8P+BvkmTd8lsZF6jQPbiW2J2kVrpUiJEvdt+v+d+5zhw9FwE0lRlO6VZp7hzHO3c+/937Pd8xR+85vflJQCr+ctFZbZoeePAsskQLo9USBRYEkUcLwsFouhqakpbNu2LXR3d4fCr371q1JtbW3gVVNTEwqFwnMBroCpuhKWCqqAqb0Sqi5pQqWbEgVeZArMzMyEqakpw8z6+vqwa9eucOLEiVD4xS9+UWppaQnNzc2hrq7OgNXRdyMTzABVHQBUl5IcTBOeLoVa6Z5EgRebApOTk2F4eDiMj4+H6enpsGPHjnDq1KlQ+OUvf1navXt36OjoKIPqRlYBoLmYmglhbKoUhsZn7DpjKo04AfL4CngaF6svG4qFsLmhJjQVa0JtTQg1+Rtf7LmTep8okCiQowBS/MjISLh37164f/9+GBwcNPw8ffp0KLz77rul48ePh66urtDa2hoaGxs3tMg/MV0KwxOlcOvhdDh3dyLcfjQdxiZLAtmSQLIwRwXggFqsDWHH5tpwbEd92N1SDJvqC6G+NiFqbg6lj4kCiQI5CgCi165dC9evXw+9vb3GjBqgvvfee6W33norHDp0KLS1tZmClXwbVewfmwrhwdhMuHhvKnx6bSxc7p8SwM6ESQFtbQ5QAVO4WamNQ53A80BHMfy0uym83FkMWxprQoNANqVEgUSBRIE8BeBOSQMDA+HChQvlF3rU119/PRTef//90pkzZ8Lhw4efC0AdFaD2j5TEnU6GDy+PhYt9AlQB7JQAFTE+o4eBqXOoAOrhbXXh715uCsd31IX2xkJoLObJmD4nCiQKJAqAHxFQ+/v7DUx7enrC+fPnzf5kgPrBBx+Uzp49+xigblTijUi87xsuhe/uTIbfXxwLPQLWEelSy4CadQwwlRZAHGohIPIfEaD+wytN4bWd9aGjqRCa65LIv1HnQGp3osBaUwBABUx5nTt3bhZQ4VAdUNvb28si/1o3aK3KR3/aNzxtgPrhpfFwQYA6nAfUDCcR93kVMpEfDvXvjwKodWFrc20C1LUaoFRuosBzQAEHVLjTORxqXuTH0o+T6kZO6EsNUG9L5AdQ+/IcqoxSOUDF+o8aoE4W/kMC1J9L5AdQOzcBqELalBIFEgUSBapQAEB1MOVaVYf6vALqHA41Iw4ivxmlAFTpUA1QMw41AWqVGZS+ShRIFChT4IUGVHSoWPnNKFUmSaZDzTjUw53iUAWox6VDjYCasbK5+9PHRIFEgUQBKPBCAupHOZHfAFWImofJvMgPoGLlxyi11UT+/J1pEiUKJAokCsxS4IUB1FFZ+ftHpkOPdKefXh03P9SRzA/VHPtzOBkBtWAi/8GtxfCz7sZwVLrUtqba0JSs/LOzJ31KFEgUmEOBFwZQJ3Tk9NF4KVx/MBW+uTURfhicCiOy/JdF/gxQ8zpUTkXt2VIMp/fUh31tRTuCmk5KzZk/6Y9EgUSBHAXWDVClujQwm5bTp7kq5RpV7WMtfqG5s/TTOpfPsVF8RudL/IRNHp9S6uD+e8M6LdU/Ge4OTQe41nj0dG4Jlk9m/zrl2/ZSjU5J1dkRVLjTor5LKVEgUSBRoBoF1gVQAaxxcYyDOqk0OolhKAQA1l2XvKGAIPDF9wQpaVGQkno52wOiHuRkXHkr85HfQVrZQqOAkPz1AkNA9PbQlNU9rtNTVq9XmF1pH2UW9balqSbsaa2VuF9jKgAxrSklCiQKJApUpcBTB1TACrC7PzoTrgxMmm/oqERvOEU/vuUtdUDlXH2rztHvaS2GlxoKdu/gWCnclNiOGD8foKILbRSQbpHus625JrQLFAHvGw+nwoD0qQAqEagqmc48oHYoH+f5sfADynDJKSUKJAokClSjwNMHVKEVXOG1+1Ph/67qCGjfRBgcmQnoOPPGIUDNAbVWbOEucYknd8l1SSL4hEDx5uB0+MvNiXBXUaMAxEpQhYud0dtL4mp3bakNe6UD3d9WZ5yx6VClSx0WGEcd6lzHfuqmPPxQ0Z2e3d8QDm2tE4ccOd1qhEzfJQokCiQKPHVABejgCrG2/++5kfDNzfFwX/pMQumhJ81zqQaoAjY9NCB0AWwHGsJOhdEbFyJfG5gKn18ZNy41D8Q+pETF4px+i7jS/QLDg3odkS6Uej6/Ph6uSI/6aLQUgVxcZxmQAWK9KLNOgVDKfqgK4QeHu1ZW/klVajrdTAeB/hbuuihQT1oGH9V0TRR4timwLoAKV3heZ+l/a4A6YYCKThVA1X9LgOksoBaMwzwjTnGHOFU41OsAqtyfborTJPAzgJgHHj2JwFQDAGpXRwaoAlUD1N4IqENSO0TOOAeoqh1ABdjhUAmO8vOjjebYv5Zn+R/qkMENU2HMWF8Iar1zc/QsqOzbsz2lUusSBV5cCjx1QMU6b4AqDvV/vh8xsf2BgpaMlznU2cEwYNOfiPx722rD2waoRQPU3gxQbwmEAOFK0CGvc6gRUIvh8BxAnQoA6qSpGmYBVdkyDjWK/ARH4aTUWp3ld3rcejQVvlUkrD5x67QBbhiumgDXm+sVh1XcamUfZymVPiUKJAo8CxRYV0D9bR5QATbjUCOfGTnUaHCCc93bngGqRH7jUKWD/UIivwGqfgdsSM6loj/F0NUiY1aXgAkHffSgcKhfmMifA9Rcfur1k1JFgZgB6hoGR6E990enw4V7k+ETcdzX1S9Atk2Rraj7UNburTKO4bKl/yklCiQKPKMUWHdA/UaGJThUE70N2DLEELChBwUolwOoTufSMgG1jMRPEVDhRAfFJV97MBn+qsMGn2iDAFCnpNLYrI0AQxqgyrFXjGO4bjVlnKr3M10TBRIFnh0KrCugIvKXAVWcGhyqc5qQyHSoulYT+dGhfiGOLi/y58lK3uWI/GVAVSGoC+AEPWL/Woj8gCltvCUvha9lmIMOf70xEe7ob2R+jFE8w2qnTmq9oqcFHN1eH14RuHZu0sMCRaQ8nfL9Tp8TBRIF1o8CTx1QASt0qDyKBJHfARUd6sKAWgxnZOXf0VIrK380Si0VUPdlIn9Zh5qJ/I9yOtSFADUGmF7d4CiI9Tw48Ko40o/lPvZXAepVeR7gQuaeDoCmGdXai+GovAze0BHY/frsOtX1mzap5kSBRIFqFFgXQIVzPC+j1G/PjcooNR4GZIiZBdTqIn+XgMQAVc79eAS4lf+WrPyVQExHyyK/xOR90kN2C1Rxm8I16fNrCo6ih/WVARV2NKsW7tB1qASYRuR2QO1YxYj99AHLPu5jH14aC+duT4QBqT445IDLFiwoKg+45E2y+O9T/093iUsVp7pf4j8PDExcarUpnb5LFFg/CqwLoHJ+/6pE9g+vjIXzsmyblT8zSjmuQRIT+fUFgIlj/6m9DWXHflyMvv5Bjv16LDSPKyFfZV6MUugi98hDAEA+0B4d+7+SaI2uckinraJj/2xe4anV6yL/fp2S+puDjeY+BYjhG7oaiScI3NFG8i1PELg4qocGToYxgSmcq3OoACrtATg7X6oNr0qXenxXXTi5syHsEqcO2NLOjZy0t9oYwK3jn0zioQj0jZf+p7QECvi8Zc6zWUNL1g8uhQT0qZMvd1IVLYGQK7zlqQOqDzyPI/leYBp9L+cBNnWO9QTH1i7dYbf8STlbDwgSiu+KHgX9QGI7gOPrzq+sTcCpSXrIbTo2SpCTbXJB4ujpZY68DhFHIDr/VzCogbyah7agtwnIXtlepwMFMXQfDverkXik9bX7k6by+KPis16TuI86hDQLqFoU+sf36FPxwX1Fov87+xvNY2GzTm5t9OhXxGTgGDL0gGOHusRsYPNirFdrAzPCPsdvzBEYlSFtyqwtrkiC0G+r1g40JaZFCu6ztpPgiQGV3W9abwAUi4Kdke+qJb4GoPxZ9w3aMXloXq+4zH7pDH3w88BIOVaeVhgYxln+3ZzlF7AwcQisclPc6SMWoTJWwhx10j4mFHFM8evESk47yccipt2AbiVG6hb7jl2dPF1bBOSqH3hzjop7qiX/Gs6qXnVH7uBxTuueJv05caVf3xgPn3Hi60GO04YQWYIG9AOurVkAekhqi590N4VXJfpv1wYBPTZign6MY7/G4ao2OMakX5HASATyhgNHtUEMhuQutvgIw+EP6Sj1bRk1YRiYX3jOcEAED5FdcjcEWJvl01y5zhYvPd2xVAo8MaACTAASwIZlmiAl6B5ZKM5h0QgXW5GU2SFbGmttwQAUt+XMDrABqHCdQINjCb978uAou7XINmlCADAPM0BlEpE8n+ch/yygRjAFWB1Q4YgcUKvVC8gicsIl7RWQ4640JDEdAH8wFgOrkC9fsfeVa5MQsN0CstQ+xmnRttsS97+5NS5AnQhf6eTWnYcztuFUbg70jvulUTWQx5Xq7QON4bVdDeGw1BHUsRET4z0sCQHVz+e9Y6by6BMNSJ0aZ478viEVD6AKd77ROfG1HiO4e2L88nh0VFo3ZFsAUNmQXtbme1RS1sudMRYGon8lE7HW7XtRyn9iQEVPA5gismOx54QP3B4AUJkAWsCJQCVwVYckuuNbCodKXNKHAlXKqxxkAxKhFoBK1KeDytdqXGYwA05e5K+sk3bg3M/Ze/SPvBDfWchXtIgRi6LI/ziHSr3UySImH8YsTirdVdg/Ng9cteCw8xuH1++bih0oEBh0ye1pr15w2CTaRfnQ7U/iTr/R5P9OFv57okM0rlXntgFp+rNNx1FPCmhOKFAMp7e2q32eKJdkHIjoZjqz7G/74Rl6g/YDGnfmzkeXR80o1/8oivztmiMAwE+lu35ZRkGMgWsVQ+EZIsmKmuISDwGDvpQXS69sBAao4kqPSvd+Qhvw6d31NheTbnpFpF4w8xMDKtwaRpVz0oN+cnmsfMKHNW2cW1at6QAFtIi/LVoYhMKD80BZ/hc5swNu/QKpMZWXD3ICOFhZAIOQdrciRp3aW2+AMqGwe+zAX/0AZydRWffYK9dVOGVESkSePTJI7VO9B2WUgiv9s/LhJcBTT+PR01m/Tq8XQAVEsa6fkc5yc2PBuKmr0tte0akmc29Su/J9pXoAdVpqEHS+TORjTGa9HPgoH865VyL+Z+LMWAA9Mkzdl07YuFN1pLJMLxdA3cIJKoEN5Z7SAiFYDPd7udxrgV2Es6hW0Pk6ffjtWUlDoj0+uN9p/hB17KKAlY2VQW/R5olq4x1x4q+ivxbAMo4pVacAYw8tv5LEw3z69uZkuK0QlVOa65vFgOwXLXnI5JmuyPGnQOnV6bga3z4xoMZgHtEp/XfnR+WGJKNKxqHmwY3BBtwA1FbAQBzHj+VPCqB+IVH3gvSIfQrFx+NItP5t8dMxZYmirr4DUAHEswexbhcFigr/J2D7TF4CxETVz9UBVcDW0qS8mlAsUHeb+lQL+LLqfSQOe1Jlef58vdRJmw91FsPfHmkyf9CL6uPFu1PhokAgAuDcemkzNABQt8oI9po2jtflO/qWruh/SQ70PIrlU3ESLIBLApP7mf9pnnaWIXtzwHRnfzYmDFTbBNyk+Hu8GTrChaA/ZlPgM1cLtJ195h7qWq8URVQBqtzFPuYZX6LtsMaD1CzwJI7BO5onx9RHAnxjVEnpcQr4OrkpAP2TGAX8uns0PwlriVEKqXCPJLtjkmbO7mswpmKTpDbmREqrT4EVAeoPAkIG8Pc9o8a1ARYMcB4UIqCWyhwq5+nfUZATAJUJgLtQn7hM/C8BMV/kPlEYdgvfZ5wi0aZ0lh9AFYfJWX4AlbI8n5PIgEsTih0aP1QL36e6ETU/kx8q4fuGxRFhVLP2ZvPL62W+AajdAuKfHWo0QL2kPJf6psoAmAficr3CBLjerRLFjwtMqwKqiNKbA9QI0JlxTfVmTfEi7RrbNeuX2ioujtiwzZlRCjrzItEfDDksGrgRgnK3y9BDoBU8Htyftlr7Ywlr/x435BgQhhgGACrBakibpB4xQNU8eTUB6oKD4fPVAFUqJDbo85J4+hxQRcs9kswcUHEdTIC6IElX9OPqAao4RvR8pLxu0Qw1+h5w2iyjEAD1jnZKQPBLB1QN/iygZnBiAJGd5RcwlKNNiUPlpBTRpjgpFQF1FoidGlH0zgBVO/QBgephXT18H6K7RZsS6EZRO8uZ1Ws6VLWZhV0JqHC3D3IcpdfJFbHcAfWYRPLXpaYwDlXtJkEi2sZm9Lk4dDak8+bUvzCgxrzR6Z+2ceigoS5y77FgNrOM/oJkwBIaNxig1hiI4voFp8yTD9Ant0iNsV5uSbOAqhgGBqhSwQhQ6QGAykEM4t8ek0Fld+JQbYirvUEv5hSA+qUDKhyqmBTjUEXLvZr3r+r4MhxqAtRqVFy971YEqDcECl8LEP5wAQ51yoCCphlAZW00Y0oGqOhQbaFkHOqXAhQ41HsZoGKUsVNCysskIS/c1pyz/AKm+aJNZVBsNQNaTKjZeKjzRJvSPY/pbpXXdKgCIwD1p3qMNOVchkNVPy8vIKKjt6XeDnGCzqG+icifASqNo2+E6/uzDFK4Tf1F1z4ZZPzEV74f1pkqb4WCaKPvKznz/K1GOzhVvRD3X9LiwihInziGiwqEKFYLlZEvbzU/J0BdHWouFVCPCVDPJEBdHaIvUMqKANVF/j8g8ovjA8RIebNKNEqJQ9WCBlAR+XmkCCK1i/z3EPklipvInxN4y4AqQHgsfF+OQzUgrugkeXGRWix8XznKVS4//YC7M5EfQEXkFxjh3/cYoOby8dGAXCJ/Ryby/8h1qDlA5T68G769I5cpgemfpYK4VTau5anHnY8n+uYLic+eHBjLXxkyx/JEQtuYUEV4BKsI9LUJUJ2AG/Dq82AxDjUB6tMZ3BUDKn6UEVBnT/rQdFvLujLggAzg5BxqWYdajUMls5JNFF0pB6AFUGPE/oxDFaDyCJQYD1WGJTLlkulQ5wFUHoFiIr+MIAaoqiTfXgDJATUv8juH6kYkQMrzedXUi3XVAbVS5Pf78L9FJwuH/7G8JHBzsU7rhrzKxO+vvEKfeL99qvy5/Lf/6iDbJiNWtwyDJ+VG82NtbLh0VfahnHkNPyQOdXWIy/gytglQV4eeKy1lRYCKyI8O0ER+gQMWbks5oGGwARk4VHxI0aGelRsSHKqL/CjQ4VABKF4knyiAC+DGM6Xelk4NPWA+2pRb+T1fzB3rxNqOqO5GKQ8w7c+UqvYIFNrLy6z8anO3dK9wqPiRXhKIYzzB0n9ffqwGqFl7y/WKBsQzxcp/TNzpj/Y0hDf14lBCPuF2xqkWzvJ/dHFMnK/O8uuR2n6Wv6LYfNZlfY50pFPKpkLxq31FFt8TuxsUvSrGBFitupbTsASoy6HW/PfG8U2AOj+Fnu4vCwLq2TNnwuHDh0N7R0doamqa0zJODOH7RmBkAAGruTv2u+hJBgdU3HZaxR0BauhyDFAV3AQdKi4e0SgFdzZbDXkRWOND+ojY3xh2ykDBIYDrAzLqlI1Sc/NRgnGoAKqAcL9Z+ec+AuWyVBREmypzqF6v6iQvgIpBxwAVHarKwWcW4ANQeQz1YoCKDhVO0PxFpbvMJzsqKM8GXLE+UrQp3IdsY8kODEAHb1I+33I/R/rHzYr+ECTmTdH/uKznxEbgaO16pASoq0P1BKirQ8fVKmVxQD0iQG1/HFBHxFH2i0u7KCPNnyS642hvEW7UskpQdJEfDhVO86ScjDH6wJ0R9alf+kQc7vPGIToYATWK3wDpSVnN4bA47cRjpDlldNeMOXPr9LwYh3AI3020KdXLmWbAOD5GWgEkctGm8uhFvYAlmwBHPd+QpR5/Po729d6fNpctIu1zTz6f1zutettklEJXyUP+jmbGH34HrKEHhjW4cvSyn0iH+r0A9WYWAWs5xinKnC/RD7StXHGvQg1Bm9jQONrp7lPz5V/O96rC6uHq3LCRR29cK5MD6nfSI2PlRze9Vlb+5batsq1r+fdK2+b5n6bIb2MMUbIP+fX+pLTyfuTz+/zJf7fSz/l6lsq0xHUU57fVn83pau1zQO05fz6c16uuXgdwTp0KhQ/ef7909mzkUNuqACqgBqgStYngFhwjxGXIaFxBYQAES7Mtahmm9urUE7cQEIMjc5zHh2NzC38l0eBmOVPPMU5OLAHcD8QhXtdpI870Wz56l0sQgXpxCwI4OsQdcwVkPShL+Sx/lbyAJX6cnJU/IK6OcugjnGmMVBXdnHJVxo9ZvcQw3SFDFCekcL7HIZ82eQwE4hfwLCnOsn8tLv+y/FvvCLA54FC5sTxWxyJfuKGK+khsXhijjsgFCfeZH+nYKl4HbBioU1YjsVHQN67Uy/jC5TN21SauAapcfQxQpQtfK0CFBLRHw24n57xtjO+zEHRluXSrHCvv39MCVK+PqwMqtKxY8pXNXPRv6MAYMT7MX8pkHaxG2V45bba5QGVKzM9qc9N+zN5ie3LzR9+Th3Z5TIR83wFUB1MH1NOnT4fCf/33e6VTb74dug4eDptaO0JdQ5N1lApIPhHgsgihNyrODwDj57ydOt4eQaJeUm+zgobg/6j2WECVEekNx2WP4Tjm3JxxvLiPBhOcBA63QWVQN/USSwCOkxu4L58ojYEByHFup95mXck7KHUFm4EDAPny+cnL3xCcPESaKqpe6hxVeznHP2mDUr1eWk4cALjaTao3HvWL7UbFQJ8BFE5HsangIXFbV3/66xy/WBq3QKKtlnIfvP3QDdD051MRUIUz8gfEdSPq5yeCF7PYlUnPpsQGCO3htNlc1SW74jYGaVgMRYE1j3LhCj0Yf9rDC1relOvY9+JQP14FQKXPTCHaYm1Tu6C1t402sxEzR20xqE1smMwPoorxmXbRTr5brY3G6Yk6jDlDeyLdZmnG4ZJqdNPUsXZBN9pF+3wT8LHzfq81oNJ+6AoTQixfW7P6DtoR8YwwmTAdtG+h5HSgLMaHK+MCDbhCB/rkY0R5zB8bH9GgXu7c0ILvocHCtUUMYV5QD+uWtYd6kUSbwQWYHconUb+PDweIyBfb5vMntg0mxdqldkADxqZRXwwN9ofLF3rChQuRQ62tLYYTJ06Ewrv//p+l/cfeCFt2H5KndWeYKTZpIekRx2XLU2wsiydOVGuPvcXmzv7NJ5rLi4nqkxXikp/XfHnIS4LAdMAnEnk9/7xUVaHcD618t6OsKVHY6+XvykQ7PZHXJomuMY/y0m6/YZ6rmmr9NG5Tn7mfRT2uF4cLmJSoHOCwUR8Mi0vnQAB98j5WFl2mETMkS/7JvtIf/E370TvjWYE/LEGyEfEJ+bdHXH6LTk4xAZabqIP2+2ZwV9IFm8JD9WNE/YmLI7aIrYYNiTY06QACOmgC3BCaj9Na3HV3WIF1AFREfnHoGAn5/kkc+xkbwIqoZ/ckRRAWEmkC+sL1s3iZp5kMZWPKIkJqgh48ZbZT7UIiadVGCH3mG4cnoRtAZHSTVNKnMIVIJ5FuEVQMSNSHSLe4QNmI2QwJPYl0xfPEUGHRbl9D0ItxWUtApQ42QNqMIZVTfgOiL4BDTF7UaYRb5LDIS1l4wGo0op1GB43JgMq6l9GBMaN8yoPJoT5b7xlQRSYszh/mULtoYSCom7hvocS8oEy8anjckEnFUjGSUB9i5N6nNYEETILRQmpGnckcYoziBhLXJm1jgRkuqH2MEceiGR/iaoTRB+HW1Z5w5VIEVKT27u7uUPiXf/uPUtvB10N956Ew0dgZJmsAVPmaCk28D0w4uCk6xURYLNEYuEa4BJKBjfIvnjMuBIgTc1qfYn4raeE38hj3nGVmd/FaF6ub4QVAyVru78LVlX+NfRXwKzMLhp0OLoXFzS44Phm5KICWe8qdK5cw+yFrevwio9/sr/pkYwCIx912kyY6k2SX1Cs48BOpa19bNEIxGejLUhJVQfe4wwMEMxapi6hbLC5imBLUhInIPfST5PMiAqomnYCBeJw7FC2L01oNmnt4OqDyQAdPbIYhLTRo4EdPl3JSCpCMbYuSEouBduHny+c8oBpo0Ta90FMboLIgAHu1jUMPqGh4QTtCRcIRWdSuJdKLvpOgG1IXHDwLErrRJl7QjsXKRorE4xwqebxtcGFwUHiX0DbAaqdoBw29bYA+YwnFb2UnpezkXZWTUsv1Q43tj7SljQAooE0MCsasX6o+5jFSI3Ey2LCPyODMpmR4kNHLy2G+QwekWaMBtBAdKJeNhk2PDRGGgjXH/GQu00fGATpw1Bo6ME4AGN8hQUIr32CM+Lk3wBQQJxjRV/JIwlWRU2Sk7YCp1HnYOABp7kXqxSecMQLwjdlRu2m/qzR9blOnAaq1TZHltL6apx+E4VsXw53rPeGSuNTxsbGwbfuOUPinf/11qWbnyVBq6w4TDZ1hWoA6I0AtldRjTxkYLnVxkg0CO5cAqC05b5aPycO0Y7yWmtfyVNRLAdmYW4nzvuXqtVqXmk8F0leSAysDAt4Anlx5GT10XSiRn+S3ebtdNcAEBiBQS7AIt+iI7/bN0QDYJUDdowDZTHR2dSJQLZVu1MkEB7B4QsI17fAsqB80OQnXCJDCWTPZ4mLQyNIn5aMOXg7wLAy4wS3iMLYLGFD7AGhwuMTwJDqSAaryon/G/3cxQKUegBxQv6H8qE5w5QNIWQhwzTyrjIXvHKCyWPK2oZJAVKVtcIMsWrh4M2LqCpjR9sVEWS/XryxO6AJwXhPN8DPmIAxhGgF5o5uBaZwTzAUfYG8b9MEzg7a1akxpG8GB0OnzSKCtAgF+I602oLJR0X64UmwOcKUA6S31ASMydg8YAWjWpc2aIDZvK5oV8412MydJlAP3idTA3KEcgqkzfwhOBJAyRjZ/NHnK80d5oQN055h1o4nmsqVo/hDCkk2ZB1buEriivgLYqiX6AEj2yJvmj/L3JhgTx8ZJlLVLYwzDQbwL+gTAE8GOe9gAkCYfmz+qitqi2I8UJjWm2rBNY9NWGAybHl0Oo3cuhN5LPWF4aDA0NjWHwj/+869LE50nw2TrgTAlQJ0RoJZmxJNXACoNq94VfpmbmDOWMoDwlb3k/E+a7xmpN04Wp0LsNZMGYCRVo4PdrYw2uTRR0deYDkmffcIx6Vj0jVpckRNUIJQWneHW5CYgCrs5YpPV5bRY5Epb4bDQOyH+9Goh8UBBFhX6XgCLyRbVFHEhgAhzexf7VFD7ANYI+JHDop0AJ5MVMAVYR8WpQISlACoLEL09XARAD5jCfdA2Fip6Mgd5kzAyGs7tdqRhBH2J2VqUcFw8WRdu44gijXHwATUFekLu0/8FE8AIeGN0ZBMCQHqkzsCbxelWBhD1waW1fKHQnrFCguPYNaBvnJDaZkeHCUWpF+fyaRsbArF6Ocu/Eg6VsaPtiN5IDxhh4dY40HL9gZ6qICAcEL1NvSPpira3COj3qi2vydD5E4VbPCiQA1AhE5sKIIVqCA4RF0FAFQ6R+WN00BhSp/4r6c2u+pjRmZJgFuAG6yQtEIkMIES87la9BCBnjNj4qulwbcPVOOCW+LsLY7Z5e1SzJkR15dutMhpV9iOJ97SLuWgqOI2PtU2N8zGhlfkUmRqkCXHRGouttYNh59TVUBi4FO5I9B8bfhQaN20K/w8AAP//KGJXswAAOJpJREFU7d15k53HdR7wHswMBgBBrARBAiSxkOAqUdzMRaLkOJ8gcSpVqcof+UNVrjiJK5Wk4qTKlciWbcqfxF8iiS3ZkRzbWimJJACCBAmC4AKAIEjsA0yeX/ftmTujGXAwALhI9wXu3Dt37u33vKdPP/2cpfsd+93f/9bMxW1fKdMb95YrU1vLzPiaUmYu53GljI6Va2Bm9qtjZczr/KjPs+/PvaifzY+ZmZmyemKs3LpurGxcu6psWjte1q0eK6vGxsrq8bGybnKsrJ/yt/GyefD3jWvGyoa853M+M75qcL655q/6avrKTDl3aaYc++hyeeW9i+XV96fL4ZPT5f38fvbiTLk4PVMu5zOXYw7kc4xFnvyvj5K3ruR9f2rvkbeUicjiWqbymMzD389evFIu5FzaHF9VyrqpVWXvbZPluT1T5ZHtq8vOjeO5lvxhcPjO6QtXytunL5fXTl4qL79zqbz5wXQ58fHl8vH5mXLp8kwhf/7X9rsMzk/Z5PWeh4PczutBtrWTq8pt68fLPVsnyn23TZQHb58sOzZMlFui58nIf7XDuc8O9PZy9Hbo+HR548R0OR7ZhvV2JXqjH8es3vLaO10+supjcus/516fft16y3jZE9m+smN12bt1smzL7x+ev1x+dPRC+fnbF8sr714q70U305Fl/ZpV5e585pE7Jsuzu6bKni2Ti15HPy8ZT5ztup0uR6LXtz+cLifPRLfR+flc23RggOwsavMtq8rubZPly5HluXumyq7NE2UystL/mbR19PR0eTnyHIoO3tJHaafqIe2wn1/RA4UMjiu0kf9dP/RAB3UsxM63rV9Vdm2ZKA/FRvbkeXv6bP3qVdXeehtkeD/n/OU7F8tfHTxXXn1vOtdwpdqGtqbSp7dknOjWC9Ol2iBb1I/zbXsgRxpuuhr0Uz3RWOx6VVkbG71t4nTZM/ZGmTr9ejlx5GBZNTNdtt+5s4z9s9//4waoG/aUGYA6saaMjQC199PKniHL0DH/t6E/DF628ab7StkQA9q5ebzs2DRR7szgvjWd1w1s7USphrQhg8f7jGpNDGUiAOEz13J0YzF43g0IAKyfZZC+FmAAph+fb8bYDL2BEMMElJ6BEhAACgaVQX0pA3A6AOK1a6oDZABg+a1+9ko+a4ABjqsBqnYA/TuRbX8A68D7l8rB9y6VdwMg5zJ4DASH6x4fzwDMiy7fRF7rgoWyzQ2epqlVke0Wg+PW8bI7wPXonavLvXm+49aJOkm5vgVdWa8r4pePMzm8Ez0BkBePXSivR2/H6S36BB6kq7LlHF1nk5HTdeet2k7VWz5Lrq43bTvod00myV2bJ8tTAbCH7wioBkzOBSR+HEB98RoBVbv0fiHn6mD61oeX6wT12olL5Z3o9YOzAcHI3wBG/2XiSV+vjRzbN4yX+zLhPBhQ+/L2yXJ7QI3JfXTBZDxdXo0egPwbmYxNeGeiH3qgiGE96Bv9RPe+3/qI3XT76QDX/m4yXhcgvDOT7QM5//0B9X23ra7nN1mzfYfzseNfZtL9a4AaYgAwTQh9shqriqeHpn/ndo36ZCJ941q1V/so71edse/YdbedVfns2tXjZev46bKrvFkmT79Wjh95tRKH+/Y9AFAx1MfK5QDqlTVb01pjqDH/Juno503VAODpHWvg3RHD+fLO1dV4dgVUN60Znz8406Hpz3S8zm/AxigY57UcjIWRGAy/yKz+SsDqYGb19wIKjZ0AxQZ8DBfwYM23BswZ+FRkNei1cyGMk0GfDmv8KED80bkM3Lzn+w5G2A/vAVWym+mXYqgfBzQNkFePXyo/PQroLzVmmgF8OXJr2UCZmswkE5lMMiajdZlkyBvxKoBcrAASmSLbqXNXypkAhoEGXDAvOsdett26qtybwYqlfingtSMgW9sZkt01GIxNb5fLL9692FhZwB5T7HoziA1KgEhv5Lo1jPMWsqXvyD2nt+gsMs3qbQACVEdrgOSxu6fKo7GJLwXMtA1Qf34s5w54LJehkhmjPhlW+lbYJKZ/+OTlciys9IO8ZyLgOZgM9Q/5V0cvm9aNZ2IfL7sy0QCz3WGmd0Q3a6Nj4Px2QPnnA/upk0r6jH7rpJpe0s+NHTY9rI8+ujc1NtaY6/mcF8ifZjt5nEkfXwyL7OOCLPR3O1CPR/NYdLE3DBxj15ZjGFC/++r5AOqluX6Ovn0KprGbCvR5bvYTb2Ct9psN8QIxY/ZD1+SgN/KZzMiycd1E2VxOl83nD5fp44fK24cPBGRjN48+Wsb+OUC9fQCoA5e/MtR66px1dNxUDVSASccxPIxtzwIXGBM1uPpRDaPZUH9rRc+M+MMY76Gwk388cqHsj7v2TgYH4CETsMQkuEmbM6i4xlwvr4UdgE1ErsBgIAJAg5XLC5RP5TUXvw6MIQm17bEUoN4a0Lmcv7//8ZVyICD6UuT6+dsXytun5gDLeRk9sNoUsNqWAX5bZNuSAYa1z8nWwgvcwQ8Cpu9FNvKdzMOg7azDhKQtkxnQeOpuTHWybMm1rs0AGz6AprZeCxOjtwNhz/QmBOG6tEVvXHbybB3obdO6gUcx0BtgvhDmA8gAGhd5od4AG2ZYATWu9pfjzgPiqwNqXPLq8k/UEBF59LXJ7kQYqPCJkM6bp+LiR6dYaQNAV4nNNflNmvr6DmAaZlwfmybLbXH9gQ7dCRkcSh/945GL5WAArIaJotduP62Pmh7oYlt0ob/oGikgW2XNAS2TinDDiTNs6Er5sNsPgM81JzpTJ/K7A+hf2TlVmTJvYkv0Op6GgF1nqPMANd/voQRy9YNswF2/NPtJGG3QR2SjBx83IbNtNqSvkAN6WTv9YSknD5UPj75aDh8KoE6tLo898UQZ+91/962ZS7c/XqbDUC9PbSkzqwYu/whQu+5v2rPu1ckGzpoAAdB6MOzoG3un6sAWTwQOc2Zw7Ux0KeEbKDTA+kmAAWM5W5lBO5tQgrjZHRsnatzq7rBlzMSAWBOZMLvYXDU6AMg9PxWAfjdgyu07kgH7Vh6A9VIGjNmeYfuC10sBqsGqLW38Q+QCqG/lNXaJmWpiIudn/DsjE7nE8wCPuPK6jDzsop4q8nElseVTARSykYuLi5mdyuAFkBGnguDagIj2HrtrdXk4bBAb2pI2tdUPk4ZJiFw/C1MUezyTtgEMzTW9hdUFnMU/74r+tg/pDdhqDkgAVUCgL4CBPjgauY4B6AzeMhNXN9f1xD2rExsNyAfYgOPVXP4vJWzx1QGg6ief1/ZbaRcj1Sfc+5O59srW83egRgf6h3tPt9sj/+6c757o4648sMFbox9tBtvKych8MHrAkn8WD0K7QjGYqXYwxy2Z5Mi/O2xyZ/RwOz2ECU4ldKX/6ZUtCHeYfOlWGIUejgTsj6XND3OeHkIyyQPmPZn0Hsrk8ngmGf1l0jOpv1djqFz+IYY6kIfSjbU+YQDSu2I3vn8P+xn0Efvxmdrn0Qn7OR/7ZZPCPK4NEE+fOVmOv3mwHHn9QDl44ECZCkN97PEA6r/490OAunpLuTIC1D52bvqzAaiTGTO3cFdYkQHxtd1ThWtl8DGiG3k4FwDEVH6SmNcv4jq+EpeN68gVYkjiVgaVZM2eyHRfHndlgG3Ne9xWcjG6fmgToHwco8OCjgYQXk9MDXs7mkEBVM9fmv30VQHVQMPW9icE8YPDYYBhPqfyO+BzACyDAZjeH/dc8kUySwJnfQaxUEQdDIPTAS6DAsM4kcEJsIQRXg8YvBmgBiyXMhjrtUfXWNT9iRHqhyfChLRNJgfgobcfhzHT24GA6vsfzQE91mPAc4/FZLHcnQEULApzXkxvwB4DqnpL24AJ6HN/nfX29RORxXW2Cc37V0tKPRygeSYhgh0BMP3ywblMcAEoD8xUDBr7AxCuxyyAdZG9gmDkNxlggs7p+m8b6BYT1CbWBqABuySQUJG4KR3WUEf6aGvAlA6AqXYk+9jULekj8e6BSuskZAzQg3js++mPBv7TlfUC1dPpN/1PXDLelrb00bOZaPZl0tsaxgiYPwlQnazaT4iC69p3++rIlwkjfdTtRxx1of1cyol5WianNFHb+PjUyfLawf3l1Tz2799fJidXl8cff7yM/cv/8MdhqI9VhnppcgSoBs6ncegYhuTQgduTCHkkM+6jeXwlgxkbZHTDnVs/fJ0/2ow7E5Y2Xf729fN1QLwTNvBRjJZRindtjIHeE0MjC5a2Iwa3OczCoOvMokHMnDCMvbPBMzF+oGqwAVWJLsBlwLUJJAw1httjqF9Nlh8jZOQSAK8G7CQXfhyGigEaTAa/mBfWvDcZeWDaKgMmGpBGbrKl2XlH03OT7WLaPhWAUdEAVHsSBcCcD6g5uOp3BKwxoOf3rKmgKOvvEEuTvAP0L+Xajs3qbW6g7gqAfCUxvpbcaozsanrDUnufABQAiFFibLjsxugduzOZAROZ7B+91ZJSwjQLY6hCFl8OAIspY3zHEi/F9o8FSIUWzgSQgUNlpbkmOtPn9DrL+CsAxkUPkG6IPlqypgENJkhO+vvB4XM1hkwGIRSHUMFwkq/HOsUoe+yfTQ93k2/y0moi0gSTtkx8FawzofaJD1NtSSHkY6I8vSvMPXbTyEepuvlFTUotZKjGUZPfhHfvtomyL3p6MIDK5kzEWC5dGHPDR7cf9l0noPyRDB+cPFFePbC/HMhjHqD+qz8IoG5/rFy6dU+5GEC9PDZy+YcVerNew1IAhoEK/huIT8dVkxAxo3Nfb8ZhluViKpH67qHzNXb6UQaaOBor35gA/V05/wMxtifi+mIY3DSu3nIOBsj4MC6DrrrGbzWXEGhhg/5ha8OAamDsiHEbTC1GGHcyLNBgrWAadQiL3LVpvALWQ2Eosr1bAwSY08KBsJSsrl/s+PAHl8pP4qpimUcCOFxL5wF+vIV9af8b964pD0UPGJDDNUnefT8T0YE8CxnQm4y1hN3d0duD+R5mi/n0kM1Ssgy/T2eAFWhjoRI+LGBN0s7AEbMyWUgizgPUAUMGtndmIuDGOreYI2Dm3gNTXkJPFjkv8ABw4pnA9M6AdnXx832sGmNbrHwM09fuS0nIff+1Blwm4wp2EbC65ErQooev3DkVlzrtpN+AsoN91KO/GJhVty568DBx8E5eznl+eexS4r2DkEL+CNCw6MfDxE0ebAcovp/+eWkAqGK6/XoBOHujQ/qR4FOCBexNVCupkjlx4kQFUmDqsXr1gKH+6//4JzPTAdSLAdTz45vL9AhQe5ff1OcKqDGOhF4qI8S4DGBZ5i2pM12YDLlRwqjr5FJhgD8IMHDNzwXEamY3A0wSQq3hI2HJwERsiTEOxsOyxDBWuJTY1sGUr/zdGw2AjmdgK8txiIP2sqmvYaiDzLpEx99ErhcDduo6T2WQ0JWMOeazL/qprl4YBqAT81rIeOoJlvgRnKrhCQmqlwOKmOYvE/oQt8S+tAW4uavPRi4TnGoL18Rtxpr+4Y0L1X12LVg3EDbAv0RvYbaYj1rJhS7+EiLVt7XvOoF6wqp1svUHk8VwOxgnl1/ZFIZaQw7sKDIIhQB2D20BUeDcsuZh+d4ctIlJbgmQ1qRTQEYssTHhlnQ0gXLf83/eYTJ+PROQKoO/D1N/M4yd3rRMBuV+YtAmPKEigOUa6NXRJBh6MXh/wWlqiIYLDxj/8c0LNflVPYnYlTbkGx6IrnlRT2YCE06QYDOBi6EOA6rzSq6yn/tiN0+nDI3n1eynybbw/L5ztWNJQP03/6kB6oUA6tlVm8ulMmKoV1Pkjfob1zfjoJaD7IxBAzAuplpDiSgM4mYcWNZ+7m5m/R/FUBVhY41OB7Qw0mcSw5UEkezBTldycGXF2g6nfYD6ywzACpBhda59FlBj4AAVeKttBHT/K3WE3PF3w0owVsPQYoZdYT70pLAcmzLoV6onLFWm2wCsAJkwA3eY2wnA9MkTyfabXB6KjKQAwIDkp8lqiw0Dkl7LuieyPRMPg97uDtvjqt/Io2ohP94eACr9dECtk2E6UEIJqKmprAmvsEksDejzhhxqdqcyCYmL7to6XvUo1lvDOpmgsNLFgNR3NQHkXooeAPpP37xYFwM4Pz3wtIQNhDwAVivAb0nVwennAFWDQ0e3dsDrtUlF2EMf8SRM/B/k3BKnrsWksSvnaEm4NbUCBVmw2GExQMXCd+fzj4TRPnVXFiZEzu7mD4mx7JdLAuo3/8u3Zy6HoZ5bv7t8NLa5XBwA6vzc8rLPM/rgMjTQY6csR+ZT7NTAFTu9M78Pz+jLaO6aPiKL+rOAwot5/OKogu7pMh1gWJ3M62YJmTDA53evqXWw3D5Z95UcBpAJg4vak18vB8QlRbiHBjZ3U+0nQBX72xzQBBj/J4Aq6XMy5TPnMqjETpW2PBz90NMTGbAA4Hr01Bh0SrPCgL5/WOjjYjkR3YjXAhRVA4/kPBjQ4zumqgpcByDBaN8Ny+eim/y2RrYH4kJ+PdUZDwyuY7khkuXqFhzS6aKAmj+EZ9W4tInR2KV7kwMwddRAS97TzxtMTpmQAJ+kDl2q3uCWu/YOau2b7Wfvz7ejo58kKQfQX0p/KpWaycl66EqZGHZvcmyuvnNXAWpD9XVrct7PWSur8jfboV+MWAxYhcbps8m4B2kBONtRicAmEBFJr7P5m1DMQkB1Pfrz0QDpl/P5L4XZylGwH/paybEkoP7b//rtmek7Aqi37CmnZjaXC2WqrpQaAepK1PzJ32FQAJXhGoySP08PGOGesKKbFTvtkh0NoClHAgwH4varfQRwXEB1mBjgN2KgGEbNyGaQXc9xPKzi5YDWz99OgX6SKRjxMLPrgOp84mCSWX/1apIdkU1232clsLiSj4cxPhpweyTupITJ9RwGK1C10ulvEwu0uOFYZKu1hhlostQPhG0CHVlzSY2/j96UCO0P2AMSTMnAlsQyUP/JfdFbwORmeBjNbhYHVPYE8Mjo6L/XX+pbfrTPdEAFek/luqw+UtqFUft6a6F+c96PqKsCtHAR+8HUDwW8THrAmpnoJ4sshBKUFrXY5LUjSZdBuyY4oKo+WmiKPQiLiIduyWIMK7e+sXdNLe3iEYnbV0CNbD2GCjTFTp+JXVvGaxJRedHPM+9Cl/nLkoD6B//9T2cuB1DPrNtdTlzZXM5dmUow/HKd5ZbZ9uhj16ABhm8gVoPojDAdfX8yjxjazYqddhGV5Hw/McAXwzJeS7mLQnfgIgt7T1w/jOzrkUdirDGW/s2VPRsMMuNitlxrbON8XDOD95acE6A+H2bnfFjdW8mcf/fQuerOKpeR9ZeFViv4VFxqwCU2Z0BczwEgDEylRN8Ts40+3gy4nk7c0Uir2eCADUDF2Mn7g8gPUA8GfJUJpYmawJLEU2z+O4mBu47rYc5LXZNzsZ3FGOosgHZAdXE52q8ALb+3tyqT5PKL+dY4uZjvNuEWALg0YwtW1dgzF/z/RQ88iMMBL3Haeq78kCwCqrXONM8Ay2NFx+CLPXRkWbM6ZL8bP0IbkocPZHL97XvXVvtgx2qM/0oMNYB6Pt4Nhs4bkvR9Pv3Dvq8nlNWvZUlA/c9/9GczVwKoHwdQ35veVM5cHgFqV9qNfq42PTDsjQGE3WKCYUHPpJ5OAfXNYDYLr8GAUC6Fob4e5qicCUMlj4JpDPDrccGVoiwVS1vY5tV+F6t8I+eUzPn7DETLEyVzjJcOqFxlMVEDWh3m36T6gOsme2wgrwkAKJNpMcpWe3ojmDyAkmj63uvnKlDSB4Ag26awLPp4LECJsQMnE9FPkxA6lDid1Va6kt7UDwPe38nABqg343Cu5QBqVFjZIiY6hSLmd0wNs9PP2tGvm8RQI2svszJhqUowqQ1wed5ldGAbjokrZ5Io6kdnyM6Z/xXEnW/FR20k3x400nTQYsIm2Q3RPYbdAdUEadHFPEDNl8TExbi/cd/aOiGrqR7ehGcl8i0JqP/tf/zZzNjOx8pHAdS3L2wqH003l99uU7MKWskZR9+Zp4FuDOKBkgY9GyqLLO5mSd/NYDbzhMgvDVDPNUA93pZhDgMqpvX8YGHBjQJU5wSomM3hAKoVOsbKLWEYsq5fj8sGUGP3dYUMQMUwPkqVQAPUlJUFtCqgKnLPhiE3AlDpBkB877X5gOp9SYzFANXqqFcroDZXtydHPktAxdiALZ1ibrdGr2Ki4pkOCyU+yMRJn2pQASaWiuFZBWXhgNj53ugV8wfKC0EVoCrlMgFJMmKoR7LySrlZPbkTDb6EMdcjT4NX7fcV/HRNw4f2XO/aVGK4vgfDsH9779q68IR8B4dcfgyVKBaq2DPiGwnJSGIpC7tpgPpHf/znM1P3PF4Z6pvnNpZTF1eHWkfrkWQEqMNdeX2vdSxDwELNrPemg58NcCmTEiC3kubTOJrL3xjqaylp4roC1OryRyYuEUCdc/kXmvS1SdnKbC4lRpnylwAqlx9DNWgNfGVQXx8wO4AKfL+HoQa0TgcAhl3+34rLb0DcCJdffygjqi5/Yqg/G7j8GJcr3hwGd29ksxGHpAes+LvKUOPyR7a6MijfVyN6d9hzd/lVaZg0FwLStWntVz8NSMi8mMsvSeN83G0Az523UsqzwwYmtuZTy+n6JKs45D4vVmyhBKZnchdPFcsGzMNHZ6j6p7r8mSBbWdsAUPPxShZixhihJNX8FoZbW/7r2TYGL+gBSov5b7diKnI/nViwFW6Whg4npTqgqj6YB6gZb/bIuJ5jSYb6P7/95zMb9z6ZLP+ecujshnL83GS5cPFSuZJBBlBvtGFcz0V8Ub/bY1yMoTKasK2Hwwp+S/lGBuBiBdQ361qtQJFcqUmpAIMt58Se7NIkuaKOUpBfcsV7Bsf1HD0p9YuEGH6iwD8MhwuKpVuRZQkhlw0QeQ8Dsp+l8pcPh5JSynF6UurhG5SUstxRUup7klJhXDUplRAFuwc09yfhgXnabMR7s0mpgImkFBdT8qUnpX5nKCmF3d/Ig+0sBajksDWghBDPx6qzvek/daUOfc4VVrqm3EtdqonKNVkQgI2zQ5OphI3wU09S1QbyI6eodmKNvaQUfR0ahIzYt8vFBOlDUkpCUwjnevGja7Fe/0AYbQJEE8busGoyq0Y5mQnYnqySUnab6oDaGOpE+e24/J2h3jRA/ZM/fWFmx4NPlQvZHOXAxxvK22cmysdnL6U28fJgpu2X1FU7er4WDXQwZQQ61h6nX8ogBVxWeCgvgVnXa3jLlUnZ1E8zGHr5j52SAKpEAlZ2f+pBn08MFWNR+LzSJJnBbxBa5vnTsL+63VzKbJRpWfePqW/JtT8UViT2CAAqoIbB/u8AqhDByXxXlhfzUV72cAa8QW9TDJtuXE+IpK8YUzb1fxNTVtPZyqbajkL9fLLCCsfRrauVTbVscyubUjP7aZVNqdKQrJHkVL4lhPJkJmogow6UXZnU7I5V478JuVh9JmsOiAGheKSt8fS9fn8oD/rV99bdO/Tn8B4QyqZUYtRqh7SDkWqnlk0FnJW51X0f8j4wvCbfP6dsZ/XFdmiDDK7Hg0eHlUqm3R679Z4a5l7YPweomWxiaxjqpwKof/bnL8zc/+jT5fLmPeWl0xvKG6fHy/EPLwbdL9fgtVlsdKxMAxVM81UumZhVdSNj8E8nCSVuahWS7eo+TRXXwv6AiDKmHyrsD2NRh6owW/KnrhCKy98L+1daoM5FBJwYp+w4RvNGWJL15AYy9quOEGP4p/vW1rXvsfvyej4PUAH+ewF78VaHfTkV9vt83zH+epJ4kmVHwtwsVVR9oHD8THbD5w5zhWuZVlb8AHCM2KGgvRf2c58legCJ0ilJDyEc7FBhv1DAjTw6oCx0+XvZGxnIbA+CZ7Lw4d5ktYVx5KUwcctF96ffMX8PS1ItBe6git1aSWSHLNfsDgY7sr8ExtkRAKDVDUjyff3z0zBV4QT23etQhRoe3ZF4bAX0eF9hqr5XH8tAVeeCOf2cdOjaHZ7b3xMrTh9pG+ibTFwjQFVN0rfvawz1UwbUF154Yeaxp54pq7beW1766NZy6NR4eev4hQSwp2sZBHYwOq5dAzofoHYDsCxQYgWTeTIDVenGp+nq9yuwFBGQWB/dl54qlgaA3FRulA2uMeiVLD1t19125rHlniTB36VwXmwLm+Fu0ovQh9jjo4MsupgtMlRjqHHBDVhlTGJ+Ys8A2IBvuww1BiaB4jYmTHS5VpqxX4EewFiXj9EIR9jO72LYsLamci5JMivGxBVVPDiBBBbmLBZ8OLJZdKAsp3oeWbNewTd6eyBlSCtdeupaa0E+RebgvQzXcy5cerpwcxRF620/1MnGMDWQw36japDVabozg922TmQfAP3hnPre9oWYKVDGVCvLDajawYsMDjHxQymDs9LuH9KvMv1W2jmqHmI/fa1821NWsrX1T/3U4LrqFxb7UcUdq0CvrhTg+wocAqJNF3TSYsC17XxnsQ2mPxNA/YvvvDDzzLPPlbXb7y37z2woB06uKgeOnUtZyPTsTDFiqYv1/NLvMYDYaAUOBmBJoMLitjHuZN3B6LaAwY3Ioi8txeJ/6SuEXsnKoLo5Ss2mt40zgEkFuoCJ+r7HA6zXujkKwOIa1n1DM9ic52eJndo1SjIKa2VPNoR+MGwTCP1Wkgo7EwoxlurmH6n1BKhWVmFgnQEB1apHa8Uz4A3YulY8gyv/l3VgMm1zlLak0TaBdb/VLMk1eIFCS5a1gnHnqYsI0j7XGQgLEahC+DDfqSCck5swLdKgt8dyTWJ72D0WvZyj6i0/hCIkV+yM5Zp8X5KobUs4VnePGl7LvxBQTYQdUMUVewyc3m28YvtBG5u4bm6xvQDq8tQBqG7I5jgWeEiaCnfYvtH1m/wdZBPGMRHZHEUctcVkA8r5iNV22Prc5ihto2sx3noYHFc5+CMRNctO2VCWmloZld9tEqOyoybMcqI+dtis4/MDqH/xwszzX32ubNpxXzlyaWMAdbz85M2z2ZosiSlXl2MEqE0Py/lZ7aUbTTrbpgzicfelcF9sCwgwUMmAz+KQ0Z9dIZT6Sy7Su3Hb3HqCU6V2cWNNUrRt4KxgsjQROBicJoiFsUuTB6MXi1W6YkciiRBr3zFTty9Rt+ncbEkGeWcYnd2CuPAPJvxhbbnDIMJqVQX8OGvmAfGFutwQg07BfQYsd1J29+E8uJhcPzHL4UHWtUs2AF9DEJEPmNp9qd4LKqCt6mB2v9V89pZsV7c9bdbt+3avra6v9rVnW0LJnb59X932MO1h3DZUqevFA6qWx+pny4i5/ovpLaeqky69AXJASm+2FwTc5/I7Vub72gEmrvH96PGHKd0Sw+S6LxdQ+/l4DeqCbR4ifIFhKqmy0TVdkdUtQZRTKfxXpypheFtCLv5mb1A61Ef0YMnu8cp0G1j0TUj0kXt02a9WSaAkUL2nVq7JRNGBUJ87Lz2wnzahtP1hsXEeFYD1fZOumOliC2A+P4Aahvq1AOodu/aVMxObysG4/P/31bPltfcvtpkrejIIhhVACaPjVzWQfodJsy6U4mrBfrO1HYjswHMnFyoDAzB9FgfDNYDrRskZmJZc7g94GagmUMa+OsLJ1NqOjiuOrRjUahsrWxqAF5AxGACW+kYMSKZVnE85EjA9mqywXYDs5l5jyfnuhgxOE8yzWYG0sGzMhhi2bhPvM2DtViXbL97HBuuO8gFfgGxPS645nbpdCUYmudaBlX4ryAOryDYHpjaYzm1AIqOFDRganQAwuxjt295itbbhUwQOSHpb3Oa6sXLYc9tgujHbyiZzfvsf9A2m3amU3kxGnWWSzXX0fsBEASm9YecmIjrjopu4xNntxCXsYCKudz21H2rA8JX022KAutRdT9mnuK+2j2QSFb7AVC22cPsRLNbheusm3jLo6Ser03YHYIE6UDRpyvb/MHLYrauV37XQDFdcH/V47O7owJJqpYEmB300vAKvgakNppv9iPG755XYvp37TQDs0m1H7g3zFdttZXPtJoFV4Pz43ADqdwDqc8+VXffuK2O3bKlJqb8+eLbu4m7rNMbG0EYstXfd4s/VFJs9toEfw6mMZRDkN9Or8VNQbEB9lgcj7rEwA0I5EybY7yaKj9l5ypZo3D+gigluC8gC1b6/ZQWGIEPITWW9AEtiQK2rhxIp7McgNih8XkhhRwaYgmz1gxhMd+PoxKDGoMUrlecogzmKRQ6SWRXw6Tay2REKk5IEUi2h7T5gJdlcp/bOREAF6HaDd7tjYG+7vsrMBkAvEVVDCmKhCSlILokhCimQW5fpXqGMduuPhDKyuYxrlDhzHp8BJlh0LenJtWH3gJBsmC4waXrrsjWgpzfr5AFqvUdV2tQPJo4noyfyAFUucN+x/1pu0hfR6lGBPIpxHZZpmrgk5lyHpb5CIvQm0dM3Gq+F/9GFLf70v/nF918J6dI/2LL7U7GfPjH1jabtcWvSs3mJvWtNLrV6QCM5eh+ZjNlPvYVObEd5lz7CUMlsgq+1sgH3VuXRQkS1kfz4/ABqklLPPfdsuXff/eXWjVvKsXMT5W9qXV4ywDE8SgaojhGoVjX8yg8DbZiZisO5oZ116lzTR8JO7QzOzTegPg9Hj6VyYX8Y4MIm7QTVbzZnXTa2J/sLvJTDKFPxevbeQrkUrjTGYps9GfzjAS3JJ6zURiON/TV3XVmNjYzV4NrgV3wSEA7fEqMzN+Bnm8G6wbABm8FlcwyMkwq1JQMt+39bNskQMpCk4hpyjQGqZAuAsMM8poOFc6cBqev0NwDgqLsXBfxa2VFc9gAIN1efDfdYZeG5NiGDH4ehYdDvBASHb27IA5FhN6FirPSG8c3KRm85Ld3Um9NFb1Yz0R0S4xbe/kYyE9mTqYMVa6YvwH09gKpNIMa1BmCqMNy1VEwYYx+euNixPQ0AogUYbhJYC/+jY+EbGX9Jrh8lNHMoLFe/i5M7xtNJQBkrBYaYv7g5lkvXbItmqb/1kZv0sR83KxzSwwDg6dJtrOnh2V1rMokqlZrrm88NoMryA9R9+/aVLVu2llPTq2dvAlZ3TK9JgaqjEaA2Ncz7yUCr5WeQ8OIxFOukrY12fx8sR0bfLUQq0xkenfNa+nR/AYSyqOKJ/TbAr4WtAJ1+szUSqQ0FXtbdi125nS8g63eGNCC622ryxSg899uWaIPr2jY0DtsNY1cs32OzQGYxlUh+9Pveq5/korf73gcEoZF2A/oG7foMUrfqaCywJYKAbg1FVJe67VZUwSrgWmXL+yCLi+r6DHZxv8qC4mJjlpiUvw8fPYQgMSPOy2WmNwxTWALQODDeKlvk2lT1BkjahFrB3kQUsBDiAGync+ttE1DXvbgsImNBg01hJDQB6sV0XN2xfzGXP4zYfp9LufzD16HfxEPdXVY8dH/YphCCiQvj5lU46MBk2vuNPVsw4H2TMkb9YsIf+3MHCPFoK8gu5P5hdaKK6oQPjAkTTJ1U8tyIRcvcdzt0Tl4E+3Ebcm13XYqd1w2lEzITn7ZLluWjywFUk6qYvb7ta/l9l92ZWNiIqgpy+CydLxXrHdbfkiulAOqzzz5b7geoW7eWi2NTc5tZJIZ1OAym1as1hgoURkfTAKN3ME4Dr+4qz/jSeWJPki0Gps7rrl775mf/k+jkxpCAQ11JE6aiHEjmV5KqszcG3YHHdQDZGgvMZdAAY2T8BiGQrjsDaTz/AYtyHIk5xfvinjWWHBfwamVjgMugAqqvBLAU4MtKY9GYai3ViS2m+Tposakam84b5GWmTTYDs00e5MPwyOsDgL4nUawUkiGXTOpJOH9faO/0ZhCejgwmI26zWKQwAoaG+c7prQ1OA7rpbaFsLcZb9TYkm3PQsfXq2OHTYWStLni8uvxil6ogagw156R7NnZXZAeoPct/Nf3SjfPIpotbqv/VJsbJfa/3GEsfAH96tbO/O/IiCUrJeBYOk4HwjvuACR2Ie9rSz0RRwzz5jP4ArJaA0gVb8p6DDExFv1xMOGPOftrffW9dQNitb8Ry2Y7wGY9EH/ejM1ST3HfnrZSaX4eqjXYfqVUVQDF1fVkBPII4n7BcDx11Oft5+vMnAiqGujWAOja5pt4OWBZQ/aAZWBav7hA0sK6FRtZP8pvyzBjraM0PugAuBib3zt0ibTYMPO7JTL4pGdPFBubnRVcMWFJERlU8jSvrHkuYC9aARUkmMfze7/25XcNgv8v8vU8w0MqWaUCk359e/O3+2yeil8Ti4q6JpbXY/NKacM52y5YM+MjkPljcUiyIW0x24OhzRhe5hgdZb7n+Pb/0z+kvAxtTwnzu3gzs1Y/OTYBA5GqHcwslVL0FhFQyHPkgbntkU0bU9NbMpO8IulBv2id615szdvARamFPypaUr5FPDBuA9bKpumF3ElkVUPN52y+qmqgMNXY4HKt0rsUO7Iys70Ru+jXe3cW0TlwBxR4b5nLvjX4Akk1qLE8FjPTg9uGYqpIy/ST+2UHVZAFYaxfpnyihadY7c4e+6f1ET/Sgj25dI6TTdsayD654ft37IqDX2mltsGHJTElWgCqEoU5YmzwQ4Te3GKIfE6Y8AE9HH76b7304sHXhIjXENVeQ7wHYxY5lA+rqNWurEgXI3XpAWc2BlEacyAAzsBxVKYufZ7Fz/1q9RwN1ADRV1LrFeqfMdBK3AsPxkJ2VhFh4W+PPmzJ0KTbI3WyJEayrJZWsphFT4yIbWK67Gz53uR3NEBqYtZIY8TNgZWs7ehD+EPaomeoYa09CzQeYxTVjwGJRYqoSVW/k5npcSwNeiVFzkRtrrAOSjJqaFa+xzIz9CrjdFbc8FOvCfICVbL6BJD5sEPW8weJSNVZFbxh+1VtYnX1fZb8llbiv9IYdcyU9uny1zQ4s5Mo/TBArrXqLbHaYrzqLG39vQEQcFkCKtbrjgkSQhwUJ+ka4A+C5r9XTd6+pt/gQcvikahIy5eu1vtRiB4z7xayic6fa9zLJsguAqD7VwhQu99eyWYy+7GDj/ICeN4GtAlVZehUI9ACw6WHWfmr/DDpogCN0wB7anqpND+LjTQ+Tlam3SofGHvu5e/9gmO5HJslqg3I5Abe0cX1itnVXswAqL4RNro1i2JbkmsUkx8PSVYJg9fTOFkz6AHaxY9mAunbt2mqLEgzYiiJgMSysxf1c6ozlHN0gFjvbr+l7dUDQTq6/spwMPFugbd8QdpBO4IroDGU8XLA+iL8I6tCvEi61bCWAYKNnk6qYKvcPqDFAbAiQGGT9MAgwihoWiAEa+G6zsS3JItlu9+/BCmS7rcG+Fr3QuUdlIDF65V4SKXZPwgYNWIOpDdo52fIV3VTPpa/ExTAebrR4ntpI8UlJFnfm5EI2F9lVLT6I/GXh0fUmmfIWvUUuYHI8BAT7wZLIJkQhFJD/dXxV2RbqzSQUe8KaJaPY0o4MfnozOdOb8ioxT+41F50etG2CcKdWLrG7jYoTAp2lXNalrkPJ2y+TuZdsE+7r++WKnVu44JYjqjN4HMPJRLbherFEkwo9WJ5LL8Ig+ghbZT9CJvRQh1KuCZC2Pmphm5qHiB7sB0AP2LA9MCyGMRkvZj90/GHOI2RRF14kJowMOOi07u6W0IlQnD0qeE+SqQCVPZFbNQhXX+UJFny1u/1eE6ASwuzatl5rd1l0f/W349JIONSjKsK88ut/dJfMwK6dn84w63GDBOjdg333lrCdvFYPWV2t9LrPflEOBm7AiykZGCfTz+9ntRxDOyH7nN+9LzZWB0Y+6zuYnMEga+u6TSQyuT27XbO7NcPd2DrQvVa90DvX3gDACI9nEABT8mElw7JVYB3IxpPC0LjvVbZBgkgplAw+1qe/NoSV+rvryP9rOuig6014AhHBWAHJieisyhamZEJqsjWmRm90UUMPVW+t9pNs29Y3Ruo1ffaln/TWk3W8CO4tQNWuxJeEmmSfQnwVD9cSaurXgWmatHgDtfIj1wILZOuFsdQPW1q7LXqjq96Xvm+ibeVPgEr/5FHtJ95E2p0F1vSjUEMH1D7ZuYMtD0ElCfDcFmJioltMDws7SXtsF5BbWotpW2UXsWo/A0nhCp6IyUlfd2YthwDrLG7ASC0gYL9kofvFjmsGVAbshGIrL4mtZNZSyPxuZrAWwO3z+LUPkMUE/Dy+ZyC3Q/aPO9IG5/rEdWQ+1dhhpgwYA6try9MhBvIX9egDQx8DCIDA2Dz7HVOswBDb6BMMNxpomd1l21UDANWa3Y5RXi05cq166owQsHa5Fsome11ly3RfqxQGrjRQEBvbnP7jzvVC8+biX6sk8z8/rDeg5OE22oBEBr8CanRG/q435216a1UKVbaqt/weIK0Tcz4zbE2dCbYKiFRlBLBMcIBXAssEL9ZK5yuxQ31r4jTuX08IQ/uy9kBIrBnYYG9LberTcaMC68B+TkQPPYPfvIk2QRpexpU+AmTNflJmNdABG3Jdi+lhvvbnQjCIgAShSQGgO3gjGC7GvzVt0rshaiJkz+zIRGXCxlwxWGBaz0vARY5rBlSdzkicyIzb7sXt/tiJX8W1kQX2GUftuJx38VO3z3yRfg4zUnJjE5NhYL30hxvL5dmVlSSAtM+gSonMfF/kQ5fqV8aWCbsOVjO/gVAHQ4yuuW2Nael7l8xIXT8jxDQMEOwrL1fE/JbSIZvssnF1yWbwYlEGBMDK/1nQarK1BJkBa0ctslXWF3k7Y77eXltaby0kobRsTra2BDcqG+itDV7yAdir6c31awcQAA/ZbSDGQ+gAJHbat91bSo9LvT/bfvRpQnAe8U99C/ABHDmxysVGfMcNbr1qD31iMQLbqX2U/iKvPqotRAddD/qk2U/6ie1cg/10/bOH03H9Tbjivw4JY3KbpLTbhyhZTb6+U/smHxe+Wlv7oNlG/2xtaOjHNQNq/64TUoYEhZURSldqwDqZf/EhM2ZdIzJQEFS9XuPs5/40nym3H7KyZjDKBRQ6QdxtS2oVJTJk8rkOtjfjnlxtJuttflGf6YXxc+cYHdfKoPP+oOfrhMrwuNfVjY3O/E6HN/MgA1m6XGQka5Ot2WHtx4Fs+pKM1+IKr1T+premrz5YyVp110ZM1VtEqjojF/mWo7fWdsvOdzYuVgqMTWAmuetVvUmrTVBNZnJqn5xzMn7yWVyvfmE3w3rI29HCXB91PZB/uXpYrG/a+dq5YJNDeyaA4Ziv97udtKRh+90VGff9Gpe6whUDKgHNNlbCoNAyYsprZFrV4dlezY47OqAekWChECtxPVpjN+dnZ6DDrVOug+xj0aZ1+ILjkitcAJlBywBtbyYDiA1wg7AJA1QH/LoedGOup7fezV1frrkDZzXCaLAb46ehjypb5NN95GvPc2eeJ5t+GpJ37lM351WVLU1XuWZlnDsX2aq95YXna9Gbttvk0a5ZW32i0Nb1Hk2v85NovK8m7/Jb7/3R2+u/z2shjWqXJ9ie52xq3ueW8Utvn50CSod2u261P3zUT+RH+2T7S/1Mfiz87PD3VgyovZHOVC2PE1upJSwB1V4aoXylzkCEy4UMrmXw9SHRBi+H3umnuKHPswqafTHc/Nyb5Khua0ZaZwlmYiuDrOwQf9keJnpHHtx7v4sTcguqAdzsCxkWe/R6pIGRBj4XGrhuQO1MVRxEeYKaNasiFPRiqr2ERfC9U3vAOnv0l1cDVNNsjuViVG9y7hxz78y+mn0x+FQaH25/1q0P21wv1jJIXMjy1dsrhI3enqyr+JGSjRrbifvQ2cDsuUcvRhoYaeA3RgNXBdTnsttUW8u/pahDvdoBWLFVm0FIVskGAlQAq/ZOxlW96vkETQCrgLYYSl0tke8uxLdOZWsc9monXupvA3SsT7Xx/Ki/DMPmnDsFCGUVsdGene61iVY1ydRLMtkZR0lNzVYnKyxO2uNHS4kyen+kgZEGfjM0AFAPHDhQ9u/fXx+Tk1nR9vjjZew73/nOzFe/+tUKqJs3by5r1qy5qkZgFuIJLJVY1H0mA6DqAd8/k+eEBJQh1DKJQaatFoWH2daERoJxw7GuHh6oWDhomwD9d6/n/5Lfg5WzcFlfD4Lw9XVLKPXAPNLr9aw7H2AU+5T5s8mHzJ/ifAx0SwB1cx6b4tIrOxEfVUYhmC3oX9uqAo1+jDQw0sBvsgYA6sGDByuYvvLKK2UWUPvmKPfdd1/ZtGnTJwLqQiUKjJ/Pj48vlrDTVtMFUHuNIGBVwiDGWktHatnEoHQizLWVUAyC35hs2gOmQNuzH/V56MQd2BpYzg86i2sCv/ZoQCrzrASDu27PS0tFa01i3PtejyguqsB7/eqUWSgLSRujY6SBkQZGGlhMAydPnqyA2kF19ers04qhfvvb35558skny969e0tnqPNin4u1lvcqQ6w/WllFK4toqxU+DniqAVMIrkjYa7WCvRZNHFZJA4aL6Qoh1NrGsNcKsAuBdQhRG4iGkebcMnfKLYbBs5VIYJZtqaEEk7o8SSQ1iGokMVTxUuzUJglrc1PLXnKCyWpT+/20w6HgJdQxenukgZEGfkM0wOMFqIcOHZp98OwroP7hH/7hzEMPPVR27txZNmzYUCCt45NANXhTUXXec94CiJgosLSUy71xzmWlheJZcdVe3Ot3oOrR46yelV9pY46ptrKQjm7Vlc9JgWl7NEZaY6J5Q3yUm14fKX3CSgGqeyWtyfuAcxhkO5BaBTV7DFjxCFBnNTJ6MdLASAMDDcCg06dPlyNHjpSjR4+WY8eOlfXr1xfEdOyb3/zmzPbt28vGjRuruz8xMfGJYLqYZiuwDv5QwTC0LlhZgdHvgBKLrQXig+fORuvnBiBqR6u8rC6/5gZwOksXK6D6Q07onH6fA1e7uXeXf87dr0mo+v7wZwPIAVGbgOVPv3J0MP2VP4zeGGlgpIHfeA2cP3++nDp1qgLr2bNny7Zt28pTTz1Vxn7v935vZt26dZWZAtNVA6r2SQx1MY12XAJQHex8rr+fxaoVKBvgBmzzt9mkVBAMiM3GTn1xcHRw6+309z33c/XXiGZ9Lz8Ardez7w0kAdL9XL7XXfp+Hu+NjpEGRhoYaWAxDSBx09PTBah69vudd95ZnnjiiTL2rW99awaIVuaXP3i+EcdyW6nQtgDJFvx6VXHmidu/WE/eJLiaHP3jVz3B6I8jDYw0MNLAkAYaCYwHfvlyNlIfL1NTUxVQH3744TL2l3/5lzNXUiS6EkY6dI5lvezgNg8EB98cwsBltbXoh4KQwyA5Yp6Lamn05kgDIw1cpwY6XiqXUrvvbid33313GUvaP38bhqHrPNMKv97BdoVfn/3aZ38ls6KMXow0MNLAr6kGOmZiqEKlsvwSU2OJA1QM6h/4Nb3+0WWNNDDSwEgDN1wDQqRCpv3x/wGVmHIsFLtIMwAAAABJRU5ErkJggg==;" vertex="1" parent="WIyWlLk6GJQsqaUBKTNV-1">
          <mxGeometry width="340" height="96" as="geometry" />
        </mxCell>
        <mxCell id="bLt_DuCS9akk9Niv8NfP-4" value="" style="shape=image;verticalLabelPosition=bottom;labelBackgroundColor=default;verticalAlign=top;aspect=fixed;imageAspect=0;image=data:image/png,iVBORw0KGgoAAAANSUhEUgAAAKYAAACACAYAAACBfRJcAAAKqmlDQ1BJQ0MgUHJvZmlsZQAASImVlwdUU9kWhs+96SGhJURASuhNegsgJYQWQEE6iEpIAoQSYiA0OzKowFhQEcGKDlXBUSky2BDFNiioYB+QQUEZBws2VN4FFmFm3nrvrbfX2ut8+bPPPvucdc9d+wJAlueIRMmwPAApwnRxkLc7PSIyio4bBhBAAyLQBTQON03EDAz0B4jNjn+3D71INGJ3TKdy/fv//9UUePw0LgBQIMKxvDRuCsKnEX/JFYnTAUAdQnSdzHTRFHcgTBUjBSJ8f4rjZ3h0imOnGQ2mY0KCWAhTAcCTOBxxPAAkOqLTM7jxSB6SG8IWQp5AiLAIYZeUlFQewicQNkRiEI00lZ8R+5c88X/LGSvNyeHES3lmL9OG9xCkiZI52f/ncfxvS0mWzK6hjzgpQewThIyKyJndT0r1k7IwdnHALAt40/HTnCDxCZ1lbhorapZ5HA8/6dzkxf6zHCfwYkvzpLNDZpmf5hk8y+LUIOlacWIWc5Y54rl1JUmhUj2Bz5bmz0kICZ/lDEHY4llOSwr2m4thSXWxJEhaP1/o7T63rpd07ylpf9mvgC2dm54Q4iPdO2eufr6QOZczLUJaG4/v4TkXEyqNF6W7S9cSJQdK4/nJ3lI9LSNYOjcdeSDn5gZKzzCR4xs4y4AFUkEy4mJAB/7ILw8A0vlZ6VMbYaWKssWC+IR0OhO5YXw6W8g1W0C3srCyAWDqvs48Du9o0/cQol2f03IzAHA2mpycbJvT/B0AON0CAHFkTjNEniVZTQCubuZKxBkz2vRdwiBvATlABSpAA+gAQ2AKrIAdcAJuwBP4ggAQAiLBcsAFCSAFqTwTrAYbQD4oBNvBblAGDoIjoBocBydBM2gDF8EVcAPcBvfAI9APhsArMAY+gAkIgnAQGaJAKpAmpAeZQFYQA3KBPCF/KAiKhGKgeEgISaDV0EaoECqGyqDDUA30M3QGughdg7qhB9AANAK9hb7AKJgEU2F1WB82hxkwE/aDQ+BlcDy8Es6B8+CtcClcAR+Dm+CL8A34HtwPv4LHUQAlg6KhtFCmKAaKhQpARaHiUGLUWlQBqgRVgapHtaI6UXdQ/ahR1Gc0Fk1B09GmaCe0DzoUzUWvRK9FF6HL0NXoJnQH+g56AD2G/o4hY9QwJhhHDBsTgYnHZGLyMSWYSkwj5jLmHmYI8wGLxdKwBlh7rA82EpuIXYUtwu7HNmAvYLuxg9hxHA6ngjPBOeMCcBxcOi4ftxd3DHce14Mbwn3Cy+A18VZ4L3wUXojPxZfga/Hn8D34F/gJgjxBj+BICCDwCNmEbYSjhFbCLcIQYYKoQDQgOhNDiInEDcRSYj3xMvEx8Z2MjIy2jIPMEhmBzHqZUpkTMldlBmQ+kxRJxiQWKZokIW0lVZEukB6Q3pHJZH2yGzmKnE7eSq4hXyI/JX+SpciaybJlebLrZMtlm2R7ZF/LEeT05Jhyy+Vy5ErkTsndkhuVJ8jry7PkOfJr5cvlz8j3yY8rUBQsFQIUUhSKFGoVrikMK+IU9RU9FXmKeYpHFC8pDlJQFB0Ki8KlbKQcpVymDFGxVAMqm5pILaQep3ZRx5QUlWyUwpSylMqVzir101A0fRqblkzbRjtJ66V9mac+jzmPP2/LvPp5PfM+Ks9XdlPmKxcoNyjfU/6iQlfxVElS2aHSrPJEFa1qrLpENVP1gOpl1dH51PlO87nzC+afnP9QDVYzVgtSW6V2RO2m2ri6hrq3ukh9r/ol9VENmoabRqLGLo1zGiOaFE0XTYHmLs3zmi/pSnQmPZleSu+gj2mpafloSbQOa3VpTWgbaIdq52o3aD/RIeowdOJ0dum064zpauou0l2tW6f7UI+gx9BL0Nuj16n3Ud9AP1x/k36z/rCBsgHbIMegzuCxIdnQ1XClYYXhXSOsEcMoyWi/0W1j2NjWOMG43PiWCWxiZyIw2W/SvQCzwGGBcEHFgj5TkinTNMO0znTAjGbmb5Zr1mz22lzXPMp8h3mn+XcLW4tki6MWjywVLX0tcy1bLd9aGVtxrcqt7lqTrb2s11m3WL+xMbHh2xywuW9LsV1ku8m23fabnb2d2K7ebsRe1z7Gfp99H4PKCGQUMa46YBzcHdY5tDl8drRzTHc86fink6lTklOt0/BCg4X8hUcXDjprO3OcDzv3u9BdYlwOufS7arlyXCtcn7npuPHcKt1eMI2YicxjzNfuFu5i90b3jyxH1hrWBQ+Uh7dHgUeXp6JnqGeZ51Mvba94rzqvMW9b71XeF3wwPn4+O3z62OpsLruGPeZr77vGt8OP5BfsV+b3zN/YX+zfughe5Lto56LHi/UWCxc3B4AAdsDOgCeBBoErA39Zgl0SuKR8yfMgy6DVQZ3BlOAVwbXBH0LcQ7aFPAo1DJWEtofJhUWH1YR9DPcILw7vjzCPWBNxI1I1UhDZEoWLCouqjBpf6rl099KhaNvo/OjeZQbLspZdW666PHn52RVyKzgrTsVgYsJjamO+cgI4FZzxWHbsvtgxLou7h/uK58bbxRvhO/OL+S/inOOK44bjneN3xo8kuCaUJIwKWIIywZtEn8SDiR+TApKqkiaTw5MbUvApMSlnhIrCJGFHqkZqVmq3yESUL+pf6bhy98oxsZ+4Mg1KW5bWkk5FGqObEkPJD5KBDJeM8oxPmWGZp7IUsoRZN7ONs7dkv8jxyvlpFXoVd1X7aq3VG1YPrGGuObwWWhu7tn2dzrq8dUPrvddXbyBuSNrwa65FbnHu+43hG1vz1PPW5w3+4P1DXb5svji/b5PTpoOb0ZsFm7u2WG/Zu+V7Aa/geqFFYUnh1yJu0fUfLX8s/XFya9zWrm122w5sx24Xbu/d4bqjulihOKd4cOeinU276LsKdr3fvWL3tRKbkoN7iHske/pL/Utb9uru3b73a1lC2b1y9/KGfWr7tuz7uJ+3v+eA24H6g+oHCw9+OSQ4dP+w9+GmCv2KkiPYIxlHnh8NO9r5E+OnmkrVysLKb1XCqv7qoOqOGvuamlq12m11cJ2kbuRY9LHbxz2Ot9Sb1h9uoDUUngAnJCde/hzzc+9Jv5Ptpxin6k/rnd7XSGksaIKaspvGmhOa+1siW7rP+J5pb3VqbfzF7JeqNq228rNKZ7edI57LOzd5Puf8+AXRhdGL8RcH21e0P7oUcelux5KOrst+l69e8bpyqZPZef6q89W2a47XzlxnXG++YXej6abtzcZfbX9t7LLrarplf6vltsPt1u6F3ed6XHsu3vG4c+Uu++6Ne4vvdfeG9t7vi+7rv8+7P/wg+cGbhxkPJx6tf4x5XPBE/knJU7WnFb8Z/dbQb9d/dsBj4Oaz4GePBrmDr35P+/3rUN5z8vOSF5ovaoathttGvEZuv1z6cuiV6NXEaP4fCn/se234+vSfbn/eHIsYG3ojfjP5tuidyruq9zbv28cDx59+SPkw8bHgk8qn6s+Mz51fwr+8mMj8ivta+s3oW+t3v++PJ1MmJ0UcMWe6FUAhDsfFAfC2CgByJACU20j/sHSmn542aOYbYJrAf+KZnnva7ACoR4aptoh1AYATiOsjTnYDYKolCnEDsLW11Gd73+k+fcqwyBfLoWm9h5a1HvzDZnr4v9T9zxFMZbUB/xz/BejbBZQKP7TIAAAAimVYSWZNTQAqAAAACAAEARoABQAAAAEAAAA+ARsABQAAAAEAAABGASgAAwAAAAEAAgAAh2kABAAAAAEAAABOAAAAAAAAAJAAAAABAAAAkAAAAAEAA5KGAAcAAAASAAAAeKACAAQAAAABAAAApqADAAQAAAABAAAAgAAAAABBU0NJSQAAAFNjcmVlbnNob3SXmDCsAAAACXBIWXMAABYlAAAWJQFJUiTwAAAB1mlUWHRYTUw6Y29tLmFkb2JlLnhtcAAAAAAAPHg6eG1wbWV0YSB4bWxuczp4PSJhZG9iZTpuczptZXRhLyIgeDp4bXB0az0iWE1QIENvcmUgNi4wLjAiPgogICA8cmRmOlJERiB4bWxuczpyZGY9Imh0dHA6Ly93d3cudzMub3JnLzE5OTkvMDIvMjItcmRmLXN5bnRheC1ucyMiPgogICAgICA8cmRmOkRlc2NyaXB0aW9uIHJkZjphYm91dD0iIgogICAgICAgICAgICB4bWxuczpleGlmPSJodHRwOi8vbnMuYWRvYmUuY29tL2V4aWYvMS4wLyI+CiAgICAgICAgIDxleGlmOlBpeGVsWURpbWVuc2lvbj4xMjg8L2V4aWY6UGl4ZWxZRGltZW5zaW9uPgogICAgICAgICA8ZXhpZjpQaXhlbFhEaW1lbnNpb24+MTY2PC9leGlmOlBpeGVsWERpbWVuc2lvbj4KICAgICAgICAgPGV4aWY6VXNlckNvbW1lbnQ+U2NyZWVuc2hvdDwvZXhpZjpVc2VyQ29tbWVudD4KICAgICAgPC9yZGY6RGVzY3JpcHRpb24+CiAgIDwvcmRmOlJERj4KPC94OnhtcG1ldGE+ClyliWkAAAAcaURPVAAAAAIAAAAAAAAAQAAAACgAAABAAAAAQAAAGzP2zCMjAAAa/0lEQVR4AezdCZMc5X3H8Wd2V/d9oBuBLgQSWMYigI0xwXFsJ5WqvBC/Fr+T2E4lVbFxyolJ2Y6NHQQIhITQfSBA933tbn6fp7dhUFZCir3SjJgujWZ3tqe7p/vbv//5PNMZb5YyOjparl+/Xh83b96sv5fBMjgD9+kMDA8Pl5GRkTJ9+vT66IyNjUGzAnn58uVy5cqV+nNeL51O5z4d1mA3X+UzgL+hoaEK5KxZs8rs2bNLBZNaXr16tZw7d65cunSpgtmuDM4WUK/1wnLP98vEYffG0ffCGXywx9DNE6ZaEaSWc+bMKQsWLCidQDkOTGp55syZCiZT7s3Tpk0rJLbd0IP9OM3eq4bnv3vR8gpk/huA2QtX8PNjACX2bty4UfzMlANz0aJFXwTz9OnT1ZRbCZRWQjEwPbz+oJZuIIfq8Xx+JO1x1cOr0DreBl5HHGclx96A+QA/wucH/BX/qWXJdRPXsNLg9DpTvnjx4v8LJpNuhZkzZ5b58+fXZ/a/FxZwjuUxmv/ax82x3HX5PU8VPkAOewx1ysiw5+aRX+9JZXvh8z7sx8CE4+38+fP1Gai4uy2YzDcHdOHChXVFoPbKcn20lIvXxvMo5UKeL18v5drN8XIzcFJDAE4LkDOndcrs6Z0yd0Yp82bkTpxWykgg9ffB0htnAIjAPHv2bHUlmfXbgnnt2rXqVwKTrSetDxJMsFFDQF6+Pl7OXR0vpy6Ol9OXSzl7ZbxcmgCTarZgUsqZI50yJ1AunNUpS+Z0ysLZnTI/v4N1+oSS9sbl+eoeBTBlgcQ2YhxgzpgxY3LF7AaTYrZgPig4AUcRgXj07Hg5dnasfHRuvJwMnBeulnL15hfNuMtMFJnwmVHJ+TM7ZencUlYu6JRHFw2VFfM7ZXEgpaCD5cGdAVC2YHYr5m3BJK2tKe9WzPsNJpUE5aWoJIUE5b6T4+V4wDxzOXfajQA51thlEHY8cp7ztrzewppIL+o4K2Z9SeBcGzDXLu7U5yVzGnPPvA+W+38GusHsVszbmvJeAfNGTPeVG+Plo/PjZfeJsbLv0/Fy6HR8y5jy6SOlzI0SUr55MycAC4DABPSN0cb3PB9Tfy6q6tmyIGb90UWdsnXlUFm3tFOWz+ODNnDXFQb/3bcz0HdgQoivKMA5ESip5M6jY+XImbEa8ICSOV6eh2e+I0UU8CCTWgLzUoIjyvrxBSo7Xs7GFbiW18G5aVmnPLFsqD6WBc6Bz3nfePxsR30HJsUTYfMj3zk2Wt4/ETg/SVohvuQjgYjibXxkqPqMC6Kas6c3UThzbgF2DZay/qXAfepS/NJs63DUluoCfl7et25Jp/zVY0NlQ7a1aOBz1nN3P//rOzCvBagLMdcfBqLfHxjN81hMcVI+MdlbYoKBBE5QgrBND1HSGYnEKac8ZoUzCilAOhk4D56K8h4bq4Cez/YXJ1LfvnaobhOk4JQVGxj2+4Nn34F5Lv4gX/K942PlDwfGquItTqCyfulQ+UZAWrVgKBF3E/x8EjMtYgckE01RF0z4nC2c1Nc6n2bdvYGdv/putn09NwA/E+zPPTZc1ixsoB7kOQdgfuEMUD++Jb/yraOjVd12HfdqKVtXd8rTAejpVUn8x3TzG6WNDkQFBUMz4mMKhFYHLj4j9ZNYnx5gRd2UkFm37fcD5u/2NSmnGUkZUeBXNg1Xv1MgxN8cLFN/BvpGMZle6aEDp8bKrz8YLbsC0MkLjV/5yqahGkmLoi8kqNkRcCnfgQRGTDWYKOby5CrBuTamfkV+XhpzDTb+p6BIlH8wavyHuAi747vyYx+Z2ymvbg70q4cGUfrU8/jZHvoGzJs1PVTK7o/Hymu7RhONpx80H4Oiff/J4bJ5eer3qdocTXQO3HfiLx47mwR78pnUUUWHmjL7qwLn6oVD1TwvDXj+rkRJPT9NTtR73zrSPED9csD/+qPxX+MuUNvBMvVnoG/AlDCX3uFb/vL90Wp2qdmWlZ3ynZjax5cMVVABC9z3Phor55ICkkCXNhL0nI963kzAw4QLbiTTBUr8R/6nKtBVqhkX4K2koF7fMxr/s5Rn47sC82sTqjn1l2Wwh74BU0MG0ypy/s89gS5B0MbkG58JLC88PlzTQ0z9nqSO/u29xpQLYNTCn1wRNY2/eCLvP32pyYHyK+U4QftYAAW2Z9AqZ9rPa9mOm2FT1Phra4bK8xNBkPcOlqk9A30DpoYM/qVk+m8TnFCybRMq9syqodS7OzW/uSemHph7k0aSL6KIL60friVHwIHzyJnxImI/lzQT8y0Zv3nFUHlx3XD1IzWDCIJ+ke0IiNTRReff3jBc4RWZD+AcgFnPgEQ42N4JmNJEIvTn1zXmdfPyxvdTpqSYPw9Q8ptSQpLt339quAIqP6mE+WHW2fuJ5yZqV77csqpT/m7rSE07jSbS+iDrAFMNnl/Jh31l43BSSNJRg/a4qcVSBubzJo6erpVLglNDgckfAybFenF9A+amwMcsd4O5L2BSNqXFv986XNZnHf6l7exPtM5XffNwkxay3lNRzH/8+nB9zq8V7Nfiy6oIqQQ9Ebfhr+PLypfyWwf5zKlFs2/ApJhUDJhvBExLq5jgo2qTgUkxf7AlwVH8R+a/BRPk72ZbzPu0SCs/9B+eGan5Stumqr9IEHUkiqmK9EQUE5jr4osOwHSGpnbpGzAFIRLmTPnv9mWAUth8Nj6m4Ec3EB/zVjCpqoDmOzHBInipoGMBjWIer4FQhoVmHUl3ivntjUNldSpHInM+5s8DpoDL30X/L8fHFCR5z8DHHIBZzwD/EFSi5dc/0Ek0XgMWYKppi66VFz+IEgKKusp9gmpb1tGtfuJ8UxVSflSGnB6lbNNGG1J+BKeEu5tAWZJi6vVUmrSfFxP9r0kwBcr8GyxTeAb6RjHlMZlzwPwywIiqRctPJyJXMqSMqkOAFJXvSh6z6c3s1IS6POaZ5DWlkPy8cFYS7TWHmebgPKsaNe5A020kj/mr98fqcI1tSRXJAHw9z26AAZRTSOTEpu8E5pIlSyYfJfkgOtiZad3q7380XpXsUFJHatn8y++l8qOHkq94+HSASuUHwB+faxLq85LL1F2ko131RzJ9daB+LF1DqkDLYuYpJRMNftWltwMmX9Zr39rQJNjty/igwTL1Z6BvwKSGTLM00K9SkeEDandbFcC++2TjZ4KGKv7psMqP/sqxWisHo1o5P7QZ25PnKJ/1a4d7kurMs6G+cpy/D5AqR4fi02r+UCtX9bEvEfpgmfoz0DdgOhVyl/KKfzjYdBftT5uais72NPRujUlXywaYFI9kvJ5Nwyasw0zzD9XIQbl4dlM/F2HbrgYOvuUHyW3+bj8ox2rTyNrFQ+XVJ4YStQ9VuGdGeQfL1J+B24Fp8GNPmfL2VJwOPDrNmeo3DjalSZ1C8ow1CEpUrVNICVOVB3CCnPnxKQVCSpQaNrqHSwiaROx745/yTZlx49F1IgmIXkwiH6Dd72mPZ/A8NWfgTmAuXbq0d3zM9uMDps1pVmWLOmZ6peo3ClLWJ4J+ZG4girJJ+1BDwY7uIvlIr+elGiiprQNXc4euJOabCkslzYn5Vx+XigKndNMgRdRehal/vhVM48vbCQ96Esym47zURuC3kzrak75JfZcGmOm31DG0KUFK9Qcn2t2mpYQoMAKoRcmxTpCQSF+C/VACJtvgk4KU6X8sCmnMj6CKbzonYA+W+3cG7gRmT5pyp4YKaurQnqY2vvNYRjumBp4KevUDjdFpu9WpJNBGhNdZWiivJMIHoW53kbxmDYHTjCgqs63SI+ARvbe9mnUDg//uyxm4E5hfOnfRg5zwQHlRntIIR+kd1ZyjiaillIzx0fy7KFH3gviW+iwFLUyxtJPuoYuBEtwie8l7y9yMBxIcbYnpllSXs/TeiO3AjN8XHD/fyWRgmmTLTBxmgPnC/JimIeyVCQ+ophQSuNSzDyaK1jEk4DGhFv9xepSSTwlKZpxoep9y5rWYcRBnOpx0CwmKSo3aH4/acgVAyXy35r89Ze1+7dvD74C37fbxl/ZFs4u6H5+p7jO/Z3ef7fdhvHFuB6bpL+uMwnE4P5u4tZfABAooqq8YwAREUkkmL1DfFr1fBl+ic5MbyIGCzMC0WQlsRNhAqsMtkkqSQuKfivCllkA5WXsbOJQz7fdGVBsotmPbTH57A/yl4GyhrENLsl+K7xiAaV8+h8/kWL32sCyTgek1i2kve1Yxuy+A41WyBKO0D9X0fDqwMvX7o6TMNXCM+ZHPXJKAxsRZfFARt1QSlWT6BUoutMW2E1fVUubVgCEroE5/pWsWOYrLNxXJAxr4/Np2FGazpXv7H3wgtE/jlqg7S2BiB1kI4EuD+Qz6AGQd/MyNmeyGure9P/i1bwWTpfaa2axF6H0BptPoQlIxKSLwABGYRjv+14fpRA+gGoKZagl5bXBzUoYEEqBc1MkUTxbANgVGmow1gLgB+Lf83FYxgaisqVK0fH7KnoEd/LNzM/x/1BOMEv7a9ARm9qlY4AbsVkyKrxfV/lS1llD7HAc17edlMjBN3GZ24U8//bR/wGwvAoUDiwt4NhdT/+a/vDNafVBg6kR/9YlmVKXAxrxGrcJ0A2QbAJCoB6PcpokWNI94jY9qX/lXTahtgEHpk/LWYcKB3xBhana3oNR0WG6EU7kRzMeko4prciZQuhGY9HZpzXmt/wdM2QRZBENFHId9cjP6cbkdmL6g4tChQ/0HposAmOp7BiC5zp/uyBigpJUM7wWmpg/9lS4eMF27bihtozaN5P2AfH8i6j+WqJ85HR5WTWoUVuDRqjXzbjtMqzzq5jQfr0//plGYboJb92E/ty58YiksqbD30g8g02C0J2BnRh25DPKyPiNfF6yO1edYFiBZhK3JKnBXfD7r9+MyGZheE+d8+OGH/QmmC1GDhSgPxfynN5umj+GQIQ30SmrfBrC1TRndwFBAF938SEyoerttqAxRYfnQRfFT5ye1xHQbzAYa7gPTKw11JcD4WxPhp8k4oDCz/D/rT7ZQaIBRZ7lZ7XuyDLY5kgMEu97RZgaR5hhVrUzoYOQnQKk2N0IroOEmgjklWKrZ/Rkn23+vvdYNZjtxqy8IOHXqVNm3b1//gukiS6JrLP7pW9rgEknnQgpyvhEfs46wzAVk9rovXGvC+ZM7M5vcrvioe6OYfD7rroz6GXmpM2l2/EqgNq5D49MKttTyDS8GIjiefxwoTQWJWZ9sARa/eH/GxRtsZ3pF26CEAOca8CN1QwnOgmYNyKTLjqe9j7Iy/f7yaPb5ZAbomcuJWrcB0WT77dXXusFkvi9cuFD9S2AeP3784QDzZ2/rRkpQFDNJyTakzLglUD6XC6fBmArVlEuualW/AKxm/pv9cQEC5ZkoEiC2phJk5o81UT8BR5tyAqakvZSVtrk9UToKeyrvWxTF2r62aWg2/ojqTbaAEtS70pyiB4BaO641Sfg/nbmZHKc0FrApo31ey3Ga19NNpJtKryq/mvl+PJ1WL21QUs14qByD4KyflhZM0bhvrTBSEpSeKWjfROW3nvRuxfxnYEYxrwRMplRFaG1UyHAJtfBWAUXl12OGpZo0dPzH7gaQRWmRM8ryuSitwWgV5KghpdXJZMJXph+YYBRBq7+/l5uBS7EhamlfL2TcOgWbbBFU7QyUFN70NFJU/GANJFrudNgrFkhN2YLj9EUIbeWq9Uspp/Is//KFdEUx6xSXSe+npRtManny5Mly7Nix+u189QvQejnBfqcT3Q0mxaQm6uTUhuosDGyS6aDUx8kHdDGvhwgBj/a3337Y+JVbM+bcBVY7XzH/83HlLvXlqJZxQdI6wLRf/iDQdMCfuhh/NLlR3e/NVDYN0KC2hL+qfqLvPx4aq5OBHUn0L5/6UgbRgdPUivKt3mN9Dc1nU0o1ox0wLUD1DR0U++2AbXkm3VE6pIx5AnY/LS2YvowCmB9//HHZv39//bl+6Vk/g8m8UqCfxcfU+U4RpVaYZZfJhZS/rM3DAVOaJ41yFUxRsRyoHKfRk2bi4GPODdTg8H6Qg5G6ak4WqIi+qaNvW9uRceteFzTxbV+Ir2k4Rw2CJvKMFFcGgdL9KWCCDVZ8U6M7qR2Xkl+ptEpJL+RzAdCIUbOJgJjPCz7dUq/vHasm3b4cy0sZ3WlcUz8t3WBevHix+pW7d+8ufu7pWvmXnWTKBUwR9c+SLuKD8e+M96GOTKz6umiawjF1Li4oRMbMObWz7t9uabrj7ZMPyrcDp8DHehqLPzrXmN81+eaLl+PbMbte3/tx01zC73sqcK9Y0KR2dM5baqopgQ+f0nyfqkqL8w0azLcpaXx7BvU1iM6N1ahlA2YN6PI6/3N93AWRuKKCwXhKs0vzWZ+O2n9vczNRQ7PH/vj/VjCPHj1a3n333fp9P8uXL+9vH7OCGTh+EjBFrCJqwYtUEbUz6QETKmHuwvPe5AalYPzumwj5h6aYoXht5Uck7O/g0jp3MJE00LkG5kB6Pr4oX9ZNYcYPboQb4JF5UevcAIIm+7cIYryXSf4oxyIpvj5+r0BLcGY92zkZOO3PDSdQUonymjFIZqJ7MvnZx+L/ArwtKMzPvrbGFfhBjt/n7ifN7AZT8HP48OEKJtO+Zs2a/geTav0kecyjMZGPxrSZefhbmWRLALM/5poJdTGZ4baUKdK9EUCnJcAxZOP7mcmDmgpoVH+YZyABl4JdTtKd4j4VCJ7M9qVqwPbmkczTmf2/FyUUHInkqfO0GsQ0YMqZWlf+85Mch/TQE0nMPx3fcHuAA6655rkWUlbKo+rl3sclEEwpsW6UjqrHOF741NJOoOWj/jDHLyPQT2A6O+BsvxkNmLt27apfdrpu3bqHDMyYPAGMIEQ30fkABUh+mWfqx2xqHGbGJbB1sv8wcx9JxvMn9X3uSHDBVIJGwwb3wIQJhnZoUuYynMz7/ztAAXNf0kdM9hopn5hmZp36AYXPSAXt72BSVPm1+qGm7/5monj+5f9kf2ZIdkNQcyrqRgGjSpbInaKL2K0nb8tNWZh1ng6YFB+Y/biojYvIgblnz54K68aNGx9CMAOPWvnjAQ4UVIhppGj8O+rpSwJcWCVIKvQ3TOHECEwRuyBF5Mzsi+R1uz8RlWROJcGHUmahrr/e20y8YEpuSil32lSA+KcBM9C15UxNJsw+JRbFb8r2Xk7QJRo3NY7gTTB2LjfQrARgEu7b1lD01MfzM/X0GQR7/7qzmdpmRV7ntvi8bph+XAQ7J06cKEeOHKkVHy1vmzdvfrjAVD+maq8mGJCPZA5bxTITnMCGeprusM4Gd6hJL31zQ5MPpJ7GFr2fgEZjBR9WaRIctg1i0bMU0p6s8++ZLe5ATCoARdnm6RRla4ejelBp9t+4B9JFbgj1eLDVG2gCKMe1O9vUYSTdVf3ZuBmUH6jUvaaKotCvfzBa1b8OD8nnNbHt7fKnvQ6rVNHxVHqAefDgwaJR+Kmnnnq4wZzsoigDHp5IxbjATKeZi6WLQC2gYNKpLLWVTlIC5GMyu/zUE3EH5EF/kzyoddWvmVtRNjBF83KSwKzBT/7T5PxmTLYbQtVpdipUEuRmoQOfm4ha2yf3QXsd9dVWJ/cqwW4SCPsV3QO/nZ7bsVPyflwEPqD0EJkbWrF169avHphyjvxNvpovGRDsMLtynSo/wKoBTCh0qUXYfqeKuotE7gAxDumDmF6w8heZ1K+tHq65Uut6b7uAU7WIuWaKJeblWB+P36qkKIAxjY33DGd/zDY/lTpLrDtevi+wKa6bSc7121F6UALYd7L349K2uQGTchpW8cwzz3z1wGTORb7t16owyUp8YBBo6E4y35H6s9dAixjvARdzCkzBkSEdhv4aBiyHKd94u9KgDnWBFz/yt5lmURprJOAtT4rJe1Wo1MrnRi25AhYpK6krfnGtlee9/ExJfmmub0ZxpYlAKa/aj4va+IEDB6paqv7MnTu3bNu27asHZut38ulqwBHlk+6RuJ4ZIETV/D/AtW1vo3kTlWJOpXzqUOKoIPMJkG+sHa5KCxhKN9kiZdT6iaJ+jSCCL+koUb+omwoaNOeGoLJ8XLV5N4GSqK56x8S3NP03tVyR941EZbkO/bjov9Tmpk6uc33BggXl2WefLZ0MmfxsMJruDglOs72ZQ+ZBDt/9spPcVn6685i3Bj932oaL3s4+LMFtgi3+p+srH6ms2Xb6UFnrq197NvKSMvJNBUYidmBR19sB4obwoLpa3vRjSsyrLKmQq/qYb6kdNgFM/iaFPJP96gPgb7pp1PWlktp+0zt9zl7/W9sYzL/0s3Lk9u3bGzAlOuWTgNkO333YwZTGkQ4Cp+S29I88oqZcwYa/d3uK1W8MtXo0dS8Z4qBzCSgCFRDf6lveCgUw9WXqGhLo6LrnGlBvkToYrdO9AJ0iUlL7MrzCNDl8Uvu82yEd3dvspZ/BuHfv3qqYzDoxfO6550onCjluEFCbge8GE70A9XePXlr+XMVsPwvzKrKWZxStt1Ui/qN9gAUcTLRIGoRSOcCUotEyJ0gRJd/NYnugb+Hka1ZTXeFshlL4u7MNSE0pcqkUmR8q0AElZf2yG+FujudBrdOWJCXXJdaZcmDOnz+/CX5C7LjckbZ2obtnEAKSvX/YwQQBhQSiFJFgg8mmYCJi3UFKk8Dk34FEkCK/SbFE7cC92/uWIFJF0Lsp+K7Mu8T6+RQAmO8WTGrYgsm9EJDJEPCFRe+9JRX3hrhZN0yiJeDZuXNnTReJ0KWL1q5dWzpvvPHGOPhk3K9fTw4jiz+KjshqnRUhZ/1hVcz2dIJBcl06CaDylaJi7W0NmIEiIALDMyDvFsZ2H7c+g7RVfvtTmWLqK5ihjs+qbU/UDVBd+DVLcOuG+vB3UBJBvuWOHTvqyEjCiMPa9vbjH/94nDICcGRkpMyZM6eY1MhUcMuWLauAPsymvL2mVIyZbeEECGiYHIpY+yUDiVQOKO/WdLfbv92zfQqu7ItCm96GSoPePoyYrGkr+8xrf+7NcLvjuN+vtxMbGKobcawpI3EOYHHY+dGPfjROGdl2cPp5xYoVZeXKlWXVqlVl3rx5VS17UTGZwjYq1/a2eqIk+d2JkuTdnGxARigrGHKV7bQzlLMBszHVYFSR0R1EvZjTtosovNzzUn1NUAbIG/nFdDQaiv3ub5YKZvZr3x6tL3svrkOzpd77H5gyQBTz7bffrk0cwKzDKnL3/S8AAAD//wVjz70AACJ9SURBVO3dd3MdZ5Ye8AbAHAAwg5kUKYoUFSxpdvYvu7zeHX+S+RzziVyu2v+2xuVymLWrbM+M4og5ZwIEcwBIAH5+p9HkFUxQpCgPydXt4uW9t/vtN5zznOeEbtwe+O1vfzs3OjrarF27tlm1alWzYcOGZvv27U9fw8PDzcDAQL2at2h7Mts0jx7PNd9cnG3+w59nmvM3Z5utIwPNJzsGm7//YKh5b+PgS8226+f2w6a5eneuuZ7XeF53Hs2l/6aZmWuaoXS1cmnTjKwcaDasHmjG1g40m9YMNOtWDTQrlzWRTV4vNdqzRo8z/4eZ//2ppsa6l/f7U3PN1EzTzOaYPpdk3BVLmmbN8oFm7fKmGc74qzLesqGBmtOz3t69T3Nzc83MzExz69at5vz58834+Hhz9+7drH22Wb58eTPwu9/9bg74gHLZsmWNz5s3b27GxsbqBbBvIzBnorypJ3PNt5dnm//45Uxz9sZcs2FN03y0bbD5zcGhZt+mwRcCZjaA08e9gAEQr9yZay7cnGuu5fOtBwHMdNM8DirTrBkMSpYNBZwBBTAC5rYYwc51AWoAunrZQLM0x19mM+6TgO/+9Fxz82HGikHczjtQPnrSHjMmoAd/1S+jAM51MYrRgHPtCoYScOY4AL+rG3A+ePCguXHjRnP79u3m/v37hbU1a9Y0A7///e/nfFi6dGkheGhoqFm5cmUx6Pr16wuwbyswH0fB31+dbf7x6yfNqYm5YpODWwabf//hUHNg82AxzuAiinMuMFy+PdccSR9nAmyfMdjQ4Fwx0pKcTPGAAsTTAY7vqwKUsQDz4JaBYuYdowPN8Iq27Y+BRB93M+7E/Yx3K+CMETzMPiyJmb3yr7YyngxubMAHyI0B59aRwRhIC06s+i5uQOn18OHD5ubNmwXQx48fFzmuW7euGQiNzq1YsaIaQeyTJ08a4LRvZGSkQPo2ArNjvOPXZ5t/+n6mOXZttoCzZ8NA85tDS5pDAQ2WWRZX2LsBWeTR3I2rvhqWPDnehgMXb83GtQLAQLN+ddwmVgoTUjxgPAiDYtK7Ae6DsN3q9L1340AMYKA5PDZYYcTyJYu7WGMKCzA0Vr6WsY2vL2BclnNXh5Gf9pG23L1whZv3GUOOrGya7QHm5rD2+tcIJXpl8iY+9wKTO3/06FG5cbhDiAMB4xwgTk1NFXI16FhT7Ik930ZgRm8FsLOTc80fTs4038WlX4orFgP+2wODzcdx6WLOtWGy3q1caZR8Nez4zeWZ5siVueZEwC2e3Dzcuuhd69sYElCGwpqAieXG7801l8Jyp8POvq8MmHan7a/3DDbvB6DGXhUwP28Ty04FZPo4HXYWPjzI96UBpfNGAzIxJLeNqQFZKHEvBoFVGcXNuH0EuSGGs3V4sDFP5zGexTzD8+byNuxbCEwuvYsvC5hpYCsqnZiYKGrtgIlS31ZgEi5wYp6vLs1WEvRtEiEK+nzXYMWaH8StbwqzcIOd4sqFh6VOhSn/x+mZAuXtB2K4pvlw62DFpmLH9QELkGAzwBRzAsj5ydm4fu9zzY2443UB0xe7B2q8fUm4xIHPgybgiyWFCyfHZ5vbYewVAfZoXLJ41XgYXrLDGADzSawIUzuvjGI+1LAeyZfxtsSYzPNlY9y3AZSluywQ7npduWToKWMGpXOQyo1PTk4Wpb4rwLRASjsfpvwm4PznE7PNZMCDKT+IK//V7sG428FktANxka1KJB3Y6rsrs81/OTZbwBavyeK/0H6D9nGpkouAEsgYAHBOJ9kSG54JYx5NXPrlhYQPiVX3bRoohv71nqFme+JNcehCcAodgPJiGBeoMTdAmutYwCV+xJTdmGbbsbtxJ2M8F1J5UDVQQZCdA6bxOiNyzruyAeULgRmUzkEqKu0Fpiz9bWdMSsBEsttjAcp/DzDP3JhtgqFS9mc742IDmrHEZCNRvPhRGehcWA+Q/5D2GOnwtgBr+2Dzr3YMxUW2wMKwQGLDXl427hd7fR9g/9fjsxUnAvahxJl/d6AtU1VCkvO785yKbc9mbrL/ifsSl6Y5kMrBjwGr6+NOQocrAbZQ4lyAbePKdwaY+lgYslSDt/i/f/HALCYLa10Mm/w5DCZLPxtGwzY74pIlKFz69jCTGA5zSZS+u5wQIO2Vgf71/sGqf+5eH7ZMTDqd2A7jcbXYT6wna7Z5M6Y48z8fm0lIMFvf94Rp/yFlKsmQRMZ5XLHSkPbc/pmJ2eZGmM/cJC4qCNiy4srMY7ENOKeSuTMqjGuNkibuXNhRIUT6e5e2f/HApAyK48IlFVzst2FD7hrjcXPvhTW7OO5hGFKMB1jn1T5z/DeH2phUjRJTyry9qxnqQ1kJWAFKcVssyC3/txNJnjIe0GFawHw/ZaqlCRsAGXgACkDVK7limb+6JxcOmMBlDOO9aANudVvA/CqxNAZW8MeWh9LPxvTzLm2/CGBSiOL0nbj0CxglbvZ0wMf1AcaqAEkMB2gULE6T5QLJrjCOuqesWgIxlX3iyCUB4I6Axz7AU+ZRsulAJc77X2dnaqwLca0MwBUn5argt0DpPKECwxEC3AxbYlJgNC4QM4znxaQLQcYozJ0r//OFmZqjuWwLMJWr9Kmfd2X7xQCzU1zFcgEKt3nyelszdOnPtiIJDdd6KwAGQCwlcQHM/Yn3BgdasF5PDClO3L0u7BdgiimVh2T02FJBXW3xf59rgSl0wLb/LsBUPsKQWNd52NZWhhNXvDSDct/iQxcBAPpl8ATcIe1nwEzf6qw8wUepJvSBWWJ++/6jfspzZaUuM0ZxsvVLKZwrZGM42a2yz60wF2DaOmDK4tUgn0T74sAQZrlnAJVcYT6M5bIkENxIAvM/U276S9jZFRyu9O/jyvdizMxD9j/ZMWbG4dZl1kCIJcWGgOm8l2VMRtUxJjZmJFz5hxgzZbF3afvFMGanFKDogMElu8rCpQMJFuPCx++17/cepWQTxf5dCvKHU5B3NUXBuzfGHMz33hhTSUeyAiBizGPXAvowIYCIMd9LsgUi3aVHVQPz0aebRFzJkVRhTTHmlq7OmnFetGFroYckT0VBIoSljSu5A/Z3afvFAZNyAKGShbCfZKfu3Alj+TwegCqSq0Vy9UD2672Dzae5K4mCZctAgMW4cep21WZWpz7nmLjVpdD/dCQVgJSAlqSdUOAfDgkJkszkJM31Yx7CDKyrzDMRJhdaiHcBU7XA5c2Fl05rsJ7/gBJLutHkeKoKEiEJ1I6EG1haf+/S9osEZq+CgAKwgKQtVLfKlU3/8Wyy5IB1b8DEHap7KjFhNGDrVXUXw2IqoYEE659PtRn5luH2qtG/2S/5yc0jORGwQRlAnetCwLmwHabF4rJ7gHLd211REhmAXpjAdPPvrhqpBvAAMnnxrPmqCHDr79L2iwdmLzgo+WGYE3sdjwv+w6mZRkYtCeISv8ilTHGfy3zqmbxrB7BypTkXMIDyaFhLH8B0eHtboP90+1C5aBDpzoNOcxBjSoaUe5SquHTu11g7RjF1WzftDMI5Nux8z7kBswsDYltsqVT0flha8uNzd2WrPevt//8XD8yFKupuDOZWlXuOBlxu6HBXj+K4GHFn3KP4TfFdjFmADpCwFmAdmU94hAgSoV/lJg7X2THYYi61izld+VFH7UpH7mLCeECKNQGMoQCmWigXroogXm7LX8KPgYqHJW7GN/e62rRwsW/x9z4wFyin4s9o/UbYC0COzF8FkhwpJ63LbWXutRRrurEjN15VXAmEYjwx4vWAC1hl1Ir3n+9ss/EXMZdYE+vWjSBx6cIBdwvlVoWKMV2fd01/RWJeNVTIFHqoBggf3GX0KN+7xEnyhC0x+/NCgAXLfuu+9oG5iEq4ViBztejrXEnBoAr0wU/Fa0BZwAxjlhsPcwFIZdmzmDGlpjCsIvkHeVVGj2H58edsGJBRyPCNW9WCgFO2LrHCeJhQEqQyoD2W5cq5fd9d6mQ42+P6N8coGAIgv4tbH5iLaK3ujwwD3Ujp6GxiN8CUYXcxHBABi1gRO3oBx6qAh/tUZOdKxabcsBqotovgsmbhfFm9OPd2SlWuQLmUqtykrgp+zh/IuAYzpu9ug3M3kfDCWO5ix5RCDUnQu7j1gfkCrQGfGA44xH7nAkwutrtc2YFRFwCAnbh4JR7ZNFC6swiTvSxAjKlf44pZxY/Gd1EAQ7q6k38tQPOuZCXEEIu6SiSGlYEvz36G8K5ufWD+iObEfu6pdKUGUFqwcLlt9gtEEiBJCUCMhKkw13BcPZbkernvVwEJcHbjyrDFkWqbXLbr8Y7pTzEfK3LxrjipuVaigynfYVBSSR+YPwLM7nCbnAQcYS2gdNOF+K6AGRAApqyZSwWUKr4DZNfBT3jv2NNtdYwDYz7OgLJxf84ilDAORvbu+2Ix7E8Y/o2e0gfmS4q/Awkgij9n8oFb7fwqhhLrAQe3jdFeB5TdtHrHNXYprA62t+AZBxi9fq4xu7Hf5HsfmG9S+v2xF5VAH5iLiqZ/4E1KoA/MNyn9/tiLSqAPzEVF0z/wJiXQB+ablH5/7EUl0AfmoqLpH3iTEugD801Kvz/2ohLoA3NR0fQPvEkJ9IH5JqXfH3tRCfSBuaho+gfepAT6wHyT0u+PvagE+sBcVDT9A29SAv/fgNl1XO9ZoRsaBnJ/WL2726Bn08bW/Qms3zR398yrbl0/3Xm9ffQe693ftV3sveY/P7/uvO59sXNedf9PndurjvO89r3r645b38+9xq7vl33v5rXo72P+1J8h9JuafhZ7Ju8+DwaUS5YsyZ03fpT/2cK7CVT7/Nyhrbfdqy6kMBRMdwZgrG4M744M5laclxV8tw6nDuW2Ievonf/Lzm+xduZUBpn3rt+Xndtifb7KfuvzM5PeO9n4/VPrfJNbp7OfDZidIqemH9ePvPpBd4NY7IoVy+tRGMvyoAHfbY7N5GbHx4+nm4f5GW3CWbVyRf0IfKco7ToBaj+Qvy0Arg4kjhPu1NR0vadB/mBrKH0sLWU79vjxk3o5Z+XK5QV+5/3YNj09ncd43CsDq/nnyR0elPC6imMi1kI+Dx8+qv6XxnCX5afg9N/J58fmt/B4K8+Z6tsx8+yV08L2yOPRo6kiEbJfkr8Ptk7k8CY36/D62YBZirx3v5R5+87d+u12CwSStWtWN8N5/Mrw8NoCqP0dkO8/eFjPdAGq9etGm9X5YVjK6diDAh+kDZANRWhLlyxNH88USLi3bt1uHuW34oG2Hl6QcfRB8ffvP2zu5VeRCXzTpg3pP3+19RLbnTxb5tKlK810xjcv81+Vc4HndTYsySCB/tr16810DHnN6lV5GsiaZqRHPq86BqAx8Jn88RA5WK/n4iwGdL+tX3qK/GzLA8rXGf9V57tY+58NmAYAmnsB5fUJz2W50zIBIAUcy5cva1ZH8Ba9YcP6ZuX8kzDKYsN09+7dayZv3krb/KDA5k0B8Zo6DzAp8P6D+3ney2SxoucN+e33NQF6WXf6v59fPL5y5VqNP5g+nL9ly6YC8J0795qbAe2N/FS3eezds6sZHRmed1/hiYzRGQCB+JPZ7CqmmZy82Rw7frKUvXnTpvyKch7GNT9ux0YvYqTFBF8MHzCOR1anTp8tZhjNU0A2bVzfbN26pebfe24L5LjcyLN1u/NsmLULj2z6fJDHj9y6daeZCtPbTz7AzlB97+ZqndojhJuRO4A65peiGeDKeC1bBxAhGbDPzc2WrLRFEF0+0MotYVv6rXMiQ/MkR/rXvhtbv2Q8OztTum3XE5nr0yvt6UM/r82YFslSJwKe8xcuhp0eNCtiqV5AuDSMacA1q1c3GwNMAnuShWI4oNTe77wvD+i2jkUxEab2QEloQHnm/IVqoz/MBeAjARjA349BnDpztpTiPADas3tn9Xcj4Lp2fby5dPlqhQkff3Swzn0cYHCpXCihRQ6lLMZCMEA8MTHZfP3tX4rZNm3c0AIzc8Oa5rosbXpDE0J/mQ1DYvCLly43331/rLkbGQDEjm1bmwPv72s2rF/3g24eY8Iw/9SUV/4IKJv5YcPWyPN3QQEl475y9Vp5CG6Z8fIQCAE4K0zIWjt93b17vzyVNTvumU7r1uUxOfls6zzao4zp5861I19j10PJ4jnISjtehWejsycVOj0O2PL3SOmLvrsQBeBK92Fp+p/Oy1+AOm49QrkulHhtYALPrTy96uq18ebs+YuZ3JNmLE9QwwLFalG+wQHVvqWJpSjnfgA5mee4UAx3zMXu3LG9GA1YxIYAS9hHT5xq7oSJgWJdHuWyOcwK5BSKMY+G2RiGzb59e/eUAMfHbzRXA8zLV66Wu/z8s49L8dgdGLnQJQkNSrhhGn0NDg7VHLDJn778plhldHSkFMxoVs4D01yKkbIuCvJ6mY3AGcz5i5cy71MF/OH0u2P7tubwhx80WzZtnDeWxKEFyofNnYRGwhkAIBsKZ5RCo4i2jl8fn2jORf53szbAHBlZW4YO6B1zir/J1SPwbkWewIy9gJJutMWYAIR5GRA9eT2ZH7tCpZBCZ6AAKyTowgjfnWueq+a9GzIBPmM9iJEZ+2HWo21HBN164MQ+j+/xACoYYEzGrcep5MtLPRzA5C/HlV69dr1ewHjwwP64po1lYSgfMFtry58QRpBtfHOnIUyTZD0mv2/v7hKOtmJWC8Ys3x89UY9us1DPGBqLqwZOSiQQwLwWwyAQrvy9vbvCZssSWkwU41IAhv3s08N1/Pr1CdNoNocJhQYEZB3jYUksunPn9lLGn/78dblcayogpm+MwfUYZ+vY5gJHx7wvA8wudr189XrWP16KAhjhwqEP9lcYgomfRBniUPEzIGNNsSMFA+ba4TUlK0rkwq+mv7PxLECMdax3W0IDrLkuoFsVIDt3Ogw4GYXfuHGz1sYoGd7GPNxp8+aNtU7u2zz1SQdACRxemI1XWpf+jYFkeKTbaT8XNz3DTccjmhevAvDb4gkBnk5vhsTgBTDlH+V94oEYz/oYBoIajDymXheYt+/cac6euxBmu15CZKmffHy4GI0QCBg9EZbJyawLdFnI9bAZod+JAsRvBeiAjaKABZteTALylyPHSvgmTShc/ua0w5piK8DEivfuPSh3wJVTgjhOjMniMemnn3xYLH7+/KXCEIbm8rghADCWOPZgAELgfwwwGQ9gSsq4RbEwqwdULGcODIYn+LENEzGSk6fOlBE8ecIFPikm1Pd7Mcw2zl5d4/MW5NMyfB49mHHMRXgkNCILYBVLM8wz584XkBjK6Ohwsz3hgTBE3wyw9VYBR9ZKNmJz4wOYdtu3jdW6GLhxz5xtQyguVuaOQIK3mse6gBk5kNPps+dCHAwicW90h4zyMJ7qG6vv3b2r9NuFfGeCl6l4SX1YB2Nfu3Z1AVOYoI/XBqZFnkwQTzBc4frEKZ989GENaPGoWGBMsWWRK1eV6xS3TCQpwV5Ahaq5srEtmwtUwAwwlPNdgHk7rABE3M22rWP1bhEsGzBl0NjXInft2FbJz3jc+52Am4Fs2LCu+fjDg82SAOj06XOFIUAgOOMIBc6cPV+M8GkMi9v545++bm6EXUbygFfx14awCtYwX1tnIJ0LrJ2L/AeUXmLeb/9ytJJEYwsAGCBD6jwBkGDIYwlhGExb2WgZsn3wV+LjtLd+wBQK1fzPnC95YFzzZThYiHsESu4VUQgnxNAIhc4AfmOSr927dubzivIeQjN6nU3cuHvXjjKILqTg8bhe/ZOHdvrh9ezH6Npci1FjxP3v7Sk5c88M/eSps3XezuiJ7LDw6tXtc0rhANu+PjDDACfCANcCMAsmiE8+OlTsCCw3Jm/F3T4s17cvE8RcNXAmDkjcxekz54oFPjp8sGif0AlRJqhfjMkiWdUmj6eOZXueJWFjoKPHTjSXAhauj1AIEmtcD9gw+qMoGbscPvRBWeOJk6cLEO8n2ZClY/BOYIT0xWefBC5zxZiqDNh5k1cAgzVk08CALbfE/QEoo3nRxmUyAG7vq2+SVAWMY2EcDMy4beYInJj84YNHzZdffxfDulshS3mIjI+pZbadWydLCYUqAua6G/ZUTtNXG7OP1Bjkqa158EYTaW8ddyJXDMyV700ItDKMbD7cLb3wdB+FMLha+jIOIwB+ckY6DBrLboo8hAXCHF5KUopi39+3t1y6/EMIcSrE8DjeQiiErRkeQI+OjJZhmCtgv1aMaREWyMJMhkA+/fjDsgCLw3jAZ2BMRImU0cV1jh0/eaYA83GAabLPgJnffwzrAiZ3zyWVywljFttk0YR0JMDERBSP3RiAxQL1RM4HXsBpgTnYnMh4lCQL7gWm/Rj3i88+LaBw5RifZWPyNnQIk4WhAYsCzEdMam4v2swNq1xI0vPVN9+Xewa2Dphi3tH0wRu8v39vjGmq+T9/+qpClf379lS8KL7Gftpi2jLevAObNfIEEhvGtX59Mv0wmnlZq5etY27t6U3iOjS4pNorp2E4MqW38xcuFcHQG7eLMcXtFy5erv52xYBMxPc8Rq/KXYiJe9b2yLGTxYxifrKjV2HJhfTbJWnWbx30ae30oV3Fo6+T/AiOZYOSHyClLBYGCOKUy2EIlsxd/M0Xn0VYW0sZMs42654HZiZ3+NCBAibBDg0tqcVP5JnVgGecNXFdqL9lzOECMyF+f/R4AZjgHT+w/71SDmMxL0LGNIBPCMeSDVPQ/vf2lkCmp6fq/FNhiJUrzPMZMMWtO3ds/QEwj8fFPgXmpgAzCvoxYLbZ+GQp8diJ01X6EU+KpyUEYr0VMQoGcOjg+2VkqgKYeV8Uq8bJS3B1NnGctURIFcNPRvanAzQeAstJOhgURWvXgbOrI9INRqQzx9fn+aDvAWYYEyuS2/kLF2s8wMSEwKbScfHyD4EpNrftiCdTyqN77KocpjQH8BJNoQdmdWGBJ1KKwoxcPEY2PmMVrjDk12JMLCC+lPxwp9D+fhdTZFCZJyYi0L/91ecFKot4lLqcbNJ5AMFyZKUyOOy6bFl71UIGKdYirKGUciRXwM0yuW2C/T6MCqCyOe4EE2IWLIq1L1x6ZvnKQRhY3Ll7V5KfWDflG+dCBMyw/vZvPssMB8JYX9YcNwV8mNGLYCmURfsum8byP+bKAQZTmA8vYK7bwxBAhLXUc81JqAOYNgYpFmdsYmQxLgOzAbREzflARw6n41JdTJAVU/TunTtKTsvjPbp23D4wmAPCoIMWmKMVC5I9NqNT6xxaMtR8ePBA68ozhnGwrT53xZXHwqtMiDF3xBAw4+rItAXm0WfADOD0LWsXN6ujAqTP9CSpO7B/X7NNmBb2LC+QtfzkchFFif90jvq56M1RpAxamehWjqF6yc/nid2whPKD8gyrvXZtIhZ4pYDJYjAGd0wB3LG4UbYpWFdgtoCxsbaOOTI8Uv1gMMKSFYqV9iWm4ZJZN+AXMAPiTxJiUML3R47XedpiqWnziTKAGzNw5Yjoy6++rTkSNGEJUwT71goMXI+Slf3dFZNCzXP+UxflOsfjAWSy1rdtbKzWyBtgkJsBif1iMknapcjFRQhz5nGM4118aX1tRtsasFAH8PVvLZhP0d4aV69ZVS5aP8Ym0+vjE6mlXq5kCfty1ZiNSwVesSDguuIEcAzdGJgfu+sTQQCQJEqSVElpDAgzMsSjceWYb1cMZGP2Iyfyc0zYR5+AiZ0ZGUJhrMMhH0D3DNOfDEwTA86bN28XAO/cvVtKpVjKe5xFqllxLYdieaMZFDtgCWADTucSmkRiY1gIQyg6o3TMVLFiBD6ZREpCJGBuE4+APAsVShjXZS3j7ErMZ6HAWkX2LBygMZFxjif5MSYgV501Vs+gCAoTi0XN/8hRIUIK9/nMEwCFKxoYh6Fx4eYBlBjpRVsBM8kAdwhUwzE+Riqmq8uDxRzXa37KPLwBb1S1zMgKCxof4MxlTYCxIe4XC/kuix9P/IcJzVmoUkyLbfMCFl6pbadN+1K4TwRajLh925a6gLHc2NGReNgcgNIm8RtMuc+YylHcLrkhJPNTdSH/latWFOtiXCDfNl/vVQbCkhMBvf4LO+mTIZmfMp8+GadS2mu5chMmBGADAoDrLmHRLiBwwWIdMQ+ruXf/XrEs4BB8WzxO0XotZhpuM7sAkyLUw9rLZwFyGG36cVgzgtKfOhrwEzLw++xqjgwa4zivmCjjKPbuDmAVx1ULuCTWTDjmCKAACPRcoLljoJu5OqVdllhujQslYK5SIseAqnaXPl60AaRYTAhDsUorWAqo3JHFsMbDYuYj3qtYMoMCBrmq1wJWexNL2DLjbkiCw0AYBYCQpfkCpjk7hukZWwvM3NiSCgl5MUwuW/iQZZdxSZisf83qNdUfoGNJ+QCAYU/xv3mTP3Z1jAfBhAr51sbwHgSAEluXKfW7Knq3WQcyUnXgUdui/Gyd13rLteVFXjv5AQbAJJiHidVQPWsAIMqkSGxFMIroQMDygLEus0UpFgwIyj8WpS3wceUt67a3aLEsbheICGg4Vz/0B5QEpC1F19WD7Oe2urGAR3zqXArBUmplkoElS7vCcHvzQ5vIpHAdsJintRG80ghwYDlszpV2czT2izZsDJwY3hrbV9xw5tl5HeENRQFldzXJegEO0zgXYzkXS4trzeWpDtKWDu7G8LlbhKBt6/LbK1YAqz8XCSQm1mXmDJmeMLW12ehSO++AaRz9MUrtrN2cOvbr9pE1fZCz9Zir9YTCyitJHMX1HSnQmTXDB0/X1mZf85JkrWD+P4pzEV+Fv2WZ9lKk2pjBTbhAnMVQtrZik5KM//IP0LTlZoG6U7jLZKyIgMQf7iRangTJIvRh7Do/ihOwE7axCJ7w9KP2ppHv5scla2OsjvW8t0LMb1ICZMarO2xyjr4AG/vWHNPWfF9mowSGYprteMmUc6552hw3nvm0dwO1fbfnTdfagc3GgNUegdJ8ezdzLDnlve2rvT/VHUFkUMdjJORfMst8bI4N5jcVsS85WVc357oOnv7MqwVRe9+mc7TRl27oy3ndfutxgD4YlC/aAqU6pnMlo9ZhPZ0xmjdj4Mp5X3MG3BdeK2dN6mneTcCrd9Mp+uaCfaZIwuva2tf7ypecnj7yz0fdieOqfXb29m8h3blOAMo6Xn2UDKoDM7JfW1v33vblaHuLm6s7mnT91PGcp4Wtzk6Dbkzsan6E6Rxb22d9fOF/XR9Pz+kZpz3ROO1cu3kay2bd3cv3590wbX9t6QTgno6XTuigW5tBOjl2pzx7164lh25d2gKG/uwDvA58zrN/XlJ5nx9nfn/Jr91b/ebj03XUHOaP8UK9fToGmLcSlnh/ITA1MDEudG3iIwj2vVuAQXs/+75waxfR7p2XuZN+0Ky3Te+BhX33tuvtoRNGd27ved05vfu6dr3vr9qu99wXfe4dtxuja9+K4dlKuuO952jb7e/OW/j+su0Xtuv66e1/sTbVFvjnT+pVYeH06f7/dz3dON37wjGMD5hCFxcLOq+GCJ/LmB2lYj+NUPrCThd+7wbv3n+w6G5n76qyr7dN18T7wr572z1b/jPb7c7tPa87p3df1673/VXb9Z77os+943ZjdO37wGwlQS5eQq2OLWFO3lHADGqf3vaGUtWTNLYBZS/1tl32/+9L4OeRAGBizV68qSULIQcAs5dSMSZatY/l91r/zzOdfi99CTyTQMecCFD4WFWdhJAFzF5K5fNlewLR/taXwF9LAty4EpKcphLugNJWDFmlnaT5XXb215pUf5y+BHhm4FTG8hooVEYuwLnw1RdXXwJ/LQl0YWP3/n8BmbyFzzuP+p4AAAAASUVORK5CYII=;" vertex="1" parent="WIyWlLk6GJQsqaUBKTNV-1">
          <mxGeometry x="570" y="301" width="166" height="128" as="geometry" />
        </mxCell>
        <mxCell id="bLt_DuCS9akk9Niv8NfP-5" value="" style="endArrow=classic;html=1;rounded=0;fontSize=12;startSize=8;endSize=8;curved=1;" edge="1" parent="WIyWlLk6GJQsqaUBKTNV-1">
          <mxGeometry width="50" height="50" relative="1" as="geometry">
            <mxPoint x="320" y="360" as="sourcePoint" />
            <mxPoint x="390" y="360" as="targetPoint" />
          </mxGeometry>
        </mxCell>
        <mxCell id="bLt_DuCS9akk9Niv8NfP-6" value="Dev" style="rounded=0;whiteSpace=wrap;html=1;fontSize=16;" vertex="1" parent="WIyWlLk6GJQsqaUBKTNV-1">
          <mxGeometry x="190" y="330" width="120" height="60" as="geometry" />
        </mxCell>
        <mxCell id="bLt_DuCS9akk9Niv8NfP-7" value="push" style="text;strokeColor=none;fillColor=none;html=1;align=center;verticalAlign=middle;whiteSpace=wrap;rounded=0;fontSize=16;" vertex="1" parent="WIyWlLk6GJQsqaUBKTNV-1">
          <mxGeometry x="330" y="320" width="60" height="30" as="geometry" />
        </mxCell>
      </root>
    </mxGraphModel>
  </diagram>
</mxfile>
